<?xml version="1.0" standalone="no"?>
<!DOCTYPE svg PUBLIC "-//W3C//DTD SVG 20010904//EN"
 "http://www.w3.org/TR/2001/REC-SVG-20010904/DTD/svg10.dtd">
<svg version="1.0" xmlns="http://www.w3.org/2000/svg"
 width="608.000000pt" height="608.000000pt" viewBox="0 0 608.000000 608.000000"
 preserveAspectRatio="xMidYMid meet">
<metadata>
Created by potrace 1.11, written by Peter Selinger 2001-2013
</metadata>
<g transform="translate(0.000000,608.000000) scale(0.100000,-0.100000)"
fill="#000000" stroke="none">
<path d="M4327 5124 c-2 -3 -31 -7 -63 -10 -154 -13 -273 -46 -434 -121 -245
-113 -492 -336 -638 -575 -41 -67 -101 -181 -103 -195 -1 -5 -9 -24 -19 -43
-22 -44 -77 -238 -86 -305 -4 -27 -8 -59 -10 -70 -6 -28 -5 -190 1 -245 7 -68
31 -174 45 -201 8 -13 13 -25 12 -26 -1 -2 -1 -5 -1 -8 1 -3 2 -8 3 -12 4 -21
80 -154 105 -183 l28 -34 32 65 c30 59 140 220 191 279 33 39 52 62 95 115 21
28 42 52 45 55 3 3 41 46 85 95 205 231 613 639 791 792 12 10 46 39 75 64 30
26 83 70 119 98 36 28 72 57 80 64 51 42 160 114 216 142 55 28 62 34 45 40
-12 3 -21 10 -21 14 0 5 -26 26 -57 48 -137 95 -264 138 -441 148 -40 2 -76 6
-81 9 -4 3 -11 3 -14 0z"/>
<path d="M4982 4806 c-18 -48 -174 -282 -211 -316 -5 -5 -73 -86 -111 -134
-125 -156 -550 -596 -782 -808 -241 -221 -487 -414 -599 -472 l-69 -34 58 -46
c174 -139 402 -200 652 -173 202 22 370 84 595 220 11 7 22 14 25 17 3 3 34
27 70 55 123 94 244 225 338 364 97 145 190 358 217 496 3 17 8 41 11 55 25
116 24 309 -1 445 -9 48 -45 155 -67 199 -23 49 -100 166 -108 166 -3 0 -11
-15 -18 -34z"/>
<path d="M1716 4733 c-1 -1 -15 -4 -31 -7 -95 -18 -131 -29 -210 -69 -217
-108 -390 -301 -494 -551 -34 -81 -62 -166 -55 -166 2 0 -1 -11 -6 -26 -29
-75 -48 -294 -36 -409 19 -173 63 -329 127 -442 36 -65 83 -133 91 -133 5 0 8
-5 8 -10 0 -35 234 -210 280 -210 12 0 15 17 15 98 1 53 4 120 8 147 4 28 9
70 13 95 8 60 80 420 99 495 8 33 18 71 21 85 2 14 9 39 14 55 5 17 11 41 14
55 6 33 96 341 102 352 3 4 7 16 9 25 17 87 178 496 205 523 18 18 44 69 38
76 -10 9 -203 25 -212 17z"/>
<path d="M1994 4601 c0 -86 -9 -190 -20 -246 -3 -11 -7 -40 -10 -65 -2 -25 -9
-63 -15 -85 -6 -22 -13 -55 -15 -74 -3 -18 -14 -72 -25 -120 -11 -47 -22 -99
-25 -116 -3 -16 -14 -61 -24 -100 -11 -38 -21 -81 -24 -95 -8 -43 -106 -380
-121 -416 -8 -19 -12 -34 -9 -34 2 0 -2 -13 -11 -30 -8 -16 -15 -33 -15 -37 0
-11 -10 -44 -20 -68 -4 -11 -27 -69 -50 -130 -48 -126 -92 -216 -126 -262 -27
-35 -24 -40 32 -49 183 -29 370 22 541 147 62 46 158 140 198 194 17 22 32 42
35 45 39 38 153 270 176 360 12 48 35 159 41 199 9 60 9 295 0 346 -15 88 -47
217 -57 230 -5 6 -9 15 -10 20 -10 46 -59 141 -115 220 -43 61 -141 165 -156
165 -4 0 -14 6 -22 14 -14 15 -107 67 -137 78 -14 5 -16 -8 -16 -91z"/>
<path d="M2818 2614 c-3 -2 -51 -9 -123 -19 -11 -1 -63 -17 -115 -34 -315
-105 -572 -350 -686 -650 -14 -36 -27 -77 -29 -91 -2 -14 -8 -48 -13 -76 -17
-103 2 -266 39 -336 9 -16 13 -14 42 19 17 20 68 65 112 100 101 80 94 74 135
103 19 13 44 32 54 42 11 10 25 18 32 18 7 0 14 3 16 8 5 12 235 158 388 245
154 87 191 107 199 107 5 0 11 3 13 8 4 9 271 141 358 176 36 15 74 31 85 37
12 6 28 11 38 13 9 1 19 5 23 9 4 4 29 10 56 13 26 4 48 10 48 15 0 11 -70
101 -94 120 -12 9 -32 27 -46 39 -38 33 -177 96 -254 115 -55 13 -269 28 -278
19z"/>
<path d="M3476 2226 c-92 -103 -381 -305 -739 -516 -17 -10 -52 -30 -77 -43
-25 -13 -63 -34 -85 -47 -22 -12 -103 -54 -180 -92 -77 -38 -152 -76 -167 -84
-16 -8 -28 -12 -28 -8 0 3 -6 2 -12 -4 -21 -16 -204 -81 -237 -84 l-30 -2 18
-30 c36 -55 132 -144 194 -177 34 -19 64 -34 67 -35 3 0 18 -6 33 -12 120 -50
335 -59 502 -23 107 24 253 84 328 135 21 14 41 26 45 26 4 0 19 11 34 25 15
14 30 25 33 25 6 0 64 52 114 101 32 31 93 105 105 128 5 9 12 18 16 21 16 13
74 119 99 184 34 84 48 133 57 201 13 103 11 148 -12 261 -4 23 -33 94 -37 93
-1 0 -19 -19 -41 -43z"/>
</g>
</svg>
