<?xml version="1.0" encoding="UTF-8"?>
<svg width="30px" height="36px" viewBox="0 0 30 36" version="1.1" xmlns="http://www.w3.org/2000/svg" xmlns:xlink="http://www.w3.org/1999/xlink">
    <title>icon-stakeholer-factory</title>
    <g id="icon-stakeholer-factory" stroke="none" stroke-width="1" fill="none" fill-rule="evenodd">
        <path d="M15,10.5 L15,4.5 L-0.707552453,6 L-1.57651669e-14,31.5 L30,31.5 L30,10.5 L15,10.5 Z M12.9969296,16.8240054 L1.77571836,16.8240054 L1.77571836,14.1480109 L12.9969296,14.1480109 L12.9969296,16.8240054 Z M12.9969296,22.3206536 L1.77571836,22.3206536 L1.77571836,19.6446591 L12.9969296,19.6446591 L12.9969296,22.3206536 Z M12.9969296,27.4932964 L1.77571836,27.4932964 L1.77571836,24.8173018 L12.9969296,24.8173018 L12.9969296,27.4932964 Z M12.9969296,11.3273572 L1.77571836,11.3273572 L1.77571836,8.65136268 L12.9969296,8.65136268 L12.9969296,11.3273572 Z M28.5189852,29.2316281 L15,29.2316281 L15,12.4096791 L28.5189852,12.4096791 L28.5189852,29.2316281 Z M26.8657016,19.3206536 L16.6532836,19.3206536 L16.6532836,22.3206536 L26.8657016,22.3206536 L26.8657016,19.3206536 Z M26.8657016,14.1480109 L16.6532836,14.1480109 L16.6532836,17.1480109 L26.8657016,17.1480109 L26.8657016,14.1480109 Z M26.8657016,24.4932964 L16.6532836,24.4932964 L16.6532836,27.4932964 L26.8657016,27.4932964 L26.8657016,24.4932964 Z" id="Shape" fill="#25265E" fill-rule="nonzero"></path>
    </g>
</svg>