<?xml version="1.0" encoding="UTF-8"?>
<svg width="30px" height="36px" viewBox="0 0 30 36" version="1.1" xmlns="http://www.w3.org/2000/svg" xmlns:xlink="http://www.w3.org/1999/xlink">
    <title>icon-stakeholer-chain</title>
    <g id="icon-stakeholer-chain" stroke="none" stroke-width="1" fill="none" fill-rule="evenodd">
        <path d="M13.43966,13.471126 L10.43966,13.470466 L10.43966,14.531466 C10.43966,15.6360355 9.54422949,16.531466 8.43965999,16.531466 L2.43965999,16.531466 C1.33509049,16.531466 0.43965999,15.6360355 0.43965999,14.531466 L0.43965999,8.53146601 C0.43965999,7.42689651 1.33509049,6.53146601 2.43965999,6.53146601 L8.43965999,6.53146601 C9.54422949,6.53146601 10.43966,7.42689651 10.43966,8.53146601 L10.43966,10.470466 L19.55966,10.470466 L19.56034,8.53146601 C19.56034,7.42689651 20.4557705,6.53146601 21.56034,6.53146601 L27.56034,6.53146601 C28.6649095,6.53146601 29.56034,7.42689651 29.56034,8.53146601 L29.56034,14.531466 C29.56034,15.6360355 28.6649095,16.531466 27.56034,16.531466 L21.56034,16.531466 C20.4557705,16.531466 19.56034,15.6360355 19.56034,14.531466 L19.55966,13.470466 L16.43966,13.471126 L16.43966,13.471126 L16.43966,23.470466 L19.43966,23.471126 L19.43966,21.468534 C19.43966,20.3639645 20.3350905,19.468534 21.43966,19.468534 L27.43966,19.468534 C28.5442295,19.468534 29.43966,20.3639645 29.43966,21.468534 L29.43966,27.468534 C29.43966,28.5731035 28.5442295,29.468534 27.43966,29.468534 L21.43966,29.468534 C20.3350905,29.468534 19.43966,28.5731035 19.43966,27.468534 L19.43966,26.471126 L19.43966,26.471126 L14.43966,26.471126 C13.8873752,26.471126 13.43966,26.0234107 13.43966,25.471126 L13.43966,13.471126 Z" id="Combined-Shape" fill="#25265E"></path>
    </g>
</svg>