<?xml version="1.0" encoding="UTF-8"?>
<!-- Generated by Pixelmator Pro 3.3.6 -->
<svg width="512" height="512" viewBox="0 0 512 512" xmlns="http://www.w3.org/2000/svg">
    <path id="Shape" fill="currentColor" fill-rule="evenodd" stroke="none" d="M 289.639526 511.91568 C 178.591782 511.835785 172.057968 511.733063 164 509.94046 C 158.851913 508.795227 151.55658 506.09494 145.5 503.092896 C 140 500.36676 132.471085 495.627777 128.769089 492.56189 C 125.067085 489.495972 119.58535 483.727814 116.587456 479.743744 C 113.589561 475.759705 109.524933 469.105011 107.554962 464.955566 C 105.584984 460.806091 102.966721 453.381104 101.736595 448.455566 C 99.624924 440.000183 99.5 437.454956 99.5 402.885864 C 99.5 369.479828 99.660431 365.931244 101.330986 362.385864 C 102.338028 360.248657 104.588028 356.998047 106.330986 355.162354 C 108.073944 353.32666 111.074997 351.018097 113 350.032227 C 114.925003 349.046326 118.300003 347.94574 120.5 347.586487 C 123.071526 347.166565 126.464157 347.515778 130 348.564392 C 134.116074 349.785034 136.684799 351.417358 140.208618 355.051483 C 143.563309 358.5112 145.352753 361.43042 146.431824 365.203735 C 147.624435 369.374146 148.005249 377.833832 148.223206 405 C 148.5 439.5 148.5 439.5 151.319336 445 C 152.869965 448.024994 155.497589 451.912811 157.158493 453.639587 C 158.819397 455.366394 162.500702 458.066376 165.339157 459.639587 C 170.5 462.5 170.5 462.5 288.5 462.816254 C 399.451385 463.113617 406.828522 463.026093 412 461.351074 C 416.15332 460.005829 418.988373 458.09201 423.578613 453.534821 C 427.866943 449.277374 430.149475 446.048553 431.328613 442.571869 C 432.866241 438.038116 433 423.106903 433 256 C 433 88.893097 432.866241 73.961884 431.328613 69.428131 C 430.149475 65.951447 427.866943 62.722626 423.578613 58.465179 C 418.988373 53.90799 416.15332 51.994171 412 50.648926 C 406.828522 48.973907 399.451385 48.886383 288.5 49.183746 C 170.5 49.5 170.5 49.5 165.339157 52.360413 C 162.500702 53.933624 158.819397 56.633636 157.158493 58.360413 C 155.497589 60.087189 152.869965 63.975006 151.319336 67 C 148.5 72.5 148.5 72.5 148.220322 103 C 148.004593 126.526947 147.595367 134.709717 146.430374 138.791351 C 145.522232 141.973053 143.468109 145.68985 141.278259 148.11377 C 139.275253 150.330841 135.805725 153.088715 133.568207 154.242371 C 130.764618 155.687897 127.607231 156.345367 123.411034 156.357452 C 118.468628 156.371704 116.303169 155.804321 111.911034 153.344391 C 107.93602 151.118042 105.653008 148.916534 103.308472 145.048981 C 101.377296 141.863281 99.863754 137.75354 99.4758 134.64209 C 99.123169 131.813934 99.015709 116.225006 99.236984 100 C 99.598747 73.474854 99.860786 69.693268 101.835556 62.5 C 103.043488 58.100006 105.630409 51.125 107.584267 47 C 109.538124 42.875 113.589561 36.240326 116.587456 32.256256 C 119.58535 28.272186 125.067085 22.504028 128.769089 19.43811 C 132.471085 16.372223 140 11.645569 145.5 8.934448 C 151 6.223358 158.199997 3.221863 161.5 2.264465 C 167.017883 0.663605 176.981659 0.494476 285.5 0.15976 C 389.020569 -0.159546 404.684296 -0.011963 413.151459 1.362366 C 419.382751 2.373779 425.995544 4.305328 431.812347 6.81308 C 436.767517 8.949371 443.674377 12.73761 447.160889 15.231354 C 450.6474 17.725128 456.050964 22.446533 459.168823 25.723389 C 462.286652 29.000244 466.637787 34.466461 468.837952 37.870575 C 471.038147 41.274689 474.18988 47.308899 475.841797 51.279938 C 477.493713 55.250977 479.667603 62.774994 480.672638 68 C 482.400146 76.980865 482.5 87.254059 482.5 256 C 482.5 424.745972 482.400146 435.019104 480.672638 444 C 479.667603 449.225006 477.493713 456.749023 475.841797 460.720062 C 474.18988 464.691101 471.038147 470.725311 468.837952 474.129425 C 466.637787 477.533508 462.286652 482.999756 459.168823 486.276611 C 456.050964 489.553467 450.6474 494.274872 447.160889 496.768616 C 443.674377 499.26239 436.870758 503.006104 432.041748 505.088013 C 427.212708 507.169922 419.553101 509.576813 415.020386 510.436646 C 407.823578 511.801849 391.932617 511.989319 289.639526 511.91568 Z"/>
    <path id="path1" fill="currentColor" fill-rule="evenodd" stroke="none" d="M 263.622406 365.601196 C 260.621124 365.853394 256.94632 365.452423 254.747971 364.632935 C 252.684357 363.863678 249.431885 362.041321 247.520264 360.583252 C 245.608643 359.125183 242.821411 355.845032 241.326401 353.294006 C 239.13858 349.56076 238.598251 347.372284 238.557175 342.077881 C 238.516373 336.820953 239.007553 334.634003 241.003067 331.187622 C 242.376373 328.815826 253.175003 317.230042 265 305.441437 C 276.825012 293.652832 286.645508 283.330902 286.823334 282.503784 C 287.109619 281.172272 274.041931 281 172.756989 281 C 94.407349 281 56.507832 280.65625 52.465385 279.908966 C 49.219318 279.308899 44.974174 278.000122 43.031723 277.000549 C 41.089275 276.000977 38.29998 273.904449 36.833286 272.341583 C 35.366592 270.778717 33.341595 267.751343 32.333286 265.614136 C 31.23081 263.277313 30.5 259.477356 30.5 256.081726 C 30.5 252.719055 31.253387 248.764496 32.362652 246.304596 C 33.387112 244.032745 35.637112 240.807861 37.362652 239.138214 C 39.088192 237.468536 42.75 235.066895 45.5 233.801239 C 50.5 231.5 50.5 231.5 168.75 231.222473 C 261.570221 231.004639 287 230.680206 287 229.713745 C 287 229.036591 277.293121 218.811493 265.429169 206.991272 C 250.82399 192.439972 243.011398 183.885406 241.235626 180.5 C 239.345596 176.89679 238.606216 173.963531 238.588913 170 C 238.570465 165.773987 239.252289 163.226013 241.532455 159 C 243.553589 155.254089 246.023636 152.48172 249.277435 150.307159 C 251.905029 148.551086 256.076538 146.811157 258.547485 146.440613 C 261.018433 146.070068 264.815765 146.217621 266.985992 146.768494 C 269.15625 147.319336 272.859741 148.917908 275.215973 150.320862 C 277.572174 151.723785 298.850006 172.246216 322.5 195.926239 C 352.086609 225.550415 366.431 240.61972 368.484558 244.234711 C 370.894867 248.477753 371.472076 250.670929 371.484558 255.633514 C 371.495605 260.030029 370.838196 263.161438 369.174011 266.639221 C 367.393616 270.359802 356.368652 281.973755 322.174011 316.150208 C 291.797119 346.510925 276.09903 361.499756 273.122406 362.985657 C 270.714722 364.1875 266.439728 365.364502 263.622406 365.601196 Z"/>
</svg>
