<?xml version="1.0" encoding="UTF-8"?>
<svg width="24px" height="24px" viewBox="0 0 24 24" version="1.1" xmlns="http://www.w3.org/2000/svg" xmlns:xlink="http://www.w3.org/1999/xlink">
    <title>icon-qrcode</title>
    <defs>
        <filter id="filter-1">
            <feColorMatrix in="SourceGraphic" type="matrix" values="0 0 0 0 0.529783 0 0 0 0 0.532175 0 0 0 0 0.665718 0 0 0 1.000000 0"></feColorMatrix>
        </filter>
    </defs>
    <g id="icon-qrcode" stroke="none" stroke-width="1" fill="none" fill-rule="evenodd">
        <g id="fa-seedling-copy-37" transform="translate(2.533333, 2.000000)" filter="url(#filter-1)">
            <g>
                <path d="M3.44482378,9.10714286 L8.6064034,9.10714286 L8.6064034,3.75 L3.44482378,3.75 L3.44482378,9.10714286 Z M5.16535032,5.53571429 L6.88587686,5.53571429 L6.88587686,7.32142857 L5.16535032,7.32142857 L5.16535032,5.53571429 Z M10.3269299,3.75 L10.3269299,9.10714286 L15.4885095,9.10714286 L15.4885095,3.75 L10.3269299,3.75 Z M13.767983,7.32142857 L12.0474565,7.32142857 L12.0474565,5.53571429 L13.767983,5.53571429 L13.767983,7.32142857 Z M3.44482378,16.25 L8.6064034,16.25 L8.6064034,10.8928571 L3.44482378,10.8928571 L3.44482378,16.25 Z M5.16535032,12.6785714 L6.88587686,12.6785714 L6.88587686,14.4642857 L5.16535032,14.4642857 L5.16535032,12.6785714 Z M14.6282463,10.8928571 L15.4885095,10.8928571 L15.4885095,14.4642857 L12.9077197,14.4642857 L12.9077197,13.5714286 L12.0474565,13.5714286 L12.0474565,16.25 L10.3269299,16.25 L10.3269299,10.8928571 L12.9077197,10.8928571 L12.9077197,11.7857143 L14.6282463,11.7857143 L14.6282463,10.8928571 Z M14.6282463,15.3571429 L15.4885095,15.3571429 L15.4885095,16.25 L14.6282463,16.25 L14.6282463,15.3571429 Z M12.9077197,15.3571429 L13.767983,15.3571429 L13.767983,16.25 L12.9077197,16.25 L12.9077197,15.3571429 Z" id="qrcode-solid" fill="#181B31" fill-rule="nonzero"></path>
            </g>
        </g>
    </g>
</svg>