<?xml version="1.0" encoding="UTF-8"?>
<svg width="24px" height="24px" viewBox="0 0 24 24" version="1.1" xmlns="http://www.w3.org/2000/svg" xmlns:xlink="http://www.w3.org/1999/xlink">
    <title>icon-social-youtube</title>
    <defs>
        <path d="M9.58606878,15.1011759 L9.58606878,8.68788817 C11.9767261,9.75923612 13.8282822,10.7941155 16.0181191,11.9099206 C14.2119831,12.8638743 11.9767261,13.9340909 9.58606878,15.1011759 M22.9092184,5.49776428 C22.4968315,4.98032458 21.7939791,4.57799338 21.0456983,4.44464489 C18.8462974,4.04687368 5.12514286,4.04574226 2.92697797,4.44464489 C2.32692384,4.55177625 1.79261305,4.8104961 1.33360243,5.2128273 C-0.600429875,6.92242632 0.0055954726,16.0904668 0.471772509,17.5755631 C0.667804945,18.2183741 0.921214309,18.6822482 1.24036702,18.9865565 C1.65155873,19.3888763 2.21455799,19.6658362 2.86123462,19.7900647 C4.67215865,20.1468073 14.0016754,20.3462586 21.007435,19.8436303 C21.6529116,19.736499 22.2242737,19.4504306 22.6749107,19.0310022 C24.4631187,17.3282375 24.3411984,7.64503162 22.9091944,5.49775285" id="path-1"></path>
    </defs>
    <g id="icon-social-youtube" stroke="none" stroke-width="1" fill="none" fill-rule="evenodd">
        <mask id="mask-2" fill="white">
            <use xlink:href="#path-1"></use>
        </mask>
        <use id="Fill" fill="#000000" xlink:href="#path-1"></use>
    </g>
</svg>