<?xml version="1.0" encoding="UTF-8"?>
<svg width="32px" height="32px" viewBox="0 0 32 32" version="1.1" xmlns="http://www.w3.org/2000/svg" xmlns:xlink="http://www.w3.org/1999/xlink">
    <title>icon-status-eye</title>
    <defs>
        <filter id="filter-1">
            <feColorMatrix in="SourceGraphic" type="matrix" values="0 0 0 0 0.145098 0 0 0 0 0.149020 0 0 0 0 0.368627 0 0 0 1.000000 0"></feColorMatrix>
        </filter>
    </defs>
    <g id="icon-status-eye" stroke="none" stroke-width="1" fill="none" fill-rule="evenodd">
        <g id="icons-32/fa-glasses-solid" filter="url(#filter-1)">
            <g id="eye-solid" transform="translate(4.210526, 8.140351)" fill="#181B31" fill-rule="nonzero">
                <path d="M23.4364912,7.2619883 C21.2165497,2.9305848 16.8216959,0 11.7894737,0 C6.75725146,0 2.36116959,2.93263158 0.14245614,7.26239766 C-0.0474555329,7.63806425 -0.0474555329,8.08164335 0.14245614,8.45730994 C2.36239766,12.7887135 6.75725146,15.7192982 11.7894737,15.7192982 C16.8216959,15.7192982 21.2177778,12.7866667 23.4364912,8.45690058 C23.6264029,8.081234 23.6264029,7.63765489 23.4364912,7.2619883 Z M11.7894737,13.7543867 C8.53390042,13.7543867 5.89473684,11.1152224 5.89473684,7.85964912 C5.89473684,4.60407586 8.53390042,1.96491228 11.7894737,1.96491228 C15.0450469,1.96491228 17.6842112,4.60407586 17.6842112,7.85964912 C17.6849712,9.4232636 17.0641646,10.923055 15.9585221,12.0286975 C14.8528795,13.13434 13.3530882,13.7551466 11.7894737,13.7543867 L11.7894737,13.7543867 Z M11.7894737,3.9298136 C11.4387088,3.93472664 11.0902072,3.98691238 10.7533918,4.08497076 C11.3271158,4.86463968 11.2452756,5.94647847 10.5607893,6.63096473 C9.87630303,7.315451 8.79446424,7.39729128 8.01479532,6.82356725 C7.57426431,8.44656906 8.21782385,10.1697545 9.61440178,11.1066496 C11.0109797,12.0435448 12.8495018,11.9854654 14.1841606,10.9622897 C15.5188193,9.93911403 16.0523324,8.17874459 15.5102399,6.58678412 C14.9681474,4.99482366 13.4711951,3.92586595 11.7894737,3.9298136 L11.7894737,3.9298136 Z"></path>
            </g>
        </g>
    </g>
</svg>