<?xml version="1.0" encoding="UTF-8"?>
<svg width="24px" height="24px" viewBox="0 0 24 24" version="1.1" xmlns="http://www.w3.org/2000/svg" xmlns:xlink="http://www.w3.org/1999/xlink">
    <title>icon-sliders-arrow--right</title>
    <g id="icon-sliders-arrow--right" stroke="none" stroke-width="1" fill="none" fill-rule="evenodd">
        <path d="M17.6741828,11.2195998 L8.58442827,2.3195096 C8.37419334,2.11349501 8.09354798,2 7.79430364,2 C7.49505929,2 7.21441393,2.11349501 7.004179,2.3195096 L6.33478169,2.97478882 C5.89920016,3.40177722 5.89920016,4.09575532 6.33478169,4.52209332 L13.9676713,11.9958537 L6.32631251,19.4779067 C6.11607758,19.6839213 6,19.9585532 6,20.2513963 C6,20.5445647 6.11607758,20.8191966 6.32631251,21.0253738 L6.99570982,21.6804904 C7.20611081,21.886505 7.48659011,22 7.78583446,22 C8.0850788,22 8.36572416,21.886505 8.57595909,21.6804904 L17.6741828,12.7722701 C17.884916,12.5656052 18.0006614,12.2896724 18,11.9963415 C18.0006614,11.7018723 17.884916,11.4261022 17.6741828,11.2195998 Z" id="Path" fill="#FFFFFF"></path>
    </g>
</svg>