<?xml version="1.0" encoding="UTF-8"?>
<svg width="24px" height="24px" viewBox="0 0 24 24" version="1.1" xmlns="http://www.w3.org/2000/svg" xmlns:xlink="http://www.w3.org/1999/xlink">
    <title>icon-sliders-arrow--left</title>
    <g id="icon-sliders-arrow--left" stroke="none" stroke-width="1" fill="none" fill-rule="evenodd">
        <path d="M17.4520976,11.2195998 L8.36234303,2.3195096 C8.1521081,2.11349501 7.87146273,2 7.57221839,2 C7.27297404,2 6.99232868,2.11349501 6.78209375,2.3195096 L6.11269644,2.97478882 C5.67711491,3.40177722 5.67711491,4.09575532 6.11269644,4.52209332 L13.7455861,11.9958537 L6.10422726,19.4779067 C5.89399233,19.6839213 5.77791475,19.9585532 5.77791475,20.2513963 C5.77791475,20.5445647 5.89399233,20.8191966 6.10422726,21.0253738 L6.77362457,21.6804904 C6.98402556,21.886505 7.26450486,22 7.56374921,22 C7.86299355,22 8.14363892,21.886505 8.35387385,21.6804904 L17.4520976,12.7722701 C17.6628307,12.5656052 17.7785762,12.2896724 17.7779148,11.9963415 C17.7785762,11.7018723 17.6628307,11.4261022 17.4520976,11.2195998 Z" id="Path" fill="#FFFFFF" transform="translate(11.777915, 12.000000) scale(-1, 1) translate(-11.777915, -12.000000) "></path>
    </g>
</svg>