<?xml version="1.0" encoding="UTF-8"?>
<!-- Generated by Pixelmator Pro 3.3.5 -->
<svg width="512" height="512" viewBox="0 0 512 512" xmlns="http://www.w3.org/2000/svg">
    <path id="Shape" fill="#999933" fill-rule="evenodd" stroke="none" d="M 110.5 92.5 C 111.370293 81.319092 112.236839 76.925964 112.987144 75.524017 C 113.809883 73.986725 115.769974 72.578461 117.925667 71.975861 C 119.891548 71.4263 124.420883 70.869446 127.990852 70.738342 C 134.158371 70.511871 134.545761 70.350555 135.767639 67.5 C 136.474915 65.850006 138.186249 62.2052 139.570618 59.400452 C 140.954987 56.595703 144.337952 51.776123 147.088333 48.690247 C 150.708633 44.628357 154.274734 41.985626 160.007233 39.116425 C 164.88327 36.675873 170.124481 34.878479 173.649109 34.43811 C 177.053558 34.012756 181.987137 34.204712 185.824905 34.911835 C 189.373581 35.565704 194.127197 37.034546 196.388519 38.175903 C 198.649826 39.317291 202.581131 41.766571 205.124725 43.618774 C 207.668335 45.470978 211.600601 49.438232 213.863098 52.434906 C 216.12561 55.43158 218.605179 59.372131 219.373245 61.191711 C 220.141312 63.011261 221.168076 65.850006 221.654953 67.5 C 222.539795 70.498688 222.54425 70.500214 231.755615 71.013306 C 239.428375 71.440674 241.330078 71.88562 243.115753 73.671295 C 244.83136 75.386902 245.384445 77.484985 245.880219 84.15799 L 246.5 92.5 L 270.5 93 C 294.5 93.5 294.5 93.5 301.810883 96.926086 C 305.831848 98.810455 310.851105 102.030457 312.964722 104.081696 C 315.078369 106.132904 318.194214 110.716309 319.888824 114.267029 C 322.114868 118.931305 323.274078 123.328308 324.065948 130.11145 C 324.733704 135.831451 325.227997 164.898468 325.330994 204.5 L 325.5 269.5 L 365.339325 270 C 405.178619 270.5 405.178619 270.5 407.034515 272.793091 C 408.055237 274.054321 409.154388 276.979309 409.477081 279.293091 C 409.799774 281.606873 410.161926 302.174988 410.281891 325 L 410.5 366.5 L 441.837982 367 C 473.175995 367.5 473.175995 367.5 475.523895 370.231262 C 476.815277 371.733459 478.151581 374.883453 478.49353 377.231262 C 478.835449 379.579071 478.976807 401.830078 478.807617 426.677917 C 478.507751 470.717682 478.447266 471.926941 476.406342 474.677917 C 475.254822 476.230072 472.779816 478.037109 470.906342 478.693542 C 468.455872 479.552185 453.889954 479.901398 419 479.937988 C 388.209686 479.970276 369.127228 479.607605 366.74054 478.944824 C 364.552307 478.337128 362.253632 476.79129 361.24054 475.246155 C 359.672638 472.854828 359.450409 468.17334 359 428.045776 L 358.5 383.5 L 350.5 383.5 L 342.5 383.5 L 342 428.045593 C 341.549591 468.172913 341.327362 472.854523 339.75946 475.245972 C 338.746277 476.791351 336.447845 478.337067 334.25946 478.944824 C 331.726898 479.648132 288.563599 479.950867 202 479.872498 C 131.324997 479.808472 70.800003 479.36438 67.5 478.88562 C 64.199997 478.40683 60.247387 477.579865 58.716419 477.047882 C 57.185448 476.515869 53.307312 474.238922 50.098343 471.987976 C 46.88937 469.737 42.914795 466.006348 41.265957 463.697632 C 39.617119 461.388947 37.344105 457.676697 36.214817 455.448181 C 35.085529 453.219696 33.675213 447.899628 33.080784 443.625824 C 32.345783 438.34137 32 387.911011 32 286 C 32 183.918274 32.345272 133.65097 33.083042 128.322357 C 33.853127 122.760345 35.20863 118.512604 37.774014 113.622284 C 40.263409 108.876831 42.950356 105.497162 46.440975 102.720917 C 49.223438 100.507904 53.974998 97.527893 57 96.098633 C 62.328403 93.581085 63.248783 93.484406 86.5 93 L 110.5 92.5 Z M 326.5 462.5 L 326.5 383.5 L 317 383.5 L 307.5 383.5 L 307.264404 395.5 C 307.134827 402.100006 306.767487 409.012787 306.44812 410.861725 C 306.128754 412.710693 304.792725 415.298187 303.479187 416.611725 C 302.165619 417.925293 299.979919 419 298.62204 419 C 297.264191 419 294.052704 417.396667 291.485443 415.437042 C 288.918182 413.477417 285.760284 411.392273 284.467896 410.803406 C 282.562927 409.935455 281.397003 410.157867 278.309052 411.978333 C 276.214081 413.213409 273.305542 415.073547 271.845642 416.111938 C 270.385712 417.150391 268.023224 418 266.595642 418 C 265.16803 418 263.11145 417.11145 262.025421 416.025452 C 260.939423 414.939423 259.811829 413.026917 259.519653 411.775452 C 259.227478 410.523956 258.87854 403.649994 258.744232 396.5 L 258.5 383.5 L 249 383.5 L 239.5 383.5 L 239.237885 421.997223 C 239.093719 443.170715 239.193939 461.062988 239.460587 461.757874 C 239.843002 462.754425 249.086319 462.966248 283.222687 462.760651 L 326.5 462.5 Z M 461.5 462.5 L 461.5 383.5 L 452 383.5 L 442.5 383.5 L 442.263184 397.5 C 442.096832 407.334167 441.584656 412.459259 440.54187 414.723755 C 439.599976 416.769226 438.067108 418.196045 436.347992 418.627502 C 434.652466 419.05304 432.827209 418.782227 431.470337 417.903748 C 430.277802 417.131683 427.096619 415.0177 424.401031 413.206055 C 421.458984 411.228699 418.732605 410.109863 417.580078 410.40686 C 416.524109 410.678986 413.341187 412.498779 410.506897 414.450806 C 407.391479 416.596497 404.158661 418 402.331818 418 C 400.532074 418 398.539551 417.149963 397.404999 415.898193 C 395.762695 414.086243 395.431061 411.707397 395 398.648193 L 394.5 383.5 L 385 383.5 L 375.5 383.5 L 375.237885 421.997223 C 375.093719 443.170715 375.193939 461.063049 375.460632 461.757996 C 375.843018 462.754456 384.987091 462.9664 418.722748 462.760742 L 461.5 462.5 Z M 78 431 C 88.4422 431 89.234474 430.856445 91.545456 428.545471 C 93.09269 426.99823 94 424.948364 94 423 C 94 421.051636 93.09269 419.00177 91.545456 417.454529 C 89.238693 415.147766 88.432556 415 78.156235 415 C 69.224625 415 66.82933 415.320557 65.080368 416.75 C 63.90271 417.712494 62.674343 420.154449 62.350666 422.176544 C 61.860352 425.239624 62.19154 426.28244 64.335625 428.426544 C 66.790871 430.881775 67.418602 431 78 431 Z M 157.73204 431 C 199.397079 431 205.841171 430.799561 207.777496 429.443298 C 209.507141 428.231812 210 426.901245 210 423.443298 C 210 420.333344 209.399841 418.399841 208 417 C 206.055496 415.055511 204.666672 415 157.954544 415 C 109.909088 415 109.909088 415 107.454544 417.454529 C 105.90731 419.00177 105 421.051636 105 423 C 105 424.948364 105.90731 426.99823 107.454544 428.545471 C 109.909088 431 109.909088 431 157.73204 431 Z M 276.258423 395.714111 C 276.941284 395.442719 278.684753 394.672821 280.132782 394.003235 C 282.222809 393.036774 283.506104 393.053558 286.357666 394.084686 C 288.333313 394.799072 290.211273 395.12204 290.530975 394.802368 C 290.850647 394.482697 290.974457 391.808899 290.806091 388.860565 C 290.5 383.5 290.5 383.5 282.5 383.5 C 274.5 383.5 274.5 383.5 274.190186 388.372925 C 274.019806 391.05304 274.136078 393.912231 274.448608 394.726685 C 274.761139 395.541138 275.575562 395.985474 276.258423 395.714111 Z M 411.750519 395.786926 C 412.16275 395.578247 413.84021 394.837921 415.478241 394.141724 C 417.949005 393.091644 419.108429 393.132019 422.282349 394.378784 C 425.39801 395.602631 426.202087 395.636963 426.613922 394.563751 C 426.892059 393.838928 426.980194 391.05304 426.809814 388.372925 C 426.5 383.5 426.5 383.5 418.5 383.5 C 410.5 383.5 410.5 383.5 410.190186 388.372925 C 410.019806 391.05304 410.132538 393.902985 410.440704 394.706116 C 410.748901 395.509216 411.338318 395.995605 411.750519 395.786926 Z M 78.515877 368 C 90.165802 368 90.977295 367.870483 92.443298 365.777496 C 93.299484 364.555115 94 362.35498 94 360.888275 C 94 359.42157 93.140633 357.15921 92.090286 355.860779 C 90.329803 353.684479 89.326004 353.473877 79.244164 353.165588 C 68.939087 352.850525 68.148949 352.967804 65.556923 355.197388 C 64.043961 356.498779 62.59185 358.684265 62.329998 360.054047 C 62.024334 361.653046 62.621971 363.520996 63.999535 365.272278 C 66.129387 367.97995 66.236115 368 78.515877 368 Z M 157.671265 368 C 201.557053 368 206.522324 367.83728 208.171265 366.345032 C 209.313522 365.311279 210 363.30484 210 361 C 210 358.518616 209.310532 356.686005 207.89502 355.404968 C 205.885956 353.586792 203.580658 353.5 157.306656 353.5 C 108.823296 353.5 108.823296 353.5 106.911644 355.860779 C 105.860245 357.15921 105 359.521729 105 361.110779 C 105 362.69986 105.900002 364.899994 107 366 C 108.945213 367.94519 110.333336 368 157.671265 368 Z M 393.5 366.5 L 393.5 286.5 L 384 286.5 L 374.5 286.5 L 374 301.648193 C 373.568939 314.707397 373.237305 317.086243 371.595001 318.898193 C 370.358795 320.262146 368.475006 321 366.229004 321 C 363.837341 321 361.269684 319.900177 357.918915 317.440491 C 355.251953 315.482727 352.266663 313.821472 351.284943 313.748779 C 350.303223 313.676086 347.335907 314.940369 344.690887 316.558289 C 342.045868 318.176239 338.749756 320.103149 337.36618 320.840393 C 335.353699 321.912659 334.266388 321.938782 331.929626 320.970825 C 329.863312 320.11496 328.707977 318.6987 327.980988 316.130493 C 327.415741 314.133728 326.851318 306.649994 326.726654 299.5 L 326.5 286.5 L 317 286.5 L 307.5 286.5 L 307.238037 325.49762 C 307.093933 346.946289 307.194183 365.063629 307.460785 365.758362 C 307.842957 366.754333 316.993774 366.96637 350.722748 366.760742 L 393.5 366.5 Z M 78.156235 307 C 88.432556 307 89.238693 306.852234 91.545456 304.545471 C 93.076889 303.014038 94 300.945557 94 299.045471 C 94 297.333313 93.124374 295.12439 92 294 C 90.222221 292.222229 88.666664 292 78 292 C 67.120186 292 65.802795 292.197205 63.887424 294.112579 C 62.220917 295.779083 61.897774 296.993164 62.35701 299.862579 C 62.6772 301.863159 63.90271 304.287506 65.080368 305.25 C 66.82933 306.679443 69.224625 307 78.156235 307 Z M 173 307 C 236.090912 307 236.090912 307 238.545456 304.545471 C 240.21344 302.877472 241 300.972931 241 298.602173 C 241 296.130615 240.352005 294.659546 238.777496 293.556702 C 236.822357 292.187256 228.882645 292 172.777496 292 C 110.333336 292 108.958191 292.041809 107 294 C 105.875626 295.12439 105 297.333313 105 299.045471 C 105 300.945557 105.923111 303.014038 107.454544 304.545471 C 109.909088 307 109.909088 307 173 307 Z M 344.198914 298.464844 C 345.464508 298.027527 348.524994 297.644287 351 297.61319 C 353.475006 297.582092 356.174988 297.768921 357 298.02832 C 358.219086 298.411682 358.5 297.376282 358.5 292.5 C 358.5 286.5 358.5 286.5 350.5 286.5 C 342.5 286.5 342.5 286.5 342.198914 292.880005 C 341.902863 299.152771 341.936493 299.246613 344.198914 298.464844 Z M 78.634422 244 C 90.16185 244 90.978676 243.86853 92.443298 241.777496 C 93.299484 240.555115 94 238.284668 94 236.732025 C 94 235.068176 92.992188 232.901276 91.545456 231.454559 C 89.234474 229.143555 88.4422 229 78 229 C 67.418602 229 66.790871 229.118225 64.335625 231.573456 C 62.188549 233.720551 61.860924 234.755554 62.358246 237.82019 C 62.686092 239.840485 63.725616 242.057404 64.668297 242.746735 C 65.82106 243.58963 70.393974 244 78.634422 244 Z M 173.443298 244 C 237.886597 244 237.886597 244 239.443298 241.777496 C 240.299484 240.555115 241 238.112762 241 236.350067 C 241 234.078827 240.232407 232.541382 238.365143 231.072571 C 235.762939 229.025696 234.950439 229 172.819687 229 C 109.909088 229 109.909088 229 107.454544 231.454559 C 105.923111 232.985992 105 235.054443 105 236.954559 C 105 238.666656 105.875626 240.87561 107 242 C 108.958618 243.958618 110.333336 244 173.443298 244 Z M 78.154991 182 C 88.666664 182 90.225128 181.774872 92 180 C 93.124374 178.87561 94 176.666656 94 174.954559 C 94 173.054443 93.076889 170.985992 91.545456 169.454559 C 89.267311 167.176392 88.37365 167 79.110558 167 C 73.621361 167 68.046181 167.41214 66.721268 167.915863 C 65.396355 168.419617 63.74081 170.211517 63.042286 171.897919 C 62.343758 173.58432 62.07531 175.753876 62.445728 176.719177 C 62.816147 177.684479 63.837139 179.267548 64.7146 180.237122 C 66.06739 181.731934 68.111061 182 78.154991 182 Z M 173.443298 182 C 237.886597 182 237.886597 182 239.443298 179.777496 C 240.299484 178.555115 241 176.284668 241 174.732025 C 241 173.068176 239.992188 170.901276 238.545456 169.454559 C 236.090912 167 236.090912 167 173 167 C 109.909088 167 109.909088 167 107.454544 169.454559 C 105.923111 170.985992 105 173.054443 105 174.954559 C 105 176.666656 105.875626 178.87561 107 180 C 108.958618 181.958618 110.333336 182 173.443298 182 Z M 230.5 113.5 C 230.5 86.5 230.5 86.5 224.5 86.26001 C 221.199997 86.128021 216.777618 85.537018 214.672501 84.946655 C 211.726898 84.120605 210.517242 83.088837 209.422501 80.46875 C 208.640121 78.596283 208 75.671906 208 73.970184 C 208 72.268463 206.895508 68.541443 205.545578 65.687927 C 204.1073 62.647675 201.208038 58.925629 198.542587 56.697571 C 196.040863 54.606415 192.434799 52.243958 190.529114 51.447723 C 188.46814 50.586578 183.767319 50 178.927353 50 C 172.187958 50 169.906769 50.441681 165.645233 52.571716 C 162.815353 53.986145 159.221283 56.348663 157.658417 57.821716 C 156.095551 59.294769 153.982208 62.122223 152.962097 64.104919 C 151.942001 66.087646 150.797028 70.137634 150.417694 73.104919 C 150.038376 76.072205 149.111603 79.720215 148.358185 81.211609 C 147.461456 82.986694 145.695206 84.285309 143.244171 84.971619 C 141.184875 85.548248 136.800003 86.128021 133.5 86.26001 C 127.5 86.5 127.5 86.5 127.217659 98.944519 C 127.06237 105.789032 127.162323 111.980621 127.439766 112.703613 C 127.849266 113.770752 137.59581 113.969421 179.222107 113.759094 L 230.5 113.5 Z"/>
</svg>
