<?xml version="1.0" encoding="UTF-8"?>
<svg width="24px" height="24px" viewBox="0 0 24 24" version="1.1" xmlns="http://www.w3.org/2000/svg" xmlns:xlink="http://www.w3.org/1999/xlink">
    <title>icon-view</title>
    <g id="icon-view" stroke="none" stroke-width="1" fill="none" fill-rule="evenodd">
        <path d="M12,9.68181818 C10.644392,9.68181818 9.54545455,10.7807556 9.54545455,12.1363636 C9.54545455,13.4919717 10.644392,14.5909091 12,14.5909091 C13.355608,14.5909091 14.4545455,13.4919717 14.4545455,12.1363636 C14.4545455,10.7807556 13.355608,9.68181818 12,9.68181818 L12,9.68181818 Z M12,16.2272727 C9.7406533,16.2272727 7.90909091,14.3957103 7.90909091,12.1363636 C7.90909091,9.87701693 9.7406533,8.04545455 12,8.04545455 C14.2593467,8.04545455 16.0909091,9.87701693 16.0909091,12.1363636 C16.0909091,14.3957103 14.2593467,16.2272727 12,16.2272727 L12,16.2272727 Z M12,6 C7.90909091,6 4.41545455,8.54454545 3,12.1363636 C4.41545455,15.7281818 7.90909091,18.2727273 12,18.2727273 C16.0909091,18.2727273 19.5845455,15.7281818 21,12.1363636 C19.5845455,8.54454545 16.0909091,6 12,6 Z" id="Shape" fill="#3C4858"></path>
    </g>
</svg>