<?xml version="1.0" encoding="UTF-8"?>
<svg width="24px" height="24px" viewBox="0 0 24 24" version="1.1" xmlns="http://www.w3.org/2000/svg" xmlns:xlink="http://www.w3.org/1999/xlink">
    <title>icon-remove</title>
    <g id="icon-remove" stroke="none" stroke-width="1" fill="none" fill-rule="evenodd">
        <path d="M8.7843055,8.08859116 L8.85355339,8.14644661 L11.781,11.073 L14.70897,8.14644661 C14.9042321,7.95118446 15.2208146,7.95118446 15.4160767,8.14644661 C15.5896431,8.32001296 15.6089282,8.58943736 15.4739322,8.7843055 L15.4160767,8.85355339 L12.488,11.781 L15.4160767,14.70897 C15.6113389,14.9042321 15.6113389,15.2208146 15.4160767,15.4160767 C15.2425104,15.5896431 14.973086,15.6089282 14.7782178,15.4739322 L14.70897,15.4160767 L11.781,12.488 L8.85355339,15.4160767 C8.65829124,15.6113389 8.34170876,15.6113389 8.14644661,15.4160767 C7.97288026,15.2425104 7.95359511,14.973086 8.08859116,14.7782178 L8.14644661,14.70897 L11.073,11.781 L8.14644661,8.85355339 C7.95118446,8.65829124 7.95118446,8.34170876 8.14644661,8.14644661 C8.32001296,7.97288026 8.58943736,7.95359511 8.7843055,8.08859116 Z" id="Path" fill="#25265E"></path>
    </g>
</svg>