<?xml version="1.0" encoding="UTF-8"?>
<!-- Generated by Pixelmator Pro 3.3.10 -->
<svg width="512" height="512" viewBox="0 0 512 512" xmlns="http://www.w3.org/2000/svg">
    <path id="Shape" fill="#999933" fill-rule="evenodd" stroke="none" d="M 246.25 384.986328 C 199.612595 384.999268 196.901627 384.901611 195.145645 383.14563 C 193.753876 381.753876 193.000275 378.573364 192.124634 370.39563 C 191.482971 364.403046 189.863297 348.700012 188.52536 335.5 C 187.187408 322.299988 185.889343 309.809906 185.640747 307.744232 C 185.332886 305.186035 185.716675 303.34613 186.844376 301.973999 C 188.10936 300.434845 192.039261 299.262268 203.5 297.004456 C 211.75 295.37915 225.35379 293.504791 233.730652 292.839233 C 245.676697 291.890076 252.05545 291.891968 263.308624 292.848114 C 271.199615 293.518585 284.096252 295.36853 291.967804 296.959167 C 299.931305 298.568329 306.954559 300.526001 307.801086 301.372498 C 309.162872 302.734314 308.936127 306.753601 305.638977 339.69693 C 303.613068 359.938599 301.513 378.135681 300.972137 380.134827 C 300.307648 382.59082 299.260834 383.964783 297.744354 384.371185 C 296.509949 384.702026 273.337494 384.978821 246.25 384.986328 Z"/>
    <path id="path1" fill="#999933" fill-rule="evenodd" stroke="none" d="M 382.610779 461 C 356.082153 461 353.018585 460.829651 351.1362 459.25 C 349.299652 457.708801 348.514313 453.576782 344.553925 424.617981 C 341.552826 402.673645 339.52713 390.927246 338.464081 389.30481 C 337.587952 387.967712 334.940094 386.045959 332.579926 385.034271 C 330.219788 384.022583 328.04538 382.560638 327.747925 381.785492 C 327.45047 381.010345 328.708252 365.778992 330.542999 347.938049 C 332.377777 330.097107 334.261169 314.375 334.728394 313 C 335.337311 311.207947 336.27475 310.519165 338.03891 310.567627 C 339.392517 310.604828 344.549988 312.329926 349.5 314.401184 C 354.450012 316.472473 362.774994 320.452698 368 323.246216 C 373.225006 326.039703 381.549988 331.056274 386.5 334.394104 C 391.450012 337.731934 398.034241 342.85144 401.131622 345.770752 C 404.229034 348.690063 408.188171 353.752014 409.929718 357.019501 C 411.671265 360.286987 413.74173 366.006805 414.530731 369.730194 C 415.638977 374.960144 415.969208 385.655121 415.982635 416.75 C 415.99942 455.678802 415.934357 457.065643 414 459 C 412.090729 460.909271 410.666656 461 382.610779 461 Z"/>
    <path id="path2" fill="#999933" fill-rule="evenodd" stroke="none" d="M 112.077972 461 C 138.606598 461 141.670166 460.829651 143.552551 459.25 C 145.389099 457.708801 146.174438 453.576782 150.134827 424.617981 C 153.135925 402.673645 155.161621 390.927246 156.22467 389.30481 C 157.1008 387.967712 159.748657 386.045959 162.108826 385.034271 C 164.468964 384.022583 166.643372 382.560638 166.940826 381.785492 C 167.238281 381.010345 165.980499 365.778992 164.145752 347.938049 C 162.310974 330.097107 160.427582 314.375 159.960358 313 C 159.35144 311.207916 158.414001 310.519135 156.649841 310.567627 C 155.296234 310.604828 150.138763 312.329926 145.188751 314.401184 C 140.238739 316.472443 131.913757 320.452698 126.688751 323.246185 C 121.463745 326.039703 113.138763 331.056244 108.188751 334.394073 C 103.238739 337.731903 96.65451 342.85141 93.557121 345.770752 C 90.459709 348.690063 86.50058 353.752014 84.759033 357.019501 C 83.017487 360.286987 80.947021 366.006805 80.158012 369.730194 C 79.049767 374.960144 78.719543 385.655121 78.706116 416.75 C 78.689331 455.678802 78.754395 457.065643 80.688744 459 C 82.598022 460.909241 84.022095 461 112.077972 461 Z"/>
    <path id="path3" fill="#999933" fill-rule="evenodd" stroke="none" d="M 181.654984 408 C 179.721344 408 177.661591 407.261627 176.77327 406.25 C 175.928085 405.287506 174.93515 403.509979 174.566757 402.299988 C 174.173019 401.006744 174.543945 398.848816 175.46666 397.064453 C 176.330002 395.394958 178.152191 393.748901 179.515945 393.406647 C 180.879715 393.064362 182.778244 393.084656 183.734894 393.451782 C 184.691544 393.818848 186.267548 394.837158 187.237122 395.7146 C 188.251648 396.632751 189 398.72995 189 400.654968 C 189 402.666656 188.202789 404.797211 187 406 C 185.797211 407.202789 183.666672 408 181.654984 408 Z"/>
    <path id="path4" fill="#999933" fill-rule="evenodd" stroke="none" d="M 313.345001 408 C 311.333344 408 309.202789 407.202789 308 406 C 306.797211 404.797211 306 402.666656 306 400.654968 C 306 398.72995 306.748352 396.632751 307.762878 395.7146 C 308.732452 394.837158 310.308472 393.818848 311.265106 393.451782 C 312.221771 393.084656 314.12027 393.064362 315.484039 393.406647 C 316.847809 393.748901 318.669983 395.394958 319.533325 397.064453 C 320.456055 398.848816 320.826965 401.006744 320.433258 402.299988 C 320.06485 403.509979 319.07193 405.287506 318.226746 406.25 C 317.338409 407.261627 315.278656 408 313.345001 408 Z"/>
    <path id="path5" fill="#999933" fill-rule="evenodd" stroke="none" d="M 105 172.681793 C 100.393265 173.137146 99.215775 172.910095 97.75 171.283966 C 96.725311 170.147186 96 167.753693 96 165.509125 C 96 163.254974 97.000031 159.969299 98.427399 157.533691 C 99.792633 155.204071 103.402573 151.610504 106.677399 149.321106 C 109.879822 147.082306 116.324997 143.328827 121 140.980042 C 125.675003 138.631256 134.675003 134.735535 141 132.322876 C 147.324997 129.910217 155.649994 126.995697 159.5 125.846191 C 163.350006 124.696655 167.23938 123.023529 168.143066 122.128082 C 169.048706 121.230682 170.76149 115.857635 171.959366 110.156281 C 173.154663 104.467224 175.711517 95.27652 177.641266 89.732452 C 179.57103 84.188416 182.742477 76.468079 184.688934 72.576202 C 186.635406 68.684296 189.851303 63.353088 191.835403 60.729126 C 194.071136 57.772308 197.334503 55.015564 200.417755 53.479126 C 204.201309 51.593689 206.962143 51.002167 211.94635 51.009064 C 215.550858 51.014038 223.441803 52.139038 229.48175 53.509064 C 235.930817 54.971863 243.574188 56 248 56 C 252.425812 56 260.069183 54.971863 266.51825 53.509064 C 272.558197 52.139038 280.424988 51.023926 284 51.031036 C 288.157898 51.039276 291.96283 51.708344 294.559814 52.887909 C 296.792694 53.9021 299.997681 56.479736 301.682007 58.615967 C 303.366302 60.752167 306.322601 65.649994 308.251556 69.5 C 310.180511 73.350006 313.114838 80.774994 314.772278 86 C 316.429688 91.225006 318.837708 101.309082 320.123413 108.409088 C 321.409119 115.509094 323.001953 121.8591 323.663055 122.520203 C 324.324158 123.181305 328.607941 124.894379 333.182526 126.326996 C 337.757141 127.759613 346.042725 130.70755 351.594971 132.877991 C 357.147186 135.048401 365.92218 138.942261 371.094971 141.530975 C 376.267731 144.11972 382.613678 147.780121 385.197052 149.665192 C 387.780457 151.550262 390.862457 154.659424 392.04599 156.574402 C 393.229523 158.48938 394.43631 161.834045 394.727753 164.006989 C 395.100586 166.786591 394.742889 168.743439 393.521179 170.608032 C 391.894409 173.09079 391.428131 173.222961 386.142334 172.699951 C 383.039063 172.392883 376 171.209839 370.5 170.071014 C 365 168.932159 354.674927 167.11377 347.55542 166.030121 C 340.435913 164.946503 325.810913 163.258911 315.05542 162.279938 C 299.400299 160.855011 285.427826 160.5 245 160.5 C 204.572174 160.5 190.599686 160.855011 174.94458 162.279938 C 164.189087 163.258911 149.711227 164.931488 142.77153 165.996765 C 135.831848 167.062042 125.731796 168.879669 120.326965 170.035889 C 114.922134 171.192139 108.024994 172.382782 105 172.681793 Z"/>
    <path id="path6" fill="#999933" fill-rule="evenodd" stroke="none" d="M 246.119019 271.888153 C 243.028564 271.82663 238.25 271.366241 235.5 270.865051 C 232.75 270.363831 227.365845 269.021851 223.535248 267.882874 C 219.70462 266.743866 213.85463 264.442688 210.535248 262.769135 C 207.215866 261.095551 202.024994 258.034973 199 255.967804 C 195.975006 253.900665 191.378265 250.159912 188.785019 247.65506 C 186.191788 245.150177 182.141785 240.473297 179.785019 237.261932 C 177.428253 234.050568 173.56369 227.333069 171.197067 222.334137 C 168.573837 216.793152 166.139221 209.586517 164.960205 203.87262 C 163.896545 198.717682 163.020355 191.6875 163.013138 188.25 C 163.003113 183.481964 163.440247 181.559753 164.856659 180.143341 C 166.126266 178.873718 168.892944 178.076965 173.606659 177.623474 C 177.397995 177.258728 186.259888 176.527832 193.299759 175.999298 C 200.339615 175.470734 217.214615 174.746185 230.799744 174.38916 C 245.348236 174.006805 264.747467 174.207672 278 174.87793 C 290.375 175.503784 305.450012 176.466858 311.5 177.018066 C 317.549988 177.569305 324.207825 178.489868 326.295166 179.063812 C 328.983551 179.803009 330.393677 180.893677 331.130524 182.80368 C 331.854401 184.679993 331.842804 188.088928 331.092407 194.012909 C 330.499329 198.695007 329.324249 205.220032 328.481171 208.512909 C 327.638062 211.805817 325.14212 218.292755 322.934631 222.928375 C 320.727112 227.563995 316.970032 234.088989 314.58551 237.428375 C 312.200989 240.767761 307.975433 245.625916 305.195374 248.224243 C 302.415314 250.822601 296.715424 255.18457 292.528931 257.917542 C 288.342438 260.650513 281.373169 264.253296 277.041687 265.923676 C 272.710175 267.594086 265.244904 269.644592 260.452118 270.480377 C 255.659363 271.316162 249.209473 271.949677 246.119019 271.888153 Z"/>
</svg>
