<?xml version="1.0" encoding="UTF-8"?>
<svg width="24px" height="24px" viewBox="0 0 24 24" version="1.1" xmlns="http://www.w3.org/2000/svg" xmlns:xlink="http://www.w3.org/1999/xlink">
    <title>icon-social-instagram</title>
    <g id="icon-social-instagram" stroke="none" stroke-width="1" fill="none" fill-rule="evenodd">
        <path d="M12,2.164 C15.204,2.164 15.584,2.176 16.85,2.234 C20.104,2.382 21.62,3.924 21.77,7.152 C21.826,8.418 21.838,8.796 21.838,12 C21.838,15.204 21.826,15.584 21.77,16.848 C21.62,20.074 20.106,21.62 16.85,21.768 C15.584,21.824 15.206,21.838 12,21.838 C8.796,21.838 8.416,21.826 7.152,21.768 C3.892,21.618 2.382,20.07 2.232,16.848 C2.176,15.584 2.162,15.204 2.162,12 C2.162,8.796 2.176,8.416 2.232,7.152 C2.38,3.922 3.896,2.38 7.152,2.232 C8.416,2.174 8.796,2.164 12,2.164 Z M12,0 C8.74,0 8.334,0.014 7.052,0.074 C2.692,0.274 0.272,2.692 0.072,7.052 C0.014,8.334 0,8.742 0,12 C0,15.26 0.014,15.668 0.072,16.948 C0.272,21.306 2.692,23.728 7.052,23.928 C8.334,23.986 8.74,24 12,24 C15.26,24 15.668,23.986 16.95,23.928 C21.302,23.728 23.732,21.31 23.928,16.948 C23.986,15.668 24,15.26 24,12 C24,8.742 23.986,8.334 23.928,7.052 C23.732,2.698 21.31,0.272 16.95,0.074 C15.668,0.014 15.26,0 12,0 L12,0 Z M12,5.838 C8.598,5.838 5.838,8.596 5.838,12 C5.838,15.404 8.598,18.162 12,18.162 C15.402,18.162 18.162,15.404 18.162,12 C18.162,8.598 15.402,5.838 12,5.838 Z M12,16 C9.79,16 8,14.21 8,12 C8,9.792 9.79,8 12,8 C14.208,8 16.002,9.79 16.002,12 C16.002,14.21 14.208,16 12,16 Z M18.404,4.156 C17.61,4.156 16.964,4.8 16.964,5.596 C16.964,6.39 17.608,7.036 18.404,7.036 C19.2,7.036 19.846,6.392 19.846,5.596 C19.846,4.8 19.202,4.156 18.404,4.156 Z" id="instagram-copy-3" fill="#000000" fill-rule="nonzero"></path>
    </g>
</svg>