<?xml version="1.0" encoding="UTF-8"?>
<svg width="24px" height="24px" viewBox="0 0 24 24" version="1.1" xmlns="http://www.w3.org/2000/svg" xmlns:xlink="http://www.w3.org/1999/xlink">
    <title>icon-arrow--left</title>
    <g id="icon-arrow--left" stroke="none" stroke-width="1" fill="none" fill-rule="evenodd">
        <path d="M12.8964149,7.08859116 L12.9656628,7.14644661 L17.2909526,11.4761203 L17.3342868,11.5399241 L17.3694697,11.6154577 L17.3945257,11.7136471 L17.3982172,11.7455535 L17.3998676,11.7994314 C17.3993918,11.8201684 17.3976335,11.8408814 17.3945926,11.8614413 L17.4,11.7878906 L17.397169,11.8414123 L17.3831845,11.916817 L17.3622078,11.9789272 L17.3114088,12.0721961 L17.2654113,12.1291771 L12.9656628,16.4293346 C12.7704006,16.6245968 12.4538181,16.6245968 12.258556,16.4293346 C12.0849896,16.2557683 12.0657045,15.9863439 12.2007005,15.7914757 L12.258556,15.7222279 L15.6931094,12.2876719 L6.5,12.2878906 C6.22385763,12.2878906 6,12.064033 6,11.7878906 C6,11.5424307 6.17687516,11.3382823 6.41012437,11.2959463 L6.5,11.2878906 L15.6931094,11.2876719 L12.258556,7.85355339 C12.0849896,7.67998704 12.0657045,7.41056264 12.2007005,7.2156945 L12.258556,7.14644661 C12.4104265,6.99457605 12.6356884,6.96082704 12.8201773,7.04519957 L12.8964149,7.08859116 Z" id="Combined-Shape" fill="#25265E" fill-rule="nonzero" transform="translate(11.700000, 11.787891) scale(-1, 1) translate(-11.700000, -11.787891) "></path>
    </g>
</svg>