<?xml version="1.0" encoding="UTF-8"?>
<!-- Generated by Pixelmator Pro 3.3.5 -->
<svg width="512" height="512" viewBox="0 0 512 512" xmlns="http://www.w3.org/2000/svg">
    <path id="Shape" fill="#999933" fill-rule="evenodd" stroke="none" d="M 93 466.934143 C 91.625 466.922089 88.699997 466.275482 86.5 465.497253 C 84.300003 464.719025 80.846802 462.317963 78.826225 460.161591 C 76.805649 458.005188 74.650993 454.499176 74.038101 452.370453 C 73.246574 449.621246 72.862373 406.787476 72.711876 304.513672 C 72.524857 177.420013 72.32402 160.496552 71 160.264923 C 70.175003 160.120605 68.824997 160.435272 68 160.964203 C 66.700607 161.797272 66.433128 170.590454 66 226.712952 C 65.5 291.5 65.5 291.5 62.848057 296.010742 C 61.225735 298.770203 58.567024 301.437073 56.000141 302.879761 C 52.71603 304.725525 50.822693 305.127411 47.287849 304.728973 C 44.803871 304.448975 41.585434 303.341553 40.135765 302.268005 C 38.686092 301.194458 36.521259 298.87854 35.325024 297.121521 C 34.128788 295.364471 32.666286 291.671204 32.075024 288.914246 C 31.378469 285.66629 31.006973 263.939697 31.019808 227.200775 C 31.031248 194.45517 31.465956 167.549805 32.04874 163.516998 C 32.603756 159.676331 34.47578 153.457764 36.208794 149.697937 C 38.364532 145.020996 40.937695 141.443176 44.355827 138.369995 C 47.103683 135.899414 51.185246 132.822266 53.425964 131.53183 C 55.666683 130.241394 61.035633 128.468842 65.356964 127.592804 C 71.837059 126.279114 80.913239 126 117.149124 126 C 153.063492 126 162.49147 126.285706 168.79216 127.565002 C 173.402145 128.501007 178.655075 130.410065 181.862091 132.315002 C 184.811234 134.066742 189.036575 137.524994 191.251724 140 C 193.466888 142.475006 196.67894 147.424988 198.389648 151 C 201.5 157.5 201.5 157.5 201.850174 221.5 C 202.087479 264.871277 201.850616 287.250061 201.115326 290.929443 C 200.412323 294.447327 199.056763 297.383423 197.265152 299.268738 C 195.744324 300.869141 193.284851 302.813385 191.799667 303.589294 C 190.314468 304.365173 187.36705 305 185.249832 305 C 182.756882 305 179.924255 304.042908 177.211594 302.283966 C 174.907791 300.790161 172.230209 297.977661 171.261429 296.033966 C 169.650528 292.802002 169.457275 286.959473 169 227.668884 C 168.512833 164.502289 168.449142 162.800598 166.519348 161.389984 C 165.429977 160.593689 163.85498 160.073853 163.019348 160.234772 C 161.669754 160.494659 161.477386 176.559601 161.297668 304.013672 C 161.118484 431.074707 160.915848 448.089752 159.527496 452.651855 C 158.448944 456.195984 156.735382 458.90979 154.036514 461.348053 C 151.878769 463.297424 148.250198 465.394073 145.972992 466.007263 C 143.695801 466.620453 140.407791 466.81546 138.666321 466.440643 C 136.92485 466.065796 134.341187 465.16745 132.92485 464.444305 C 131.508514 463.72113 128.721451 461.327209 126.731354 459.12439 C 124.741264 456.9216 122.849716 453.629974 122.527901 451.809662 C 122.206093 449.989349 121.84317 412.049988 121.721397 367.5 C 121.5 286.5 121.5 286.5 117.5 286.5 C 113.5 286.5 113.5 286.5 113 368.5 C 112.540985 443.778748 112.357025 450.803619 110.755699 454.204254 C 109.796326 456.241577 107.771332 459.099731 106.255699 460.555695 C 104.740067 462.011658 101.699997 464.047363 99.5 465.079498 C 97.300003 466.111603 94.375 466.946198 93 466.934143 Z"/>
    <path id="path1" fill="#999933" fill-rule="evenodd" stroke="none" d="M 118.5 114.645111 C 114.181747 114.85202 110.138184 114.455566 107.94532 113.610229 C 105.99025 112.856567 102.61525 111.32309 100.44532 110.202484 C 98.275398 109.081909 94.599899 106.210999 92.277557 103.822754 C 89.798698 101.273529 86.954453 96.800415 85.389633 92.990234 C 83.695999 88.866364 82.687828 84.477478 82.624527 80.952789 C 82.554657 77.062531 83.358955 73.279724 85.317238 68.288391 C 87.417999 62.933899 89.34227 60.018158 93.086723 56.515656 C 95.82415 53.955109 100.637001 50.657043 103.781937 49.186615 C 108.388985 47.032562 110.967392 46.511841 117.052223 46.506561 C 123.675568 46.500793 125.432503 46.920288 131.33696 49.917236 C 135.039825 51.796722 139.615631 55.045898 141.505402 57.137665 C 143.395172 59.229401 146.402161 63.766663 148.187607 67.220428 C 150.931351 72.527924 151.436981 74.583588 151.453979 80.5 C 151.469788 86.00351 150.908096 88.713257 148.82663 93.17514 C 147.370529 96.296478 144.242844 100.950958 141.876221 103.518463 C 139.509583 106.085968 134.856766 109.564331 131.536621 111.248138 C 126.895821 113.601776 123.881416 114.387238 118.5 114.645111 Z"/>
    <path id="path2" fill="#999933" fill-rule="evenodd" stroke="none" d="M 380.5 173.5 C 380.89035 153.592743 381.31842 150.796417 382.965698 147.80188 C 384.71756 144.617188 385 142.298279 385 131.098938 C 385 123.697784 385.478394 117.044128 386.11026 115.657318 C 386.720917 114.317108 388.317108 112.720917 389.657318 112.11026 C 390.997559 111.499634 394.072845 111 396.491302 111 C 399.695862 111 401.649475 111.653931 403.694244 113.411011 C 406.5 115.822021 406.5 115.822021 406.825531 130.661011 C 407.092255 142.819519 407.453522 145.834625 408.825531 147.352448 C 410.12738 148.792664 410.611267 151.900604 411 161.31839 C 411.5 173.431854 411.5 173.431854 415 174.326324 C 416.924988 174.818298 421.424988 176.123749 425 177.227325 C 428.575012 178.330933 433.75 180.636627 436.5 182.351135 C 439.25 184.065643 443.637512 187.449615 446.25 189.871063 C 448.862488 192.292511 451 195.059631 451 196.020203 C 451 196.986084 449.994324 198.036255 448.75 198.36972 C 447.512512 198.701355 433.857239 198.978821 418.404999 198.986359 C 392.467041 198.998962 390.182922 199.140411 388.654999 200.828735 C 387.744751 201.834534 387 204.014801 387 205.673767 C 387 207.332703 387.822937 209.434784 388.828735 210.345001 C 390.451691 211.813782 394.326599 212 423.263641 212 C 442.029266 212 456.958618 212.413971 458.434906 212.97525 C 460.240326 213.661682 461 214.687805 461 216.440063 C 461 217.87796 460.182922 219.366913 459.065735 219.964813 C 457.841644 220.619934 444.697906 221 423.265747 221 C 398.259064 221 389.08609 221.313904 388.200012 222.200012 C 387.540009 222.859985 387 224.798981 387 226.508881 C 387 228.21875 387.638306 230.491241 388.418457 231.558868 C 389.768433 233.406281 391.470459 233.510681 423.668457 233.721252 C 442.275818 233.842926 458.620636 234.302246 459.990295 234.741913 C 461.359955 235.18158 462.646362 236.402283 462.84903 237.454559 C 463.051666 238.506836 462.407532 239.960052 461.417603 240.683899 C 460.011475 241.712097 452.036774 242 424.963867 242 C 392.661743 242 390.197662 242.124115 388.654999 243.828735 C 387.744751 244.834534 387 247.059021 387 248.772034 C 387 250.856903 387.734772 252.401245 389.222504 253.443298 C 391.12912 254.778748 396.317169 255 425.722504 255 C 458.666656 255 460.077789 255.077789 462 257 C 463.658508 258.658508 464 260.333313 464 266.808868 C 464 271.880676 463.514923 275.281128 462.616058 276.510406 C 461.277863 278.340454 460.992157 278.29248 453.976593 275.058777 C 449.986084 273.219421 443.521362 271.104279 439.610565 270.358429 C 435.699738 269.61261 427.325012 269.017639 421 269.036316 C 414.674988 269.054993 406.739044 269.662903 403.364563 270.387268 C 399.990051 271.111633 394.285126 273.081909 390.68692 274.765747 C 387.088715 276.449524 381.524658 279.624207 378.322357 281.820557 C 375.120056 284.016907 370.422485 287.993286 367.88327 290.656982 C 365.344086 293.320618 361.49881 298.200012 359.338226 301.5 C 357.177643 304.799988 354.554138 309.457306 353.508179 311.849548 C 352.377838 314.434875 350.645813 316.564362 349.238129 317.099548 C 347.935547 317.594788 340.149109 318 331.934906 318 C 318.333344 318 316.821442 317.821442 315 316 C 313.399536 314.399536 312.996521 312.65155 312.982544 307.25 C 312.972931 303.537506 312.317688 296.550507 311.526398 291.723328 C 310.735138 286.896179 308.601807 279.246185 306.785706 274.723328 C 304.969574 270.2005 301.361084 262.899994 298.766846 258.5 C 296.172607 254.100006 291.362 247.409241 288.076599 243.631653 C 284.791229 239.854065 279.856445 234.904083 277.110474 232.631653 C 274.364471 230.359253 270.178741 227.111023 267.808868 225.413361 C 265.438995 223.715698 260.995056 220.945923 257.933441 219.258331 C 254.871811 217.570709 247.488678 214.523132 241.526459 212.485901 C 235.564255 210.4487 227.987976 208.537231 224.690292 208.23819 C 220.757614 207.881592 218.058899 207.058899 216.84726 205.84726 C 215.26796 204.267975 215.001984 202.368073 215.013657 192.75 C 215.021164 186.5625 215.299133 180.485687 215.631348 179.245941 C 216.065491 177.625885 217.523544 176.616272 220.815125 175.656494 C 223.333984 174.922028 225.838715 173.617462 226.381195 172.757477 C 227.081863 171.646667 226.544785 168.486877 224.526657 161.846924 C 222.964203 156.706116 221.071976 149.799988 220.321732 146.5 C 219.571487 143.200012 218.254959 138.587494 217.396118 136.25 C 216.537277 133.912506 215.515137 132 215.124695 132 C 214.734253 132 213.873199 134.024994 213.211243 136.5 C 212.549286 138.975006 211.570145 141 211.035385 141 C 210.500626 141 208.316849 138.637512 206.182541 135.75 C 204.048248 132.862488 200.321548 128.813385 197.901001 126.751984 C 195.480453 124.690552 192.651611 122.267181 191.6147 121.366669 C 189.972473 119.940491 189.810104 118.812103 190.355331 112.614716 C 190.699585 108.70163 191.411453 101.825287 191.937256 97.333923 C 192.674728 91.034668 193.803268 87.358002 196.873947 81.250732 C 199.722763 75.584686 202.510208 71.817871 206.677307 68.00293 C 209.879791 65.071106 214.75 61.642242 217.5 60.383301 C 220.25 59.124329 225.182037 57.398041 228.460098 56.547119 C 233.473099 55.24585 242.801361 55 287.163055 55 C 324.454559 55 340.637482 55.333344 342.403168 56.137848 C 343.776672 56.763641 345.403107 58.676147 346.017456 60.387848 C 346.631805 62.099518 347.396393 66.791748 347.716492 70.815033 C 348.177979 76.615112 347.98172 78.446838 346.76889 79.659698 C 345.927582 80.500977 342.822937 81.484222 339.869629 81.844666 C 334.684265 82.477509 334.489136 82.612976 334.183533 85.791748 C 334.00946 87.602203 335.440918 99.977203 337.364502 113.291748 C 339.288086 126.606293 341.839905 144.924988 343.035217 154 C 344.230499 163.075012 345.633179 171.298279 346.152252 172.273956 C 347.007538 173.881653 348.66156 174.022247 363.798004 173.773956 L 380.5 173.5 Z M 318.5 173.5 C 318.050262 162.649994 316.372192 148.361359 314.480804 134.747498 C 312.589417 121.133606 310.323883 104.503723 309.446289 97.792206 C 308.568665 91.080658 307.418396 84.781799 306.890137 83.794708 C 305.992279 82.117035 303.470337 82.000244 268.214813 82.003723 C 232.848343 82.007233 230.304855 82.126465 227.365829 83.91861 C 225.642029 84.969727 223.096024 87.330536 221.708008 89.164856 C 220.319992 90.999176 218.733994 94.299988 218.183548 96.5 C 217.633087 98.700012 216.89502 102.597595 216.543381 105.161346 C 216.191757 107.725067 216.320984 110.080353 216.830566 110.395294 C 217.340149 110.710205 219.203262 110.246429 220.97084 109.364655 C 223.117371 108.293823 225.565308 107.944641 228.3423 108.313141 C 231.422516 108.721863 233.207977 109.709167 235.231857 112.122925 C 236.73439 113.914856 238.839905 118.107788 239.910767 121.440491 C 240.981644 124.773224 242.330963 129.75 242.909256 132.5 C 243.487564 135.25 244.896042 140.424988 246.03923 144 C 247.182404 147.575012 248.989685 154.223206 250.055389 158.773773 C 251.121094 163.324341 252.649292 168.618195 253.451385 170.537872 C 254.909729 174.028229 254.909729 174.028229 286.704865 173.764099 L 318.5 173.5 Z"/>
    <path id="path3" fill="#999933" fill-rule="evenodd" stroke="none" d="M 421.184631 401.899597 C 419.708069 401.84436 415.774078 401.200439 412.442352 400.468597 C 409.110657 399.736786 404.136658 398.283813 401.388977 397.239807 C 398.641327 396.19577 393.717255 393.522247 390.446625 391.298615 C 387.175964 389.075012 382.444061 385.054626 379.931274 382.364471 C 377.418488 379.674316 373.671692 374.449707 371.605072 370.754242 C 368.996765 366.09021 367.233368 361.047821 365.839447 354.267609 C 364.07547 345.687561 363.974701 343.601685 365.010681 337.111542 C 365.659332 333.047913 366.822815 327.592346 367.596191 324.988068 C 368.369568 322.383789 371.178253 316.933594 373.837708 312.876526 C 376.497162 308.819427 380.685303 303.657776 383.144745 301.406189 C 385.604156 299.154602 390.56076 295.665833 394.159393 293.653351 C 397.758057 291.640869 404.21637 289.095581 408.511169 287.997131 C 412.806 286.898712 419.0784 286 422.44986 286 C 425.82132 286 431.261841 286.681763 434.539886 287.515015 C 437.817963 288.348297 443.742096 290.612793 447.704681 292.547241 C 451.667236 294.481689 457.340759 298.286621 460.312531 301.002655 C 463.284271 303.718689 467.331085 308.316681 469.305389 311.220428 C 471.279724 314.124207 474.310425 320.100006 476.040283 324.5 C 478.064331 329.648315 479.380707 335.065735 479.733124 339.697754 C 480.041626 343.752228 479.745422 349.647705 479.054901 353.197754 C 478.380646 356.664001 476.148804 363.100006 474.095215 367.5 C 471.68338 372.667542 468.296631 377.729431 464.529663 381.796814 C 461.322205 385.26004 456.292725 389.690063 453.353058 391.641327 C 450.413391 393.59256 445.709045 396.062622 442.898987 397.130371 C 440.088928 398.19812 434.657654 399.730591 430.829529 400.535858 C 427.001373 401.341125 422.661163 401.954834 421.184631 401.899597 Z M 422.594849 370.914063 C 427.595581 370.984558 429.838989 370.416565 435.092041 367.75 C 439.462372 365.531494 442.357361 363.230469 444.213409 360.5 C 445.708862 358.299988 447.67923 354.300964 448.59201 351.613251 C 449.70578 348.333618 450.074188 345.007813 449.712219 341.500549 C 449.415558 338.626282 448.043915 334.046753 446.664093 331.323853 C 445.284302 328.600952 442.33902 324.732117 440.119019 322.726501 C 437.603882 320.454224 433.928314 318.453613 430.366333 317.418121 C 426.676666 316.34552 422.850647 315.949127 419.574982 316.30011 C 416.783752 316.599213 412.475006 317.751709 410 318.861206 C 407.524994 319.970703 404.087891 322.368317 402.361938 324.18924 C 400.636017 326.010162 398.430664 329.071411 397.461121 330.992004 C 396.491577 332.912659 395.476715 337.581299 395.205872 341.366791 C 394.860046 346.200195 395.206085 349.775574 396.368103 353.374756 C 397.278198 356.193665 399.584045 360.171509 401.492249 362.214417 C 403.400452 364.257324 406.429901 366.688049 408.224365 367.616028 C 410.01886 368.544006 412.61496 369.646301 413.99353 370.065674 C 415.372101 370.484985 419.242676 370.86676 422.594849 370.914063 Z"/>
    <path id="path4" fill="#999933" fill-rule="evenodd" stroke="none" d="M 423.402588 354.588806 C 421.048218 354.853912 418.465851 354.444672 416.89328 353.557251 C 415.459564 352.748199 413.547058 350.957703 412.64328 349.578308 C 411.739471 348.198944 411 345.495178 411 343.569977 C 411 341.095886 411.891876 339.053772 414.041901 336.605042 C 415.714966 334.699524 418.368347 332.858368 419.938324 332.51355 C 421.602936 332.147949 424.267273 332.502655 426.329987 333.364502 C 428.440338 334.246277 430.543335 336.150024 431.543427 338.083984 C 432.667603 340.257874 433.043427 342.639587 432.68454 345.315308 C 432.370483 347.65686 431.148743 350.305817 429.727264 351.727295 C 428.266174 353.188354 425.756744 354.32373 423.402588 354.588806 Z"/>
    <path id="path5" fill="#999933" fill-rule="evenodd" stroke="none" d="M 210.626419 401.478027 C 205.854935 401.754364 199.610092 401.389374 195.5 400.593872 C 191.649994 399.848724 186.024994 398.503479 183 397.604462 C 179.975006 396.705414 176.824997 395.543793 176 395.023041 C 174.772049 394.247955 174.445206 390.668762 174.197845 375.288147 C 173.95784 360.364563 174.18454 356.107544 175.299973 354.59198 C 176.659409 352.744934 176.889984 352.790283 182.522552 356.012878 C 185.72261 357.843811 190.851669 359.932861 193.920425 360.655273 C 196.989197 361.377686 203.100006 361.969116 207.5 361.969604 C 211.899994 361.970062 218.333679 361.302368 221.797043 360.48584 C 225.260422 359.669312 230.660431 357.377838 233.797043 355.393677 C 236.93367 353.409485 241.300003 349.8479 243.5 347.479065 C 245.699997 345.110229 248.970596 340.735657 250.76799 337.757751 C 252.671783 334.603638 254.695343 329.245239 255.615463 324.921692 C 256.718628 319.738098 257.013519 315.019043 256.593384 309.272949 C 256.262543 304.748108 255.272003 298.925629 254.392181 296.334167 C 253.51236 293.742737 251.066208 288.894897 248.956284 285.561218 C 246.846359 282.227539 243.180542 277.891541 240.810028 275.925659 C 238.439514 273.959778 234.475006 271.189636 232 269.769806 C 229.524994 268.349976 225.087509 266.358429 222.138931 265.344147 C 218.444473 264.073303 216.501495 262.780273 215.888931 261.184906 C 215.400009 259.911591 215 252.235107 215 244.126038 C 215 233.30481 215.36026 228.889587 216.354111 227.530396 C 217.616089 225.804535 218.245483 225.764679 225.604111 226.944733 C 230.192734 227.680542 236.850876 229.725098 241.5 231.825958 C 245.899994 233.81427 252.425003 237.32019 256 239.616913 C 259.575012 241.913635 265.362701 246.651886 268.861572 250.146393 C 272.360443 253.640869 277.185669 259.239929 279.58429 262.588745 C 281.98291 265.937561 285.534515 272.023682 287.476776 276.113495 C 289.419006 280.203278 292.180969 288.713348 293.614471 295.024719 C 295.82251 304.746124 296.138092 308.028381 295.67923 316.5 C 295.368469 322.237732 294.108459 330.336029 292.723022 335.5 C 291.39502 340.450012 288.422546 348.100006 286.117584 352.5 C 283.812592 356.899994 280.629181 362.314636 279.043335 364.532501 C 277.457458 366.750366 273.761475 371.049377 270.829987 374.085846 C 267.898499 377.122314 262.993958 381.449219 259.931 383.701172 C 256.868042 385.953156 250.69519 389.639313 246.213562 391.892639 C 241.731918 394.145935 233.719864 397.118561 228.408981 398.498444 C 223.098099 399.878326 215.095947 401.219147 210.626419 401.478027 Z"/>
    <path id="path6" fill="#999933" fill-rule="evenodd" stroke="none" d="M 209.252151 331.518616 C 207.738464 331.776855 204.873276 331.389709 202.885071 330.658325 C 200.896866 329.926941 197.860428 328.324768 196.137466 327.0979 C 194.41449 325.871033 192.721649 323.739136 192.37561 322.360413 C 192.029556 320.981628 192.140991 319.486023 192.623215 319.036804 C 193.105453 318.587585 195.399994 317.267792 197.722198 316.103882 C 200.044403 314.940002 203.510345 312.612793 205.424271 310.932343 C 207.338211 309.251892 210.299957 305.608521 212.005936 302.835938 C 214.551239 298.69928 215.495972 297.896423 217.271957 298.36087 C 218.462296 298.67215 220.252365 299.955811 221.249878 301.213409 C 222.247406 302.471039 223.724258 304.715149 224.531784 306.200317 C 225.339294 307.685547 226 310.740967 226 312.990173 C 226 315.23938 225.147888 318.749268 224.106415 320.789856 C 223.064941 322.830444 221.377441 325.233215 220.356415 326.129395 C 219.335388 327.025574 217.038467 328.499146 215.252151 329.403992 C 213.46582 330.308838 210.765823 331.260406 209.252151 331.518616 Z"/>
</svg>
