<?xml version="1.0" encoding="UTF-8"?>
<!-- Generated by Pixelmator Pro 3.3.5 -->
<svg width="512" height="512" viewBox="0 0 512 512" xmlns="http://www.w3.org/2000/svg">
    <path id="Shape" fill="#999933" fill-rule="evenodd" stroke="none" d="M 158.140106 443.807739 C 139.044922 444.101227 138.020004 444.02002 136.057755 442.057739 C 134.029358 440.029358 134 439.194641 134 383.565094 C 134 350.868805 134.394363 326.092957 134.937531 324.664307 C 135.529953 323.10614 139.303085 320.077393 145.187531 316.436523 C 150.309387 313.267517 162.149994 306.906799 171.5 302.301636 C 183.547409 296.36792 189.373993 294.011841 191.5 294.214294 C 194.033447 294.455566 194.617493 295.044312 195.255463 298 C 195.670975 299.924988 197.379257 314.766144 199.051651 330.980347 C 200.724045 347.194519 201.959076 361.8078 201.796173 363.454346 C 201.54277 366.015625 200.850113 366.670105 197 367.985809 C 193.555923 369.162781 192.109222 370.342163 190.834641 373.011841 C 189.823257 375.130249 187.467133 389.026611 184.834641 408.39978 C 182.450592 425.944702 179.974564 441.019684 179.332352 441.89978 C 178.343033 443.255615 175.106552 443.546997 158.140106 443.807739 Z"/>
    <path id="path1" fill="#999933" fill-rule="evenodd" stroke="none" d="M 281.25 367.986328 C 234.612595 367.999268 231.901627 367.901611 230.145645 366.14563 C 228.753876 364.753876 228.000275 361.573364 227.124634 353.39563 C 226.482971 347.403046 224.863297 331.700012 223.52536 318.5 C 222.187408 305.299988 220.889343 292.809906 220.640747 290.744232 C 220.332886 288.186035 220.716675 286.34613 221.844376 284.973999 C 223.10936 283.434845 227.039261 282.262268 238.5 280.004456 C 246.75 278.37915 260.35379 276.504791 268.730652 275.839233 C 280.676697 274.890076 287.05545 274.891968 298.308624 275.848114 C 306.199615 276.518585 319.096252 278.36853 326.967804 279.959167 C 334.931305 281.568329 341.954559 283.526001 342.801086 284.372498 C 344.162872 285.734314 343.936127 289.753601 340.638977 322.69693 C 338.613068 342.938599 336.513 361.135681 335.972137 363.134827 C 335.307648 365.59082 334.260834 366.964783 332.744354 367.371185 C 331.509949 367.702026 308.337494 367.978821 281.25 367.986328 Z"/>
    <path id="path2" fill="#999933" fill-rule="evenodd" stroke="none" d="M 417.610779 444 C 391.082153 444 388.018585 443.829651 386.1362 442.25 C 384.299652 440.708801 383.514313 436.576782 379.553925 407.617981 C 376.552826 385.673645 374.52713 373.927246 373.464081 372.30481 C 372.587952 370.967712 369.940094 369.045959 367.579926 368.034271 C 365.219788 367.022583 363.04538 365.560638 362.747925 364.785492 C 362.45047 364.010345 363.708252 348.778992 365.542999 330.938049 C 367.377777 313.097107 369.261169 297.375 369.728394 296 C 370.337311 294.207947 371.27475 293.519165 373.03891 293.567627 C 374.392517 293.604828 379.549988 295.329926 384.5 297.401184 C 389.450012 299.472473 397.774994 303.452698 403 306.246216 C 408.225006 309.039703 416.549988 314.056274 421.5 317.394104 C 426.450012 320.731934 433.034241 325.85144 436.131622 328.770752 C 439.229034 331.690063 443.188171 336.752014 444.929718 340.019501 C 446.671265 343.286987 448.74173 349.006805 449.530731 352.730194 C 450.638977 357.960144 450.969208 368.655121 450.982635 399.75 C 450.99942 438.678802 450.934357 440.065643 449 442 C 447.090729 443.909271 445.666656 444 417.610779 444 Z"/>
    <path id="path3" fill="#999933" fill-rule="evenodd" stroke="none" d="M 107.5 278.5 L 119.5 278.5 L 119.733963 239 C 119.86264 217.274994 120.211586 198.476044 120.509399 197.224579 C 120.807213 195.973083 121.965065 194.034943 123.082405 192.917603 C 124.53495 191.465057 126.138138 190.973541 128.707626 191.193024 C 131.27359 191.412201 132.901688 192.306976 134.400665 194.321838 C 136.439087 197.061798 136.50853 198.309265 136.793884 237.315735 C 136.955521 259.410339 137.492981 277.893005 137.988251 278.388245 C 138.522217 278.922241 140.140656 278.770172 141.964615 278.014648 C 143.656342 277.313904 146.156387 275.414429 147.520248 273.793579 C 150 270.846558 150 270.846558 150.005569 236.673279 C 150.009109 215.059479 150.413162 201.029907 151.104965 198.5 C 151.706558 196.299988 152.898804 193.712494 153.754379 192.75 C 154.650269 191.742157 156.728531 191 158.654984 191 C 160.652298 191 162.795547 191.795532 163.974564 192.974579 C 165.060577 194.060577 166.211685 195.99527 166.532593 197.273865 C 166.8535 198.55246 166.977448 216.001404 166.808029 236.049286 C 166.5 272.5 166.5 272.5 163.613113 277.986877 C 162.02533 281.004669 159.249908 284.950073 157.445511 286.754486 C 155.641129 288.558899 151.623032 291.198853 148.516434 292.621094 C 144.370026 294.519409 140.425964 295.378906 133.684036 295.853516 L 124.5 296.5 L 124 383.830811 C 123.513397 468.821289 123.447983 471.199646 121.558868 472.580811 C 120.345558 473.467896 117.136459 474 113 474 C 108.863541 474 105.654442 473.467896 104.441132 472.580811 C 102.552017 471.199646 102.486603 468.821289 102 383.830811 C 101.5 296.5 101.5 296.5 98 296.248138 C 96.074997 296.109619 91.811066 295.504517 88.524597 294.903473 C 85.238129 294.302429 80.738129 292.904755 78.524597 291.797546 C 76.311066 290.690308 72.997322 288.370422 71.160706 286.642212 C 69.324097 284.914001 66.792564 281.475006 65.535088 279 C 64.277603 276.524994 62.742786 272.115356 62.124378 269.200775 C 61.428577 265.921448 61 251.961121 61 232.575775 C 61 215.346588 61.275017 199.874908 61.611149 198.194244 C 61.947281 196.513611 63.089809 194.207336 64.150101 193.069244 C 65.34021 191.79184 67.329193 191 69.347824 191 C 71.146278 191 73.35849 191.5625 74.26384 192.25 C 75.169197 192.9375 76.380211 194.766785 76.954971 196.315094 C 77.608116 198.074554 78 212.249329 78 234.114746 C 78 263.196838 78.252113 269.586853 79.494286 271.988953 C 80.316147 273.578247 81.991272 275.580902 83.216797 276.439301 C 84.442314 277.297668 86.469887 278 87.722504 278 C 90 278 90 278 90 238.565094 C 90 213.604919 90.383583 198.096893 91.045029 196.315094 C 91.619789 194.766785 92.830803 192.9375 93.73616 192.25 C 94.64151 191.5625 96.871254 191 98.691132 191 C 100.635025 191 102.802032 191.802032 103.944221 192.944214 C 105.013542 194.01355 106.150009 196.376038 106.469696 198.194214 C 106.789383 200.01239 107.151985 218.825012 107.275475 240 L 107.5 278.5 Z"/>
    <path id="path4" fill="#999933" fill-rule="evenodd" stroke="none" d="M 216.654984 391 C 214.721344 391 212.661591 390.261627 211.77327 389.25 C 210.928085 388.287506 209.93515 386.509979 209.566757 385.299988 C 209.173019 384.006744 209.543945 381.848816 210.46666 380.064453 C 211.330002 378.394958 213.152191 376.748901 214.515945 376.406647 C 215.879715 376.064362 217.778244 376.084656 218.734894 376.451782 C 219.691544 376.818848 221.267548 377.837158 222.237122 378.7146 C 223.251648 379.632751 224 381.72995 224 383.654968 C 224 385.666656 223.202789 387.797211 222 389 C 220.797211 390.202789 218.666672 391 216.654984 391 Z"/>
    <path id="path5" fill="#999933" fill-rule="evenodd" stroke="none" d="M 348.345001 391 C 346.333344 391 344.202789 390.202789 343 389 C 341.797211 387.797211 341 385.666656 341 383.654968 C 341 381.72995 341.748352 379.632751 342.762878 378.7146 C 343.732452 377.837158 345.308472 376.818848 346.265106 376.451782 C 347.221771 376.084656 349.12027 376.064362 350.484039 376.406647 C 351.847809 376.748901 353.669983 378.394958 354.533325 380.064453 C 355.456055 381.848816 355.826965 384.006744 355.433258 385.299988 C 355.06485 386.509979 354.07193 388.287506 353.226746 389.25 C 352.338409 390.261627 350.278656 391 348.345001 391 Z"/>
    <path id="path6" fill="#999933" fill-rule="evenodd" stroke="none" d="M 140 155.681793 C 135.393265 156.137146 134.215775 155.910095 132.75 154.283966 C 131.725311 153.147186 131 150.753693 131 148.509125 C 131 146.254974 132.000031 142.969299 133.427399 140.533691 C 134.792633 138.204071 138.402573 134.610504 141.677399 132.321106 C 144.879822 130.082306 151.324997 126.328827 156 123.980042 C 160.675003 121.631256 169.675003 117.735535 176 115.322876 C 182.324997 112.910217 190.649994 109.995697 194.5 108.846191 C 198.350006 107.696655 202.23938 106.023529 203.143066 105.128082 C 204.048706 104.230682 205.76149 98.857635 206.959366 93.156281 C 208.154663 87.467224 210.711517 78.27652 212.641266 72.732452 C 214.57103 67.188416 217.742477 59.468079 219.688934 55.576202 C 221.635406 51.684296 224.851303 46.353088 226.835403 43.729126 C 229.071136 40.772308 232.334503 38.015564 235.417755 36.479126 C 239.201309 34.593689 241.962143 34.002167 246.94635 34.009064 C 250.550858 34.014038 258.441803 35.139038 264.48175 36.509064 C 270.930817 37.971863 278.574188 39 283 39 C 287.425812 39 295.069183 37.971863 301.51825 36.509064 C 307.558197 35.139038 315.424988 34.023926 319 34.031036 C 323.157898 34.039276 326.96283 34.708344 329.559814 35.887909 C 331.792694 36.9021 334.997681 39.479736 336.682007 41.615967 C 338.366302 43.752167 341.322601 48.649994 343.251556 52.5 C 345.180511 56.350006 348.114838 63.774994 349.772278 69 C 351.429688 74.225006 353.837708 84.309082 355.123413 91.409088 C 356.409119 98.509094 358.001953 104.8591 358.663055 105.520203 C 359.324158 106.181305 363.607941 107.894379 368.182526 109.326996 C 372.757141 110.759613 381.042725 113.70755 386.594971 115.877991 C 392.147186 118.048401 400.92218 121.942261 406.094971 124.530975 C 411.267731 127.11972 417.613678 130.780121 420.197052 132.665192 C 422.780457 134.550262 425.862457 137.659424 427.04599 139.574402 C 428.229523 141.48938 429.43631 144.834045 429.727753 147.006989 C 430.100586 149.786591 429.742889 151.743439 428.521179 153.608032 C 426.894409 156.09079 426.428131 156.222961 421.142334 155.699951 C 418.039063 155.392883 411 154.209839 405.5 153.071014 C 400 151.932159 389.674927 150.11377 382.55542 149.030121 C 375.435913 147.946503 360.810913 146.258911 350.05542 145.279938 C 334.400299 143.855011 320.427826 143.5 280 143.5 C 239.572174 143.5 225.599686 143.855011 209.94458 145.279938 C 199.189087 146.258911 184.711227 147.931488 177.77153 148.996765 C 170.831848 150.062042 160.731796 151.879669 155.326965 153.035889 C 149.922134 154.192139 143.024994 155.382782 140 155.681793 Z"/>
    <path id="path7" fill="#999933" fill-rule="evenodd" stroke="none" d="M 281.119019 254.888153 C 278.028564 254.82663 273.25 254.366241 270.5 253.865051 C 267.75 253.363831 262.365845 252.021851 258.535248 250.882874 C 254.70462 249.743866 248.85463 247.442688 245.535248 245.769135 C 242.215866 244.095551 237.024994 241.034973 234 238.967804 C 230.975006 236.900665 226.378265 233.159912 223.785019 230.65506 C 221.191788 228.150177 217.141785 223.473297 214.785019 220.261932 C 212.428253 217.050568 208.56369 210.333069 206.197067 205.334137 C 203.573837 199.793152 201.139221 192.586517 199.960205 186.87262 C 198.896545 181.717682 198.020355 174.6875 198.013138 171.25 C 198.003113 166.481964 198.440247 164.559753 199.856659 163.143341 C 201.126266 161.873718 203.892944 161.076965 208.606659 160.623474 C 212.397995 160.258728 221.259888 159.527832 228.299759 158.999298 C 235.339615 158.470734 252.214615 157.746185 265.799744 157.38916 C 280.348236 157.006805 299.747467 157.207672 313 157.87793 C 325.375 158.503784 340.450012 159.466858 346.5 160.018066 C 352.549988 160.569305 359.207825 161.489868 361.295166 162.063812 C 363.983551 162.803009 365.393677 163.893677 366.130524 165.80368 C 366.854401 167.679993 366.842804 171.088928 366.092407 177.012909 C 365.499329 181.695007 364.324249 188.220032 363.481171 191.512909 C 362.638062 194.805817 360.14212 201.292755 357.934631 205.928375 C 355.727112 210.563995 351.970032 217.088989 349.58551 220.428375 C 347.200989 223.767761 342.975433 228.625916 340.195374 231.224243 C 337.415314 233.822601 331.715424 238.18457 327.528931 240.917542 C 323.342438 243.650513 316.373169 247.253296 312.041687 248.923676 C 307.710175 250.594086 300.244904 252.644592 295.452118 253.480377 C 290.659363 254.316162 284.209473 254.949677 281.119019 254.888153 Z"/>
</svg>
