<?xml version="1.0" encoding="UTF-8"?>
<svg width="30px" height="36px" viewBox="0 0 30 36" version="1.1" xmlns="http://www.w3.org/2000/svg" xmlns:xlink="http://www.w3.org/1999/xlink">
    <title>icon-doc-xls-dot</title>
    <g id="icon-doc-xls-dot" stroke="none" stroke-width="1" fill="none" fill-rule="evenodd">
        <path d="M30,31.8 C30,34.1195959 28.1195959,36 25.8,36 L4.2,36 C1.88040405,36 0,34.1195959 0,31.8 L0,4.2 C0,1.88040405 1.88040405,0 4.2,0 L18,0 L18,7.58786797 C18,9.90746391 20.0925361,12 22.412132,12 L22.412132,12 L30,12 L30,31.8 Z M6.71379842,2 C3.95237467,2 1.71379842,4.23857625 1.71379842,7 C1.71379842,9.76142375 3.95237467,12 6.71379842,12 C9.47522217,12 11.7137984,9.76142375 11.7137984,7 C11.7137984,4.23857625 9.47522217,2 6.71379842,2 Z" id="Combined-Shape-2" fill="#25265E" opacity="0.297712054"></path>
        <circle id="Oval-Copy" fill="#25265E" opacity="0.297712054" cx="6.71379842" cy="7" r="5"></circle>
        <path d="M17.9809134,0 L25.5808502,0 C27.9041356,0 30,2.09586437 30,4.41914976 L30,12.0190866 L17.9809134,0 Z" id="Path-Copy" fill="#25265E" opacity="0.498302641" transform="translate(23.990457, 6.009543) scale(-1, -1) translate(-23.990457, -6.009543) "></path>
        <g id="status/dots/ok" transform="translate(2.528738, 2.814940)" fill="#25265E" fill-opacity="0.3046875" stroke="#25265E">
            <circle id="Oval-Copy-7" cx="2.09253023" cy="2.09253023" r="1.59253023"></circle>
        </g>
        <path d="M18.2580522,16.828132 L18.2571194,16.837132 L18.261565,16.8377751 L18.261565,28.8227078 L17.2628206,28.8227078 L17.2621194,28.821132 L14.2591194,28.821132 L14.2596995,28.8227078 L13.2609551,28.8227078 L13.2601194,28.821132 L11.2841194,28.821132 L11.28413,28.8227078 L10.2853856,28.8227078 L10.2851194,28.821132 L7.27511945,28.821132 L7.27537667,28.8227078 L6.27663227,28.8227078 L6.27611945,28.821132 L6.2745659,28.821468 L6.2745659,27.8227236 L6.27611945,27.822132 L6.27611945,24.804132 L6.27387711,24.8050691 L6.27387711,23.8063247 L6.27611945,23.806132 L6.27611945,20.788132 L6.27311945,20.7886701 L6.27311945,19.7899258 L6.27611945,19.789132 L6.27611945,17.826132 L6.27311945,17.8268764 L6.27311945,16.828132 L18.2580522,16.828132 Z M10.2851194,24.804132 L7.27511945,24.804132 L7.27511945,27.822132 L10.2851194,27.822132 L10.2851194,24.804132 Z M13.2601194,24.804132 L11.2841194,24.804132 L11.2841194,27.822132 L13.2601194,27.822132 L13.2601194,24.804132 Z M17.2621194,24.804132 L14.2591194,24.804132 L14.2591194,27.822132 L17.2621194,27.822132 L17.2621194,24.804132 Z M10.2851194,20.788132 L7.27511945,20.788132 L7.27511945,23.806132 L10.2851194,23.806132 L10.2851194,20.788132 Z M13.2601194,20.788132 L11.2841194,20.788132 L11.2841194,23.806132 L13.2601194,23.806132 L13.2601194,20.788132 Z M17.2621194,20.788132 L14.2591194,20.788132 L14.2591194,23.806132 L17.2621194,23.806132 L17.2621194,20.788132 Z M17.2621194,17.826132 L7.27511945,17.826132 L7.27511945,19.789132 L17.2621194,19.789132 L17.2621194,17.826132 Z" id="Combined-Shape" fill="#25265E" fill-rule="nonzero"></path>
    </g>
</svg>