<?xml version="1.0" encoding="UTF-8"?>
<svg width="24px" height="24px" viewBox="0 0 24 24" version="1.1" xmlns="http://www.w3.org/2000/svg" xmlns:xlink="http://www.w3.org/1999/xlink">
    <title>icon-search</title>
    <g id="icon-search" stroke="none" stroke-width="1" fill="none" fill-rule="evenodd">
        <path d="M10.3897283,4.26695139 C13.7712445,4.26695139 16.5125051,7.00821197 16.5125051,10.3897283 C16.5125051,11.6212443 16.1489188,12.7678402 15.5232338,13.7280284 L19.3610407,17.5648729 C19.8570512,18.0608835 19.8570512,18.8650302 19.3610407,19.3610407 C18.8980975,19.8239839 18.1667335,19.8548467 17.6680009,19.4536293 L17.5648729,19.3610407 L13.7280284,15.5232338 C12.7678402,16.1489188 11.6212443,16.5125051 10.3897283,16.5125051 C7.00821197,16.5125051 4.26695139,13.7712445 4.26695139,10.3897283 C4.26695139,7.00821197 7.00821197,4.26695139 10.3897283,4.26695139 Z M14.9063986,14.523557 C14.7844616,14.6567139 14.6567139,14.7844616 14.523557,14.9063986 L18.2719797,18.6539339 C18.3774659,18.7594202 18.5484477,18.7594202 18.6539339,18.6539339 C18.7418391,18.5660287 18.75649,18.4326405 18.6978865,18.3295743 L18.6539339,18.2719797 Z M10.3897283,5.26695139 C7.56049672,5.26695139 5.26695139,7.56049672 5.26695139,10.3897283 C5.26695139,13.2189598 7.56049672,15.5125051 10.3897283,15.5125051 C13.2189598,15.5125051 15.5125051,13.2189598 15.5125051,10.3897283 C15.5125051,7.56049672 13.2189598,5.26695139 10.3897283,5.26695139 Z M10.5217633,6.01855445 L10.77216,6.0200288 L10.7393518,7.01949047 C9.75754097,6.98726167 8.80813439,7.35181553 8.1034871,8.05640792 C7.4530791,8.70676525 7.09240343,9.56578235 7.06611312,10.4663376 L7.06653275,10.692245 L6.06707108,10.7250532 C6.02587815,9.47016119 6.49365866,8.25195248 7.39640786,7.3492736 C8.23898432,6.50676279 9.35629956,6.04313671 10.5217633,6.01855445 Z" id="Combined-Shape" fill="#25265E"></path>
    </g>
</svg>