<?xml version="1.0" encoding="UTF-8"?>
<!-- Generated by Pixelmator Pro 3.3.10 -->
<svg width="512" height="512" viewBox="0 0 512 512" xmlns="http://www.w3.org/2000/svg">
    <g id="Group">
        <path id="Shape" fill="#999933" fill-rule="evenodd" stroke="none" d="M 26.026407 185.091949 C 23.985897 185.394165 19.604891 185.425903 16.290831 185.162476 C 10.265269 184.683533 10.265269 184.683533 11.115481 177.168701 C 11.583097 173.035522 13.129479 166.529877 14.551889 162.711731 C 15.974299 158.893585 18.494308 153.611481 20.151907 150.973755 C 21.809504 148.335999 25.636051 143.776947 28.655344 140.842529 C 31.674629 137.908112 37.048553 134.091644 40.597389 132.361511 C 44.146236 130.631378 50.110588 128.624237 53.851521 127.901245 C 57.592453 127.178284 63.157475 126.929962 66.218239 127.349457 C 69.278999 127.768951 73.843575 128.71109 76.361732 129.443085 C 80.832687 130.742737 81.101395 130.626678 87.805069 124.499878 C 91.785599 120.861908 97.655922 117.041351 101.77668 115.406799 C 107.177963 113.264343 111.405983 112.581055 119.395119 112.559509 C 128.623428 112.534637 130.90686 113.002258 138.097778 116.389557 C 142.602783 118.511688 148.446075 122.181702 151.082825 124.545166 C 155.398926 128.413849 156.772003 128.904449 164.853836 129.465759 C 171.553146 129.93103 175.842865 131.079773 181.76123 133.993378 C 186.908905 136.527557 191.915878 140.331116 196.030121 144.832764 C 199.516235 148.647125 203.390533 153.781342 204.639694 156.242157 C 205.888855 158.702942 207.754715 163.220581 208.786041 166.281342 C 209.817368 169.342133 211.059296 175.046265 211.545837 178.957245 C 212.430481 186.068085 212.430481 186.068085 201.776276 186.068085 C 191.12207 186.068085 191.12207 186.068085 191.121094 180.812256 C 191.120514 177.595917 189.744797 172.649231 187.575882 168.064606 C 185.467697 163.608368 181.939575 158.782135 178.868393 156.15329 C 176.02861 153.722534 171.268814 151.051636 168.291092 150.217896 C 164.820755 149.246246 160.163071 149.017059 155.317444 149.579437 C 147.757858 150.456848 147.757858 150.456848 142.056763 144.172272 C 138.921158 140.71579 134.03334 136.763519 131.194962 135.389465 C 127.85659 133.773407 123.530296 132.891205 118.943253 132.891205 C 114.882553 132.891205 110.160934 133.743103 107.894485 134.884674 C 105.71772 135.981049 102.091377 138.624451 99.83596 140.75885 C 97.580536 142.89325 94.653976 146.382751 93.332489 148.513275 C 92.011009 150.643799 89.277107 153.071503 87.257156 153.908203 C 83.958046 155.27475 82.832291 155.037994 76.188705 151.580383 C 70.542259 148.641724 67.191124 147.731262 62.021053 147.731262 C 58.296535 147.731262 53.741619 148.304443 51.89901 149.005035 C 50.0564 149.705566 46.51363 151.890656 44.026184 153.860748 C 41.538734 155.830841 37.992352 160.21933 36.145317 163.612915 C 34.29829 167.006531 32.155025 173.029846 31.382509 176.998108 C 30.609987 180.966339 29.923586 184.287201 29.857172 184.377777 C 29.79076 184.468384 28.066917 184.789764 26.026407 185.091949 Z"/>
        <path id="path1" fill="#999933" fill-rule="evenodd" stroke="none" d="M 210.908813 239.244965 L 210.908813 294.895203 L 220.802185 294.895203 L 230.695572 294.895203 L 230.695572 216.038086 C 230.695572 141.948517 230.832687 136.920441 232.963806 132.871918 C 234.211334 130.501923 237.821869 126.80072 240.987213 124.647034 C 244.152542 122.493317 249.392487 120.104065 252.631531 119.337646 C 255.87056 118.571167 270.485474 117.600189 285.109131 117.179871 C 301.481354 116.70929 317.067078 116.945038 325.672211 117.793365 C 336.066467 118.818024 340.962769 119.898865 344.782867 122.011963 C 347.607697 123.574432 351.670258 127.15213 353.810852 129.962372 C 355.951447 132.772583 359.627411 139.728882 361.979645 145.420776 C 364.331909 151.11264 369.497528 163.699799 373.458862 173.392212 L 380.661255 191.014771 L 409.497955 191.014771 C 425.674683 191.014771 441.099365 191.607697 444.63205 192.365326 C 448.161957 193.122345 453.210236 195.455505 456.119293 197.674316 C 459.223938 200.042297 462.74295 204.436371 464.877808 208.610657 C 466.907013 212.578552 468.779694 218.636017 469.218994 222.653107 C 469.991516 229.717621 469.991516 229.717621 476.174896 231.501495 C 479.575745 232.482635 484.227448 234.700836 486.512054 236.430786 C 488.7966 238.160767 491.706055 241.866821 492.977386 244.666443 C 494.968475 249.050873 495.292725 252.976166 495.316132 272.974884 C 495.343292 296.193085 495.343292 296.193085 498.359802 297.339966 C 500.01886 297.970734 501.966583 299.589874 502.688141 300.938049 C 503.409668 302.286255 504 309.547424 504 317.073975 C 504 329.109802 503.701965 331.056702 501.526642 333.232025 C 499.405609 335.353088 497.404419 335.705383 487.476685 335.705383 C 475.900055 335.705383 475.900055 335.705383 475.233246 342.816223 C 474.866486 346.727203 473.360931 353.118927 471.887634 357.020081 C 470.414307 360.921204 466.989044 367.437317 464.275848 371.500305 C 461.562714 375.563293 456.452026 381.213135 452.918793 384.055542 C 449.38559 386.897949 443.63089 390.552368 440.130585 392.176453 C 436.63031 393.800568 429.49234 396.056885 424.268494 397.190521 C 416.167389 398.948517 413.283936 399.037231 404.662537 397.79364 C 397.692444 396.788269 391.675232 394.921448 385.27951 391.780121 C 379.127899 388.758667 373.474457 384.692627 368.491577 379.705872 C 363.903015 375.113831 359.447235 369.058258 357.044373 364.148804 C 354.880524 359.727722 352.316193 352.298553 351.345856 347.639587 C 350.375519 342.980591 349.35498 338.942078 349.078003 338.6651 C 348.801025 338.388153 310.233643 338.304504 263.372681 338.479309 L 178.170914 338.797058 L 177.229645 345.598755 C 176.709061 349.360626 174.114304 356.82196 171.423782 362.293823 C 168.74826 367.735168 164.528748 374.553406 162.047104 377.445465 C 159.565475 380.337524 154.414169 384.938568 150.599792 387.669983 C 146.785431 390.401398 140.012558 393.7659 135.549026 395.146637 C 131.08548 396.527374 123.25972 397.900879 118.158447 398.198853 C 112.503372 398.529175 105.774483 398.034943 100.917747 396.932556 C 96.536644 395.93811 89.880035 393.62146 86.12529 391.784424 C 82.242416 389.884705 75.807907 384.939056 71.204071 380.315796 C 65.997665 375.087372 61.658623 369.224274 59.042698 363.882813 C 56.805855 359.31543 54.372025 352.359131 53.634182 348.424438 C 52.896343 344.489685 52.104355 340.574768 51.874226 339.724548 C 51.565983 338.585754 47.099758 338.178711 34.913589 338.178711 C 19.670879 338.178711 18.18631 337.974365 16.015535 335.57724 C 13.808501 333.140106 13.634731 330.19873 13.264542 289.010498 C 13.04721 264.829529 13.196939 243.740112 13.597274 242.145081 C 14.32515 239.244965 14.32515 239.244965 112.616989 239.244965 L 210.908813 239.244965 Z M 115.066765 365.331177 C 119.61348 365.331177 124.412964 364.456177 127.460922 363.071594 C 130.196716 361.828796 134.247589 358.999451 136.462906 356.784119 C 138.678223 354.568848 141.370209 351.055603 142.445114 348.97699 C 143.519989 346.898376 144.693726 341.952454 145.053375 337.986115 C 145.526657 332.766663 145.099335 329.182617 143.506439 325.011658 C 142.295959 321.842041 139.456039 317.201538 137.195541 314.699432 C 134.935028 312.197327 130.718826 309.082916 127.826225 307.778503 C 124.502296 306.279663 119.806938 305.406921 115.066765 305.406921 C 110.403694 305.406921 105.634315 306.278259 102.458382 307.710388 C 99.648865 308.977295 95.663734 311.759827 93.602539 313.893738 C 91.541359 316.02771 88.722664 320.277893 87.338776 323.338654 C 85.787903 326.768768 84.822632 331.513 84.822632 335.705383 C 84.822632 339.653259 85.770699 344.594055 87.082222 347.481201 C 88.324997 350.21698 91.222061 354.335571 93.520134 356.633667 C 95.818222 358.931732 99.936821 361.828796 102.672615 363.071594 C 105.720573 364.456177 110.52005 365.331177 115.066765 365.331177 Z M 412.835175 365.358337 C 416.768005 365.37326 422.054779 364.522522 424.583557 363.467804 C 427.112366 362.413086 431.038757 359.769714 433.308899 357.593628 C 435.579102 355.417542 438.531433 351.512146 439.869751 348.915009 C 441.208008 346.317871 442.610504 341.587585 442.986389 338.40332 C 443.362244 335.218994 443.054901 330.33432 442.303406 327.548431 C 441.551941 324.762512 439.289368 320.208618 437.275513 317.428589 C 435.261688 314.64856 430.947144 310.808899 427.687683 308.895996 C 422.83252 306.046661 420.302826 305.417023 413.691986 305.412476 C 408.466553 305.408875 403.819183 306.21875 400.505371 307.710388 C 397.690796 308.977295 393.664673 311.791931 391.558411 313.965057 C 389.452118 316.138184 386.621185 320.088684 385.267487 322.743896 C 383.600372 326.013824 382.814941 329.981323 382.833344 335.039337 C 382.850494 339.753357 383.75058 344.468292 385.274323 347.825684 C 386.601929 350.750916 389.343964 354.80011 391.367737 356.823914 C 393.39151 358.847717 397.440735 361.589722 400.365997 362.917358 C 403.637604 364.402161 408.436646 365.341614 412.835175 365.358337 Z M 301.10553 202.144836 C 340.422058 202.144836 340.422058 202.144836 343.806 198.760895 C 346.561859 196.005035 347.079803 194.570435 346.596405 191.031677 C 346.269958 188.641785 343.940735 179.173645 341.420319 169.991364 C 338.899963 160.809082 335.883453 151.62677 334.71701 149.586273 C 333.550537 147.545776 331.033569 145.121368 329.123718 144.1987 C 326.854065 143.102234 318.668579 142.290497 305.493042 141.855286 C 294.406006 141.489075 280.257904 141.756256 274.052856 142.449036 C 266.343994 143.309692 261.999939 144.406342 260.336639 145.911621 C 258.067871 147.964844 257.902344 149.819305 257.902344 173.186371 C 257.902344 194.329987 258.206818 198.562622 259.845703 200.201477 C 261.530853 201.886658 267.012146 202.144836 301.10553 202.144836 Z"/>
        <path id="path2" fill="#999933" fill-rule="evenodd" stroke="none" d="M 210.908813 202.144836 L 210.908813 221.93158 L 112.112083 221.93158 C 17.425543 221.93158 13.196477 221.835297 10.457684 219.617584 C 8.389236 217.942627 7.599998 216.019897 7.599998 212.655609 C 7.599998 209.116364 8.412932 207.308411 11.007974 205.076233 C 14.415949 202.144836 14.415949 202.144836 112.662392 202.144836 L 210.908813 202.144836 Z"/>
    </g>
</svg>
