<?xml version="1.0" encoding="UTF-8"?>
<svg width="30px" height="36px" viewBox="0 0 30 36" version="1.1" xmlns="http://www.w3.org/2000/svg" xmlns:xlink="http://www.w3.org/1999/xlink">
    <title>icon-doc-word</title>
    <g id="icon-doc-word" stroke="none" stroke-width="1" fill="none" fill-rule="evenodd">
        <path d="M30,31.8 C30,34.1195959 28.1195959,36 25.8,36 L4.2,36 C1.88040405,36 0,34.1195959 0,31.8 L0,4.2 C0,1.88040405 1.88040405,0 4.2,0 L18,0 L18,7.58786797 C18,9.90746391 20.0925361,12 22.412132,12 L22.412132,12 L30,12 L30,31.8 Z" id="Combined-Shape-2" fill="#25265E" opacity="0.297712054"></path>
        <path d="M17.9809134,1.77635684e-15 L25.5808502,1.77635684e-15 C27.9041356,1.77635684e-15 30,2.09586437 30,4.41914976 L30,12.0190866 L17.9809134,1.77635684e-15 Z" id="Path-Copy" fill="#25265E" opacity="0.498302641" transform="translate(23.990457, 6.009543) scale(-1, -1) translate(-23.990457, -6.009543) "></path>
        <path d="M12.5462389,26.5754199 L12.5462389,28.0754199 L6.54623889,28.0754199 L6.54623889,26.5754199 L12.5462389,26.5754199 Z M18.5462389,23.5754199 L18.5462389,25.0754199 L6.54623889,25.0754199 L6.54623889,23.5754199 L18.5462389,23.5754199 Z M18.5462389,20.5754199 L18.5462389,22.0754199 L6.54623889,22.0754199 L6.54623889,20.5754199 L18.5462389,20.5754199 Z M18.5462389,17.5754199 L18.5462389,19.0754199 L6.54623889,19.0754199 L6.54623889,17.5754199 L18.5462389,17.5754199 Z" id="Combined-Shape" fill="#25265E"></path>
    </g>
</svg>