<?xml version="1.0" encoding="UTF-8"?>
<svg width="32px" height="32px" viewBox="0 0 32 32" version="1.1" xmlns="http://www.w3.org/2000/svg" xmlns:xlink="http://www.w3.org/1999/xlink">
    <title>icon-card-home</title>
    <defs>
        <filter id="filter-1">
            <feColorMatrix in="SourceGraphic" type="matrix" values="0 0 0 0 0.145098 0 0 0 0 0.149020 0 0 0 0 0.368627 0 0 0 1.000000 0"></feColorMatrix>
        </filter>
    </defs>
    <g id="icon-card-home" stroke="none" stroke-width="1" fill="none" fill-rule="evenodd" opacity="0.504231771">
        <g id="icons-32/fa-seedling-copy-2" filter="url(#filter-1)">
            <g>
                <path d="M15.7422145,8.7475 C15.8690767,8.62614437 16.0598544,8.61097491 16.2026954,8.70199164 L16.260652,8.7475 L24.8870583,16.9914063 C24.9463067,17.0480829 24.9848578,17.1221837 24.9979083,17.2020315 L25.0028398,17.2628125 L25.0028398,25 C25.0028398,25.7907713 24.3909312,26.4386238 23.6147863,26.4958857 L23.5028395,26.5 L19.000027,26.5 C18.6154001,26.5 18.2983966,26.2104699 18.2550728,25.8374658 L18.250027,25.75 L18.250027,19.375 C18.250027,19.1909051 18.1173706,19.0377937 17.9424337,19.0060418 L17.875027,19 L14.125027,19 C13.9409321,19 13.7878207,19.1326564 13.7560688,19.3075933 L13.750027,19.375 L13.750027,25.75 C13.750027,26.1346269 13.4604969,26.4516304 13.0874929,26.4949542 L13.000027,26.5 L8.49533951,26.5 C7.70456816,26.5 7.05671567,25.8880917 6.99945381,25.1119468 L6.99533951,25 L6.99674576,17.2628125 C6.99665281,17.180821 7.02340983,17.1016572 7.07203535,17.0369983 L7.11252701,16.9914063 L15.7422145,8.7475 Z M16.000027,5.5 C16.3629437,5.5 16.7017863,5.6162963 16.9510404,5.82255144 L17.0401833,5.9040625 L19.7551833,8.5 L19.7551833,7 C19.7551833,6.61537312 20.0447134,6.29836963 20.4177174,6.2550458 L20.5051833,6.25 L22.7551833,6.25 C23.1398101,6.25 23.4568136,6.53953014 23.5001375,6.91253416 L23.5051833,7 L23.5051833,12.0901563 L27.0114333,15.4445313 C27.3109645,15.7309375 27.3348708,16.223125 27.0470583,16.52125 C26.7821578,16.7958694 26.3582503,16.8248538 26.0599465,16.6026596 L25.988152,16.541875 L16.260652,7.2475 C16.1337898,7.12614437 15.9430122,7.11097491 15.8001711,7.20199164 L15.7422145,7.2475 L6.01565201,16.541875 C5.86738693,16.6843623 5.6671211,16.7597236 5.46170222,16.75033 C5.25628335,16.7409364 5.06373137,16.6476118 4.92908951,16.4921875 C4.68418566,16.2109375 4.69650075,15.7950869 4.92916632,15.5115634 L4.99190201,15.4435938 L14.9622145,5.90453125 C15.216277,5.6471875 15.593152,5.5 16.000027,5.5 Z" id="Shape" fill="#000000" fill-rule="nonzero"></path>
            </g>
        </g>
    </g>
</svg>