<?xml version="1.0" encoding="UTF-8"?>
<svg width="30px" height="36px" viewBox="0 0 30 36" version="1.1" xmlns="http://www.w3.org/2000/svg" xmlns:xlink="http://www.w3.org/1999/xlink">
    <title>icon-doc-pdf-check</title>
    <g id="icon-doc-pdf-check" stroke="none" stroke-width="1" fill="none" fill-rule="evenodd">
        <path d="M30,31.8 C30,34.1195959 28.1195959,36 25.8,36 L4.2,36 C1.88040405,36 0,34.1195959 0,31.8 L0,4.2 C0,1.88040405 1.88040405,0 4.2,0 L18,0 L18,7.58786797 C18,9.90746391 20.0925361,12 22.412132,12 L22.412132,12 L30,12 L30,31.8 Z" id="Combined-Shape-2" fill="#25265E" opacity="0.297712054"></path>
        <path d="M17.9809134,1.77635684e-15 L25.5808502,1.77635684e-15 C27.9041356,1.77635684e-15 30,2.09586437 30,4.41914976 L30,12.0190866 L17.9809134,1.77635684e-15 Z" id="Path-Copy" fill="#25265E" opacity="0.498302641" transform="translate(23.990457, 6.009543) scale(-1, -1) translate(-23.990457, -6.009543) "></path>
        <polyline id="Path-4" stroke="#25265E" stroke-linecap="round" stroke-linejoin="round" points="4.71379842 7.8 5.91379842 9 8.71379842 5"></polyline>
        <path d="M11.8631194,16.3754199 C11.0766043,16.3754199 10.4297861,17.0222388 10.4297861,17.8087533 C10.4297861,18.7865002 10.9730415,20.0003371 11.5450986,21.1412533 C11.0979436,22.5410261 10.5905236,24.0410832 9.94155695,25.3068783 C8.61328752,25.8280563 7.4287357,26.215433 6.71655695,26.7894824 C6.70545183,26.8008387 6.6949844,26.8128014 6.68520278,26.8253158 C6.42495421,27.0914571 6.27311945,27.4538109 6.27311945,27.8420866 C6.27311945,28.6285996 6.91993784,29.2754199 7.70645278,29.2754199 C8.08999085,29.2754199 8.46018473,29.1322944 8.72770278,28.8588574 C8.73696117,28.8517598 8.74592692,28.8442883 8.75457778,28.8364616 C9.278813,28.2104788 9.89694903,27.0749286 10.4477028,26.0369824 C11.7170245,25.5376637 13.0473972,25.029589 14.3311403,24.7245866 C15.268298,25.4798473 16.6240611,25.9787533 17.7397861,25.9787533 C18.5263005,25.9787533 19.1731194,25.3319329 19.1731194,24.5454199 C19.1731194,23.7589069 18.5263005,23.1120866 17.7397861,23.1120866 C16.8450375,23.1120866 15.5447888,23.4314826 14.5506194,23.7660449 C13.7447841,23.0095453 13.0044186,22.0647324 12.4722861,21.0606283 C12.852489,19.8893824 13.2964528,18.7174449 13.2964528,17.8087533 C13.2964528,17.0222388 12.6496347,16.3754199 11.8631194,16.3754199 Z M11.8631194,17.2354199 C12.1848558,17.2354199 12.4364528,17.4870172 12.4364528,17.8087533 C12.4364528,18.2389582 12.2060827,19.0310297 11.9392653,19.8826074 C11.5827357,19.0541809 11.2897861,18.2593746 11.2897861,17.8087533 C11.2897861,17.4870172 11.5413833,17.2354199 11.8631194,17.2354199 Z M12.1094736,22.1401074 C12.5405718,22.8258356 13.0454735,23.4639198 13.5965569,24.0303158 C12.7465514,24.2627451 11.9164072,24.5605631 11.0971819,24.8723991 C11.4928568,23.9793464 11.8096148,23.0526463 12.1094736,22.1401074 Z M17.7397861,23.9720866 C18.061523,23.9720866 18.3131194,24.2236796 18.3131194,24.5454199 C18.3131194,24.8671603 18.061523,25.1187533 17.7397861,25.1187533 C17.0938775,25.1187533 16.1758576,24.8271846 15.4419736,24.4200033 C16.2843531,24.1818119 17.2035317,23.9720866 17.7397861,23.9720866 Z M9.18457778,26.5386491 C8.78150782,27.2581251 8.38085489,27.9296704 8.10061945,28.2676074 C8.0048907,28.3591401 7.8775472,28.4154199 7.70645278,28.4154199 C7.38471632,28.4154199 7.13311945,28.1638126 7.13311945,27.8420866 C7.13311945,27.6906836 7.19746823,27.5403054 7.28541111,27.4434408 C7.62165191,27.1832334 8.35315988,26.8714118 9.18457778,26.5386491 Z" id="acrobat-shape-copy" fill="#25265E" fill-rule="nonzero"></path>
    </g>
</svg>