<?xml version="1.0" encoding="UTF-8"?>
<svg width="12px" height="15px" viewBox="0 0 12 15" version="1.1" xmlns="http://www.w3.org/2000/svg" xmlns:xlink="http://www.w3.org/1999/xlink">
    <title>icon-doc-small</title>
    <g id="icon-doc-small" stroke="none" stroke-width="1" fill="none" fill-rule="evenodd">
        <g id="Group" fill="#25265E">
            <path d="M12,13.25 C12,14.2164983 11.2478384,15 10.32,15 L1.68,15 C0.75216162,15 -3.8191672e-14,14.2164983 -3.8191672e-14,13.25 L-3.8191672e-14,1.75 C-3.8191672e-14,0.783501688 0.75216162,0 1.68,0 L7.2,0 L7.2,3.16161165 C7.2,4.12810996 8.03701443,5 8.96485281,5 L8.96485281,5 L12,5 L12,13.25 Z" id="Combined-Shape-2" opacity="0.297712054"></path>
            <path d="M7.19953685,-8.8817842e-16 L10.2349769,-8.8817842e-16 C11.1629048,-8.8817842e-16 12,0.875092694 12,1.84514118 L12,5.01836619 L7.19953685,-8.8817842e-16 Z" id="Path-Copy" opacity="0.498302641" transform="translate(9.599768, 2.509183) scale(-1, -1) translate(-9.599768, -2.509183) "></path>
        </g>
    </g>
</svg>