<?xml version="1.0" encoding="UTF-8"?>
<svg width="24px" height="24px" viewBox="0 0 24 24" version="1.1" xmlns="http://www.w3.org/2000/svg" xmlns:xlink="http://www.w3.org/1999/xlink">
    <title>icon-flag--rwanda</title>
    <g id="icon-flag--rwanda" stroke="none" stroke-width="1" fill="none" fill-rule="evenodd">
        <g>
            <path d="M17.55,5.069984 C16.8872565,5.069984 16.34996,5.6072805 16.34996,6.270024 C16.34996,6.9327675 16.8872565,7.470064 17.55,7.470064 C18.2127435,7.470064 18.75004,6.9327675 18.75004,6.270024 C18.75004,5.6072805 18.2127435,5.069984 17.55,5.069984 Z M17.55,5.183344 C18.1501365,5.183344 18.63668,5.6698875 18.63668,6.270024 C18.63668,6.8701605 18.1501365,7.356704 17.55,7.356704 C16.9498635,7.356704 16.46332,6.8701605 16.46332,6.270024 C16.46332,5.6698875 16.9498635,5.183344 17.55,5.183344 Z" id="Stroke-10" fill="#00A1DE" fill-rule="nonzero"></path>
            <polygon id="Fill-1" fill="#00A1DE" points="0 12 24 12 24 8e-05 0 8e-05"></polygon>
            <polygon id="Fill-2" fill="#FAD201" points="0 18 24 18 24 11.99992 0 11.99992"></polygon>
            <polygon id="Fill-3" fill="#20603D" points="0 24 24 24 24 18 0 18"></polygon>
            <polygon id="Fill-4" fill="#E5BE01" points="21.419984 6.270024 18.739744 6.426664 21.288144 7.271624 18.658624 6.729224 20.901504 8.204984 18.501984 7.000504 20.286464 9.006504 18.280464 7.222024 19.485024 9.621544 18.009184 7.378664 18.551664 10.008104 17.706624 7.459704 17.549984 10.140024 17.516704 6.236664"></polygon>
            <polygon id="Fill-5" fill="#E5BE01" points="21.419984 6.270024 18.739744 6.113384 21.288144 5.268424 18.658624 5.810744 20.901504 4.334984 18.501984 5.539464 20.286464 3.533464 18.280464 5.317944 19.485024 2.918504 18.009184 5.161384 18.551664 2.531864 17.706624 5.080264 17.549984 2.400024 17.516704 6.303384"></polygon>
            <polygon id="Fill-6" fill="#E5BE01" points="13.679976 6.270024 16.360216 6.426664 13.811816 7.271624 16.441336 6.729224 14.198456 8.204984 16.597976 7.000504 14.813496 9.006504 16.819496 7.222024 15.614936 9.621544 17.090776 7.378664 16.548376 10.008104 17.393336 7.459704 17.549976 10.140024 17.583336 6.236664"></polygon>
            <polygon id="Fill-7" fill="#E5BE01" points="13.679976 6.270024 16.360216 6.113384 13.811816 5.268424 16.441336 5.810744 14.198456 4.334984 16.597976 5.539464 14.813496 3.533464 16.819496 5.317944 15.614936 2.918504 17.090776 5.161384 16.548376 2.531864 17.393336 5.080264 17.549976 2.400024 17.583336 6.303384"></polygon>
        </g>
    </g>
</svg>