<?xml version="1.0" encoding="UTF-8"?>
<!-- Generated by Pixelmator Pro 3.6.14 -->
<svg width="512" height="512" viewBox="0 0 512 512" xmlns="http://www.w3.org/2000/svg">
    <path id="Shape" fill="#d57200" fill-rule="evenodd" stroke="none" d="M 51.923656 469.836487 C 49.413635 469.787659 44.894176 469.207031 41.880386 468.546234 C 38.866596 467.885437 33.953045 466.109192 30.961405 464.598969 C 27.969765 463.088806 23.759308 460.03949 21.604828 457.822662 C 19.401758 455.555878 16.17523 450.64856 14.231491 446.608368 C 12.048655 442.071198 10.229858 436.493164 9.294681 431.467865 C 8.181706 425.487091 8.046402 422.890167 8.749768 421.010559 C 9.413015 419.238129 9.406189 417.89679 8.726322 416.404633 C 8.131227 415.098572 7.994709 412.077942 8.366653 408.44751 C 8.696402 405.228973 9.568581 399.420105 10.304835 395.538879 C 11.04109 391.657684 12.591221 385.2117 13.749576 381.214478 C 14.90793 377.217224 16.690708 371.714935 17.711304 368.987122 C 19.150196 365.141296 20.166422 363.779205 22.236536 362.921753 C 24.028297 362.179565 27.045137 361.996765 31.411051 362.365814 C 34.988747 362.668274 43.587406 364.117889 50.519192 365.587219 C 57.450974 367.05658 67.930428 369.658325 73.806839 371.368896 C 79.683281 373.079468 89.066345 376.114075 94.65815 378.112488 C 100.249947 380.110931 108.298569 383.485046 112.543991 385.610565 C 118.346695 388.515747 120.396385 390.006805 120.800461 391.61676 C 121.096107 392.794678 120.699203 396.872253 119.918488 400.678101 C 119.137772 404.483917 117.856171 409.586945 117.070518 412.018158 C 116.284859 414.449371 115.226654 416.961731 114.718971 417.601166 C 114.211296 418.240601 113.741737 419.633026 113.675552 420.695435 C 113.609375 421.757874 111.844048 426.008698 109.752625 430.141754 C 107.661194 434.274811 104.556992 439.645569 102.854401 442.076782 C 101.151833 444.507996 97.914948 448.423889 95.661339 450.778778 C 93.407738 453.133698 89.231468 456.660034 86.380714 458.615112 C 83.529961 460.570221 78.598473 463.348358 75.421829 464.788696 C 72.245163 466.229065 66.685356 467.97403 63.066681 468.666382 C 59.447998 469.358765 54.433651 469.885284 51.923656 469.836487 Z M 287.662231 345.63681 C 284.675232 345.908081 280.216309 345.58313 277.010345 344.860535 C 273.977478 344.177032 269.004547 342.305786 265.959381 340.702209 C 262.914215 339.098663 258.179138 335.567963 255.436996 332.856201 C 252.694931 330.144531 249.209503 325.465729 247.691711 322.458923 C 246.173889 319.452148 244.33963 314.717651 243.615601 311.937805 C 242.89151 309.157928 242.299088 305.003906 242.299088 302.706665 C 242.299088 300.409363 242.910233 295.624634 243.65715 292.073853 C 244.404053 288.523071 246.928513 281.63446 249.267136 276.765686 C 251.605637 271.897034 255.990631 264.597961 259.011414 260.545654 C 262.032227 256.493286 267.762817 249.773224 271.746033 245.612183 C 275.729279 241.451111 280.327576 237.481506 281.964447 236.790833 C 284.636475 235.66333 285.539886 235.71756 290.805237 237.321777 C 294.030792 238.304504 302.040619 241.836761 308.604889 245.171265 C 315.169159 248.505768 325.181458 254.050354 330.85434 257.492615 C 336.527313 260.934937 345.182312 266.596924 350.087799 270.074951 C 354.993164 273.552979 361.192719 278.532837 363.864441 281.141296 C 367.49588 284.686737 368.722168 286.517029 368.722046 288.391785 C 368.721985 290.212219 367.064667 292.838074 362.675201 297.972168 C 359.349548 301.862122 352.47879 309.023132 347.406952 313.885559 C 342.335052 318.747986 334.612976 325.162415 330.246765 328.139801 C 325.880432 331.117188 318.578278 335.422974 314.019653 337.70813 C 309.460968 339.993317 302.821655 342.607117 299.265533 343.516632 C 295.709473 344.426117 290.488007 345.380188 287.662231 345.63681 Z M 137.462082 334.182312 C 136.043976 334.413177 130.766327 333.63501 125.733978 332.453064 C 120.70166 331.27121 110.556862 328.459717 103.190002 326.205383 C 95.823143 323.95105 83.62928 319.924805 76.092522 317.258179 C 68.555771 314.591522 58.482903 310.5802 53.708431 308.344116 C 47.511337 305.441711 44.678066 303.602722 43.806213 301.916687 C 43.134468 300.617737 42.1674 296.225464 41.657154 292.156189 C 41.146912 288.086853 40.737194 281.763184 40.746693 278.103638 C 40.756187 274.444092 41.327271 267.218323 42.015774 262.046509 C 42.7043 256.874664 44.059795 249.307648 45.028023 245.230957 C 45.996223 241.154236 47.952 234.644257 49.374134 230.764252 C 50.796299 226.884247 54.057442 219.540802 56.621155 214.445526 C 59.184837 209.35022 63.284164 202.189209 65.730759 198.532135 C 68.177322 194.875061 72.925301 188.624023 76.281815 184.64093 C 79.638306 180.657959 85.643379 174.645325 89.62645 171.279633 C 93.609497 167.91394 99.621208 163.28656 102.985794 160.996613 C 106.350403 158.706665 111.812294 155.468811 115.123322 153.801392 C 118.434349 152.133972 124.234947 149.539703 128.013504 148.036316 C 131.792099 146.532959 138.265274 144.547394 142.398331 143.623993 C 146.531387 142.700562 153.294601 141.700897 157.427643 141.402527 C 162.893936 141.007965 166.60437 141.251953 171.039764 142.297821 C 174.393372 143.088531 179.466614 144.97702 182.313583 146.494476 C 185.160614 148.011932 189.059586 150.956299 190.978027 153.037537 C 192.896454 155.118774 195.885712 159.640656 197.62085 163.086151 C 199.355988 166.531708 201.392746 172.011658 202.146973 175.263794 C 202.901199 178.516052 203.898621 184.523895 204.363449 188.614655 C 204.926086 193.566437 204.893661 199.196808 204.266373 205.460571 C 203.748154 210.635162 202.364136 219.642944 201.19075 225.477814 C 200.017365 231.312714 197.23024 241.45755 194.997101 248.02179 C 192.763977 254.58606 188.071884 265.88913 184.57019 273.139771 C 181.068497 280.39035 175.877151 289.938354 173.033905 294.357605 C 170.190659 298.776825 165.663162 305.333191 162.972778 308.927307 C 160.282425 312.521423 155.335785 318.577637 151.980301 322.38559 C 148.624802 326.193512 144.565628 330.311157 142.959946 331.535889 C 141.354233 332.76062 138.880203 333.951477 137.462082 334.182312 Z M 409.831757 235.423981 C 408.292389 235.578674 404.211853 234.451874 400.106903 232.738556 C 396.216949 231.115021 387.265656 226.877869 380.215179 223.322662 C 373.164673 219.767487 362.820953 214.282684 357.229156 211.134216 C 351.63736 207.985718 343.002747 202.841248 338.041138 199.702087 C 333.079559 196.562927 327.75473 192.812439 326.208191 191.367767 C 323.552124 188.886597 323.426575 188.48526 323.942535 184.123474 C 324.24292 181.58374 325.473389 176.124176 326.67688 171.99115 C 327.880402 167.858093 330.468597 160.542603 332.428406 155.734558 C 334.388275 150.926483 338.335602 142.53006 341.200348 137.075897 C 344.065063 131.621643 349.24115 122.937836 352.702667 117.778473 C 356.164215 112.619171 362.130737 104.505402 365.961517 99.747925 C 369.792328 94.990509 377.848694 86.324005 383.864563 80.489136 C 389.880402 74.654236 397.906006 67.555054 401.699158 64.713226 C 405.49231 61.871368 412.107452 57.471161 416.399414 54.934937 C 420.691345 52.398773 427.489227 49.025055 431.505859 47.437866 C 435.522461 45.850647 441.837006 43.954437 445.538147 43.22406 C 449.513214 42.439575 454.438538 42.089752 457.57193 42.369324 C 460.48938 42.629639 464.924927 43.45932 467.428772 44.213135 C 469.932556 44.966949 474.457489 47.237305 477.484131 49.258484 C 480.825012 51.48941 484.545044 55.046753 486.952148 58.312439 C 489.132874 61.271027 492.321625 66.476532 494.0383 69.880188 C 495.754974 73.283875 497.846191 78.063782 498.685486 80.502228 C 499.524719 82.940613 500.917969 88.859802 501.781525 93.655975 C 502.985107 100.340607 503.225983 104.774597 502.813416 112.650574 C 502.517334 118.301392 501.504822 126.306458 500.563324 130.439514 C 499.621857 134.57254 497.829468 140.937927 496.580231 144.584747 C 495.331085 148.231567 491.909058 155.989349 488.975739 161.824249 C 486.042419 167.659149 481.074554 176.013672 477.936035 180.389862 C 474.797485 184.766083 468.983521 191.847687 465.016113 196.126923 C 461.048737 200.406158 454.568054 206.61554 450.614685 209.925629 C 446.661255 213.235748 439.846191 218.416962 435.470001 221.439484 C 431.093811 224.462097 424.131714 228.785065 419.998657 231.046265 C 415.865601 233.307404 411.290497 235.277344 409.831757 235.423981 Z"/>
</svg>
