<?xml version="1.0" encoding="UTF-8"?>
<svg width="30px" height="36px" viewBox="0 0 30 36" version="1.1" xmlns="http://www.w3.org/2000/svg" xmlns:xlink="http://www.w3.org/1999/xlink">
    <title>icon-stakeholer-pair</title>
    <g id="icon-stakeholer-pair" stroke="none" stroke-width="1" fill="none" fill-rule="evenodd">
        <path d="M14.99,2.99 C6.70448,2.99 -0.02,9.71448 -0.02,18 C-0.02,26.28552 6.70448,33.01 14.99,33.01 C23.27552,33.01 30,26.28552 30,18 C30,9.71448 23.27552,2.99 14.99,2.99 Z M20.40861,12.50634 C22.01468,12.50634 23.30554,13.7972 23.30554,15.40327 C23.30554,17.00934 22.01468,18.3002 20.40861,18.3002 C18.80254,18.3002 17.51168,17.00934 17.51168,15.40327 C17.49667,13.7972 18.80254,12.50634 20.40861,12.50634 L20.40861,12.50634 Z M11.40261,10.13476 C13.35391,10.13476 14.94497,11.72582 14.94497,13.67712 C14.94497,15.62842 13.35391,17.21948 11.40261,17.21948 C9.45131,17.21948 7.86025,15.62842 7.86025,13.67712 C7.86025,11.71081 9.4363,10.13476 11.40261,10.13476 Z M11.40261,23.83889 L11.40261,29.46764 C7.80021,28.34189 4.94831,25.56504 3.68747,22.02268 C5.26352,20.34156 9.19614,19.48599 11.40261,19.48599 C12.19814,19.48599 13.20381,19.60607 14.25451,19.81621 C11.79287,21.12208 11.40261,22.84823 11.40261,23.83889 Z M14.99,30.008 C14.58473,30.008 14.19447,29.99299 13.80421,29.94796 L13.80421,23.83889 C13.80421,21.70747 18.21715,20.64176 20.40861,20.64176 C22.01468,20.64176 24.79153,21.22715 26.17245,22.36791 C24.41628,26.82588 20.07839,30.008 14.99,30.008 L14.99,30.008 Z" id="Shape" fill="#25265E" fill-rule="nonzero"></path>
    </g>
</svg>