<?xml version="1.0" encoding="UTF-8"?>
<svg width="32px" height="32px" viewBox="0 0 32 32" version="1.1" xmlns="http://www.w3.org/2000/svg" xmlns:xlink="http://www.w3.org/1999/xlink">
    <title>icon-confirmed</title>
    <g id="icon-confirmed" stroke="none" stroke-width="1" fill="none" fill-rule="evenodd">
        <polygon id="Path" points="3 6 27 6 27 30 3 30"></polygon>
        <path d="M11.3317213,22.3355211 L15.333103,18.414167 C14.8129234,18.3608152 14.4261232,18.3341394 13.9993091,18.3341394 C10.4380794,18.3341394 3.32895777,20.1214232 3.32895777,23.669315 L3.32895777,26.3369029 L15.333103,26.3369029 L11.3317213,22.3355211 Z M13.9993091,15.6665515 C16.9469937,15.6665515 19.3344848,13.2790604 19.3344848,10.3313758 C19.3344848,7.38369129 16.9469937,4.99620017 13.9993091,4.99620017 C11.0516246,4.99620017 8.66413345,7.38369129 8.66413345,10.3313758 C8.66413345,13.2790604 11.0516246,15.6665515 13.9993091,15.6665515" id="Shape" fill="#25265E" fill-rule="nonzero"></path>
        <polygon id="Path" fill="#25265E" fill-rule="nonzero" points="19.9613679 27.0037998 15.333103 22.3355211 17.2004145 20.4548717 19.9613679 23.229163 26.8037307 16.3334485 28.6710422 18.2140979"></polygon>
    </g>
</svg>