<?xml version="1.0" encoding="UTF-8"?>
<!-- Generated by Pixelmator Pro 3.3.6 -->
<svg width="512" height="512" viewBox="0 0 512 512" xmlns="http://www.w3.org/2000/svg">
    <path id="Shape" fill="currentColor" fill-rule="evenodd" stroke="none" d="M 168.5 511.635284 C 112.787849 511.735107 71.43222 511.417664 68.5 510.867676 C 65.75 510.351868 61.25 509.207672 58.5 508.325043 C 55.75 507.442383 50.349998 505.15564 46.5 503.243347 C 42.650002 501.331085 36.799999 497.850281 33.5 495.50827 C 30.200001 493.166229 25.371065 488.972229 22.769033 486.188202 C 20.167 483.404205 16.342001 478.500458 14.269032 475.291016 C 12.196065 472.081573 9.039781 466.284698 7.255069 462.409058 C 5.470356 458.533447 3.220356 452.243408 2.255069 448.431244 C 0.612861 441.945709 0.5 429.571228 0.5 256 C 0.5 82.264404 0.611597 70.056061 2.259652 63.5 C 3.227461 59.649994 5.83274 52.707245 8.049161 48.071625 C 10.265582 43.436005 14.02998 36.911011 16.414488 33.571625 C 18.798996 30.232239 23.027782 25.371063 25.81179 22.769043 C 28.595798 20.166992 33.499535 16.34201 36.708984 14.269043 C 39.918434 12.196075 45.715309 9.039795 49.590935 7.255066 C 53.466557 5.470367 59.756577 3.220367 63.56876 2.255066 C 69.938095 0.642273 78.242065 0.5 166 0.5 C 253.833237 0.5 262.061951 0.641266 268.5 2.259644 C 272.350006 3.227448 279.292755 5.832733 283.928375 8.049164 C 288.563995 10.265594 295.152985 14.074371 298.570587 16.513123 C 301.98822 18.951874 307.195435 23.61853 310.142212 26.883453 C 313.088989 30.148376 316.998749 35.304413 318.830536 38.341309 C 320.662323 41.378174 323.693512 47.407501 325.566559 51.739807 C 327.635498 56.525269 329.612885 63.518433 330.604889 69.55835 C 331.927185 77.609222 332.167572 85.110535 331.868866 109 C 331.5 138.5 331.5 138.5 328.406891 144 C 326.129639 148.049286 323.931976 150.337708 320.075073 152.675934 C 317.193817 154.422668 313.089813 156.146942 310.955048 156.507599 C 308.527893 156.917664 305.092926 156.583618 301.786865 155.616028 C 298.879089 154.764984 294.796997 152.657715 292.715576 150.933167 C 290.634125 149.208618 287.7117 145.480682 286.221283 142.648804 C 283.511414 137.5 283.511414 137.5 283.005707 104.5 C 282.51532 72.499756 282.430511 71.369873 280.206696 67.204926 C 278.945374 64.842651 276.245361 61.059875 274.206696 58.798767 C 272.167999 56.537659 267.799988 53.408295 264.5 51.844635 C 258.5 49.001587 258.5 49.001587 166 49.010559 C 73.5 49.019531 73.5 49.019531 68 51.568604 C 64.974998 52.970581 60.759121 55.778687 58.631374 57.808838 C 56.503632 59.838989 53.466488 64.200012 51.882164 67.5 C 49.001579 73.5 49.001579 73.5 49.001579 256 C 49.001579 438.5 49.001579 438.5 51.882164 444.5 C 53.466488 447.799988 56.503632 452.161011 58.631374 454.191162 C 60.759121 456.221313 64.974998 459.029419 68 460.431396 C 73.5 462.980469 73.5 462.980469 166 462.989441 C 258.5 462.998413 258.5 462.998413 264.5 460.155365 C 267.799988 458.591705 272.167999 455.462341 274.206696 453.201233 C 276.245361 450.940125 278.945374 447.157349 280.206696 444.795044 C 282.449432 440.594727 282.511017 439.684021 283 403.5 C 283.5 366.5 283.5 366.5 286.215576 361.351196 C 287.709137 358.519348 290.634125 354.793884 292.715576 353.072449 C 294.796997 351.351013 298.75 349.270508 301.5 348.449158 C 304.618164 347.517822 308.091644 347.193817 310.728973 347.588257 C 313.054901 347.936157 317.287994 349.633606 320.135834 351.360413 C 323.929291 353.660522 326.140808 355.970581 328.406891 360 C 331.5 365.5 331.5 365.5 331.865906 399 C 332.166534 426.52298 331.94101 434.273773 330.601929 442.44165 C 329.61026 448.490509 327.63855 455.467651 325.566559 460.260193 C 323.693512 464.592499 320.662323 470.621826 318.830536 473.658691 C 316.998749 476.695587 313.088989 481.851624 310.142212 485.116547 C 307.195435 488.38147 301.98822 493.048126 298.570587 495.486877 C 295.152985 497.925629 288.563995 501.727112 283.928375 503.934631 C 279.292755 506.14212 272.799988 508.739532 269.5 509.706665 C 263.979797 511.324463 255.903183 511.478699 168.5 511.635284 Z"/>
    <path id="path1" fill="currentColor" fill-rule="evenodd" stroke="none" d="M 403.802551 365.582642 C 400.618378 365.852234 397.001068 365.472839 394.747955 364.632935 C 392.684357 363.863678 389.415283 362.028656 387.483398 360.555115 C 385.551483 359.081604 382.76532 355.541382 381.29187 352.687988 C 379.357513 348.941956 378.601868 345.954926 378.57312 341.940918 C 378.544189 337.899597 379.211334 335.091919 381.016663 331.657288 C 382.607361 328.631012 391.228241 319.217957 405 305.470184 C 416.825012 293.665771 426.645508 283.330902 426.823334 282.503784 C 427.109406 281.173218 415.581757 281 326.756989 281 C 258.51944 281 224.477081 280.650574 220.465378 279.908966 C 217.219315 279.308899 212.905197 277.971954 210.878448 276.937988 C 208.8517 275.904022 205.78447 273.357483 204.062378 271.279022 C 202.340286 269.200562 200.217407 265.060364 199.344864 262.078613 C 198.017532 257.542633 197.954041 255.783264 198.9561 251.305573 C 199.635483 248.269745 201.546997 244.127228 203.373383 241.732666 C 205.14418 239.411011 208.34761 236.527252 210.492111 235.32431 C 212.636612 234.121399 217.152542 232.656311 220.527512 232.068604 C 224.605621 231.358429 260.261597 231 326.831909 231 C 406.669891 231 427 230.744537 427 229.741272 C 427 229.048981 417.293121 218.811493 405.429169 206.991272 C 390.597778 192.2146 383.050507 183.937836 381.272736 180.5 C 379.411438 176.900604 378.687164 173.959351 378.687164 170 C 378.687164 166.01178 379.423279 163.054352 381.365173 159.240631 C 382.922272 156.182648 385.688385 152.78949 387.973724 151.134003 C 390.135529 149.567993 393.933624 147.718536 396.41394 147.024109 C 399.074738 146.279114 402.727692 146.031982 405.324005 146.421326 C 407.744202 146.784271 412.071259 148.525452 414.939667 150.290619 C 418.095703 152.232758 437.115112 170.478699 463.108002 196.5 C 498.852905 232.283966 506.559387 240.49173 509.030518 245.409729 C 511.058472 249.445648 512 252.803528 512 256 C 512 259.196503 511.058472 262.554321 509.030518 266.590271 C 506.554108 271.518677 498.834167 279.723389 462.540131 316 C 434.072937 344.453552 417.304626 360.474335 414.062195 362.316833 C 410.969269 364.074371 407.111053 365.30249 403.802551 365.582642 Z"/>
</svg>
