<?xml version="1.0" encoding="UTF-8"?>
<svg width="30px" height="36px" viewBox="0 0 30 36" version="1.1" xmlns="http://www.w3.org/2000/svg" xmlns:xlink="http://www.w3.org/1999/xlink">
    <title>icon-doc-img</title>
    <g id="icon-doc-img" stroke="none" stroke-width="1" fill="none" fill-rule="evenodd">
        <path d="M30,31.8 C30,34.1195959 28.1195959,36 25.8,36 L4.2,36 C1.88040405,36 0,34.1195959 0,31.8 L0,4.2 C0,1.88040405 1.88040405,0 4.2,0 L18,0 L18,7.58786797 C18,9.90746391 20.0925361,12 22.412132,12 L22.412132,12 L30,12 L30,31.8 Z" id="Combined-Shape-2" fill="#25265E" opacity="0.297712054"></path>
        <path d="M17.9809134,-2.66453526e-14 L25.5808502,-2.66453526e-14 C27.9041356,-2.66453526e-14 30,2.09586437 30,4.41914976 L30,12.0190866 L17.9809134,-2.66453526e-14 Z" id="Path-Copy" fill="#25265E" opacity="0.498302641" transform="translate(23.990457, 6.009543) scale(-1, -1) translate(-23.990457, -6.009543) "></path>
        <path d="M18.9404727,17.4097881 L6.93980467,17.4097881 C6.5715896,17.4097881 6.27311945,17.7083251 6.27311945,18.0765902 L6.27311945,28.7435204 C6.27311945,29.1115852 6.5715896,29.4097881 6.93980467,29.4097881 L18.940456,29.4097881 C19.3086878,29.4097881 19.6071746,29.1115852 19.6071746,28.7435204 L19.6071746,18.0766069 C19.6071746,17.7083251 19.3086711,17.4097881 18.940456,17.4097881 L18.9404727,17.4097881 Z M17.6069854,27.4099162 L8.27325862,27.4099162 L8.27325862,24.0767573 L10.273331,22.0765346 L13.6068907,25.4100442 L15.6068963,23.4096879 L17.6069854,25.4100442 L17.6069854,27.4099162 Z M16.2735982,22.076568 C15.5371681,22.076568 14.9402779,21.4796945 14.9402779,20.7432977 C14.9402779,20.0066171 15.5371848,19.4099607 16.2735982,19.4099607 C17.0100117,19.4099607 17.6069854,20.0066338 17.6069854,20.7432977 C17.6069854,21.4796945 17.0100284,22.076568 16.2735982,22.076568 Z" id="Shape" fill="#25265E" fill-rule="nonzero"></path>
    </g>
</svg>