<?xml version="1.0" encoding="UTF-8"?>
<svg width="30px" height="36px" viewBox="0 0 30 36" version="1.1" xmlns="http://www.w3.org/2000/svg" xmlns:xlink="http://www.w3.org/1999/xlink">
    <title>icon-doc-dot</title>
    <g id="icon-doc-dot" stroke="none" stroke-width="1" fill="none" fill-rule="evenodd">
        <path d="M30,31.8 C30,34.1195959 28.1195959,36 25.8,36 L4.2,36 C1.88040405,36 0,34.1195959 0,31.8 L0,4.2 C0,1.88040405 1.88040405,0 4.2,0 L18,0 L18,7.58786797 C18,9.90746391 20.0925361,12 22.412132,12 L22.412132,12 L30,12 L30,31.8 Z M6.71379842,2 C3.95237467,2 1.71379842,4.23857625 1.71379842,7 C1.71379842,9.76142375 3.95237467,12 6.71379842,12 C9.47522217,12 11.7137984,9.76142375 11.7137984,7 C11.7137984,4.23857625 9.47522217,2 6.71379842,2 Z" id="Combined-Shape-2" fill="#25265E" opacity="0.297712054"></path>
        <circle id="Oval-Copy" fill="#25265E" opacity="0.297712054" cx="6.71379842" cy="7" r="5"></circle>
        <path d="M17.9809134,0 L25.5808502,0 C27.9041356,0 30,2.09586437 30,4.41914976 L30,12.0190866 L17.9809134,0 Z" id="Path-Copy" fill="#25265E" opacity="0.498302641" transform="translate(23.990457, 6.009543) scale(-1, -1) translate(-23.990457, -6.009543) "></path>
        <g id="status/dots/ok" transform="translate(2.528738, 2.814940)" fill="#25265E" fill-opacity="0.3046875" stroke="#25265E">
            <circle id="Oval-Copy-7" cx="2.09253023" cy="2.09253023" r="1.59253023"></circle>
        </g>
    </g>
</svg>