<?xml version="1.0" encoding="UTF-8"?>
<!-- Generated by Pixelmator Pro 3.3.5 -->
<svg width="512" height="512" viewBox="0 0 512 512" xmlns="http://www.w3.org/2000/svg">
    <path id="Shape" fill="#999933" fill-rule="evenodd" stroke="none" d="M 365.5 255.5 L 145.5 255.5 L 145 360 C 144.510864 462.230499 144.456558 464.573883 142.5 467.902466 C 141.399994 469.773834 138.699997 472.24881 136.5 473.402466 C 132.76709 475.359955 130.763962 475.512421 106.5 475.686005 C 92.199997 475.7883 78.805031 475.456268 76.733406 474.948181 C 74.661774 474.440063 71.826279 473.277039 70.432289 472.363678 C 69.038307 471.450317 67.245773 469.442169 66.448891 467.901154 C 65.207458 465.500488 65 448.015503 65 345.784058 C 65 234.051666 65.111221 226.262848 66.75 223.22818 C 67.936356 221.031342 72.203957 217.602264 80 212.581696 C 86.324997 208.508484 92.849998 204.209045 94.5 203.027405 C 96.150002 201.845764 103.01104 197.303986 109.746758 192.934601 C 116.482468 188.565216 128.525558 180.725922 136.509186 175.513977 C 144.492798 170.302063 157.431763 161.820343 165.262436 156.665771 C 173.093094 151.5112 185.800003 143.214386 193.5 138.228394 C 201.199997 133.242432 208.850006 128.225464 210.5 127.07959 C 212.149994 125.933716 217.668564 122.305939 222.763474 119.017853 C 227.858383 115.729767 235.832092 110.523163 240.482834 107.447601 C 245.133591 104.37207 250.489868 101.427399 252.385712 100.903961 C 254.864105 100.219635 256.909882 100.335236 259.666321 101.315338 C 261.774841 102.065063 266.875 104.939972 271 107.70401 C 275.125 110.468048 282.774994 115.489532 288 118.862854 C 293.225006 122.236176 298.850006 125.933716 300.5 127.07959 C 302.149994 128.225464 309.799988 133.242432 317.5 138.228394 C 325.200012 143.214386 337.906921 151.5112 345.737579 156.665771 C 353.568237 161.820343 366.507202 170.302063 374.490814 175.513977 C 382.474426 180.725922 394.517517 188.565216 401.253235 192.934601 C 407.988953 197.303986 414.850006 201.845764 416.5 203.027405 C 418.149994 204.209045 424.674988 208.508484 431 212.581696 C 438.796051 217.602264 443.06366 221.031342 444.25 223.22818 C 445.888885 226.263031 445.999756 234.057037 445.996277 345.984406 C 445.992645 461.153015 445.924225 465.61203 444.114319 468.580048 C 443.081299 470.274048 440.495483 472.524048 438.368073 473.580048 C 434.83139 475.33551 432.101166 475.5 406.5 475.5 C 380.003998 475.5 378.285156 475.387329 374.5 473.402466 C 372.299988 472.24881 369.600006 469.773834 368.5 467.902466 C 366.543427 464.573883 366.489136 462.230499 366 360 L 365.5 255.5 Z"/>
    <path id="path1" fill="#999933" fill-rule="evenodd" stroke="none" d="M 256.678894 379.772797 C 232.30014 380.017456 229.141495 379.862915 226.020264 378.272797 C 224.106415 377.29776 221.856415 375.266663 221.020264 373.759247 C 219.766068 371.498169 219.5 366.335205 219.5 344.259247 C 219.5 323.484009 219.815201 316.752594 220.909531 314.157745 C 221.788101 312.074524 223.628586 310.19104 225.795395 309.157745 C 228.757629 307.745148 233.13356 307.5 255.385864 307.5 C 275.440582 307.5 282.265076 307.822723 284.79715 308.890869 C 286.610596 309.655823 288.860596 311.680817 289.79715 313.390869 C 291.247681 316.039307 291.546417 320.256531 291.813171 341.851288 C 292.047058 360.782196 291.793793 368.230713 290.813171 371.262207 C 290.090942 373.494995 288.230499 376.261902 286.678894 377.410889 C 284.004089 379.391663 282.448242 379.51416 256.678894 379.772797 Z"/>
    <path id="path2" fill="#999933" fill-rule="evenodd" stroke="none" d="M 208 475.691498 C 193.571136 475.80426 182.061264 475.460938 180 474.856293 C 178.074997 474.291626 175.650391 473.080444 174.611984 472.164795 C 173.573578 471.249146 172.111069 469.051941 171.361984 467.282104 C 170.334747 464.855103 170 457.916901 170 439.052368 C 170 419.031891 170.302628 413.284149 171.516434 410.250519 C 172.350479 408.166046 174.037979 405.794434 175.266434 404.980286 C 177.066284 403.787445 182.679504 403.439972 204.173615 403.190887 C 221.521622 402.989838 232.286255 403.269257 234.963257 403.990112 C 238.208328 404.863922 239.441223 405.857727 240.789658 408.686646 C 242.274017 411.80072 242.5 415.880676 242.5 439.564728 C 242.5 465.678986 242.409973 466.976196 240.410065 469.677307 C 239.260605 471.229797 237.010605 473.174988 235.410065 474 C 233.089905 475.195923 227.533493 475.538818 208 475.691498 Z"/>
    <path id="path3" fill="#999933" fill-rule="evenodd" stroke="none" d="M 306 475.678162 C 291.748474 475.781799 279.934113 475.427185 277.756622 474.830383 C 275.697754 474.266113 272.918213 472.503113 271.579865 470.912537 C 270.007904 469.044373 268.913605 466.156647 268.488586 462.755035 C 268.12677 459.858948 267.982208 447.141785 268.167358 434.49472 C 268.454498 414.883392 268.762207 411.027222 270.258698 408.286743 C 271.535522 405.948547 273.121643 404.775055 276.083069 403.977631 C 278.703522 403.272034 289.651459 402.991852 306.826385 403.190887 C 328.466339 403.44165 333.92688 403.782715 335.762024 404.998047 C 337.006134 405.821991 338.715546 408.306732 339.560669 410.519714 C 340.83197 413.848572 341.045746 419.059631 340.798645 440.700684 C 340.516479 465.414917 340.384705 467.013733 338.410065 469.679047 C 337.26059 471.23056 335.01059 473.174988 333.410065 474 C 331.087524 475.197144 325.553558 475.53598 306 475.678162 Z"/>
    <path id="path4" fill="#999933" fill-rule="evenodd" stroke="none" d="M 47.40237 222.675842 C 46.672779 222.955811 44.951221 221.971405 43.576687 220.488251 C 42.202156 219.005096 40.122967 215.819733 38.956268 213.409668 C 37.557159 210.51947 37.043144 208.080048 37.446404 206.244019 C 37.782673 204.713013 39.057297 202.32312 40.2789 200.933167 C 41.500504 199.543243 44.299999 197.063538 46.5 195.42276 C 48.700001 193.781982 94.991318 162.808289 149.369598 126.592346 C 203.747879 90.376373 249.999039 60.053864 252.149963 59.208954 C 255.995285 57.698456 256.166473 57.729889 262.380127 61.086395 C 265.855804 62.963867 311.854645 93.298981 364.599762 128.497742 C 417.344879 163.696472 462.830688 194.224976 465.679291 196.338806 C 468.527893 198.452637 471.604584 201.754303 472.516418 203.675842 C 473.548981 205.851807 473.926117 208.174744 473.516327 209.834747 C 473.15448 211.300629 471.519012 214.597504 469.881989 217.161133 C 468.244965 219.724762 466.173309 222.103271 465.27829 222.446686 C 464.308716 222.818756 462.205994 222.006134 460.075531 220.435944 C 458.108978 218.986603 449.413055 213.11969 440.751251 207.398376 C 432.089417 201.677063 417.914429 192.336212 409.251251 186.6409 C 400.588043 180.945618 387.424988 172.328369 380 167.491455 C 372.575012 162.654572 360.649994 154.88208 353.5 150.219238 C 346.350006 145.556396 335.774994 138.664398 330 134.903656 C 324.225006 131.142914 318.149994 127.112915 316.5 125.94809 C 314.850006 124.783264 309.087311 120.9823 303.694 117.501526 C 298.30069 114.020721 289.565887 108.378937 284.283325 104.964203 C 279.000732 101.549469 272.388428 97.798096 269.589325 96.627808 C 265.676788 94.992004 262.418976 94.5 255.5 94.5 C 248.581024 94.5 245.323227 94.992004 241.41069 96.627808 C 238.611557 97.798096 231.999268 101.549469 226.71669 104.964203 C 221.434113 108.378937 212.69931 114.020721 207.306 117.501526 C 201.912704 120.9823 196.149994 124.783264 194.5 125.94809 C 192.850006 127.112915 186.774994 131.142914 181 134.903656 C 175.225006 138.664398 164.649994 145.556396 157.5 150.219238 C 150.350006 154.88208 138.425003 162.653107 131 167.48822 C 123.574997 172.323334 111.199997 180.429504 103.5 185.501953 C 95.800003 190.574371 83.425003 198.663452 76 203.477661 C 68.574997 208.29187 59.401505 214.46637 55.614452 217.198792 C 51.8274 219.931183 48.131962 222.395874 47.40237 222.675842 Z"/>
</svg>
