<?xml version="1.0" encoding="UTF-8"?>
<svg width="32px" height="32px" viewBox="0 0 32 32" version="1.1" xmlns="http://www.w3.org/2000/svg" xmlns:xlink="http://www.w3.org/1999/xlink">
    <title>icon-card-map</title>
    <defs>
        <filter id="filter-1">
            <feColorMatrix in="SourceGraphic" type="matrix" values="0 0 0 0 0.145098 0 0 0 0 0.149020 0 0 0 0 0.368627 0 0 0 1.000000 0"></feColorMatrix>
        </filter>
    </defs>
    <g id="icon-card-map" stroke="none" stroke-width="1" fill="none" fill-rule="evenodd" opacity="0.503371466">
        <g id="icons-32/fa-seedling" filter="url(#filter-1)">
            <g>
                <g id="ion-map" fill-rule="nonzero">
                    <rect id="ViewBox" x="0" y="0" width="32" height="32"></rect>
                </g>
                <path d="M13.3857183,5.04918412 C13.4940941,4.99052441 13.6219696,4.98515816 13.733336,5.03163917 L13.7978867,5.06573787 L18.6421283,8.22610087 C18.7378777,8.28833924 18.8018661,8.38751535 18.8203122,8.49815023 L18.8258046,8.56570238 L18.8258046,26.5968777 C18.8258046,26.7450138 18.7446357,26.8812406 18.6143789,26.9517919 C18.5058317,27.0105847 18.3777161,27.0158984 18.2662193,26.9692082 L18.201605,26.9349654 L13.3573635,23.7851992 C13.2619,23.7229437 13.1981133,23.6239376 13.1796902,23.5135197 L13.1741895,23.4461022 L13.1741895,5.40332096 C13.1745137,5.25544218 13.2556673,5.11957578 13.3857183,5.04918412 Z M24.9330824,5.38263201 C25.4331293,5.11376327 26.0383428,5.13067082 26.5225991,5.42703755 C26.9761414,5.708803 27.2632862,6.19047518 27.2994598,6.71783546 L27.3032281,6.85053811 L27.3032281,21.7869495 C27.3041494,22.328228 27.0341389,22.8306987 26.5898209,23.1294933 L26.4751659,23.1998533 L21.0723228,26.9067073 C20.9485229,26.9914836 20.7879177,27.0006022 20.6553177,26.9303836 C20.5448177,26.871868 20.4689604,26.7663034 20.4470606,26.6459098 L20.4405491,26.5721519 L20.4405491,8.53441666 C20.4402817,8.42044752 20.488113,8.31282256 20.5703584,8.2368804 L20.6237258,8.19531975 L24.8700063,5.41997304 C24.8902629,5.40627097 24.9113264,5.39380139 24.9330824,5.38263201 Z M10.9296921,5.09147291 C11.0534783,5.00698163 11.2138847,4.99802294 11.3463094,5.06820485 C11.4566633,5.12668978 11.5324472,5.23211057 11.5544006,5.35235774 L11.56096,5.42602834 L11.56096,23.4612405 C11.5612283,23.5752096 11.5133972,23.6828346 11.4311518,23.7587768 L11.3777844,23.8003374 L7.13200853,26.5782072 C7.11131958,26.5918316 7.09012603,26.6039422 7.06842786,26.6155482 C6.5671091,26.8815827 5.96293174,26.8649051 5.47705238,26.57162 C5.02854835,26.3008954 4.74162993,25.8311738 4.7015796,25.3141323 L4.69675316,25.1839739 L4.69675316,10.2092122 C4.69526193,9.67193899 4.9607715,9.17229668 5.39948686,8.87214323 L5.51271988,8.80135455 L10.9296921,5.09147291 Z" id="Shape" fill="#000000" fill-rule="nonzero"></path>
            </g>
        </g>
    </g>
</svg>