<?xml version="1.0" encoding="UTF-8"?>
<svg width="30px" height="36px" viewBox="0 0 30 36" version="1.1" xmlns="http://www.w3.org/2000/svg" xmlns:xlink="http://www.w3.org/1999/xlink">
    <title>icon-doc-inf</title>
    <g id="icon-doc-inf" stroke="none" stroke-width="1" fill="none" fill-rule="evenodd">
        <path d="M30,31.8 C30,34.1195959 28.1195959,36 25.8,36 L4.2,36 C1.88040405,36 0,34.1195959 0,31.8 L0,4.2 C0,1.88040405 1.88040405,0 4.2,0 L18,0 L18,7.58786797 C18,9.90746391 20.0925361,12 22.412132,12 L22.412132,12 L30,12 L30,31.8 Z" id="Combined-Shape-2" fill="#25265E" opacity="0.297712054"></path>
        <path d="M17.9809134,1.77635684e-15 L25.5808502,1.77635684e-15 C27.9041356,1.77635684e-15 30,2.09586437 30,4.41914976 L30,12.0190866 L17.9809134,1.77635684e-15 Z" id="Path-Copy" fill="#25265E" opacity="0.498302641" transform="translate(23.990457, 6.009543) scale(-1, -1) translate(-23.990457, -6.009543) "></path>
        <path d="M14.5277778,20 C16.4188889,20 17.9777778,21.5333333 17.9777778,23.45 C17.9777778,25.3411111 16.4188889,26.9 14.5277778,26.9 C13.8122222,26.9 13.1222222,26.6955556 12.56,26.2866667 C12.33,26.1333333 12.2788889,25.8011111 12.4322222,25.5711111 C12.5855556,25.3411111 12.9177778,25.29 13.1477778,25.4433333 C13.5566667,25.7244444 14.0422222,25.8777778 14.5277778,25.8777778 C15.8566667,25.8777778 16.9555556,24.7788889 16.9555556,23.45 C16.9555556,22.1211111 15.8566667,21.0222222 14.5277778,21.0222222 C13.2520445,21.0222222 12.1882791,22.0349582 12.1052191,23.2916929 L12.1,23.45 L12.1,23.45 C12.1,25.3411111 10.5411111,26.9 8.65,26.9 C6.7588889,26.9 5.2,25.3411111 5.2,23.45 C5.2,21.5588889 6.7588889,20 8.65,20 C9.31444445,20 9.95333333,20.1788889 10.5155556,20.5366667 C10.7455556,20.69 10.8222222,20.9966667 10.6688889,21.2522222 C10.5155556,21.4822222 10.2088889,21.5588889 9.95333335,21.4055556 C9.57000002,21.15 9.11000002,21.0222222 8.65,21.0222222 C7.3211111,21.0222222 6.22222222,22.1211111 6.22222222,23.45 C6.22222222,24.7788889 7.32111112,25.8777778 8.65,25.8777778 C9.97888888,25.8777778 11.0777778,24.7788889 11.0777778,23.45 C11.0777778,21.5588889 12.6366667,20 14.5277778,20 Z" id="Combined-Shape" fill="#25265E" fill-rule="nonzero"></path>
    </g>
</svg>