<?xml version="1.0" encoding="UTF-8"?>
<svg width="32px" height="32px" viewBox="0 0 32 32" version="1.1" xmlns="http://www.w3.org/2000/svg" xmlns:xlink="http://www.w3.org/1999/xlink">
    <title>icon-card-cogwheel</title>
    <defs>
        <filter id="filter-1">
            <feColorMatrix in="SourceGraphic" type="matrix" values="0 0 0 0 0.145098 0 0 0 0 0.149020 0 0 0 0 0.368627 0 0 0 1.000000 0"></feColorMatrix>
        </filter>
        <path d="M11.3684211,6.82105263 C13.8798633,6.82105263 15.9157895,8.85697882 15.9157895,11.3684211 C15.9157895,13.8798633 13.8798633,15.9157895 11.3684211,15.9157895 C8.85697882,15.9157895 6.82105263,13.8798633 6.82105263,11.3684211 C6.82105263,8.85697882 8.85697882,6.82105263 11.3684211,6.82105263 L11.3684211,6.82105263 Z M11.3684211,9.09473684 C10.1126999,9.09473684 9.09473684,10.1126999 9.09473684,11.3684211 C9.09473684,12.6241422 10.1126999,13.6421053 11.3684211,13.6421053 C12.6241422,13.6421053 13.6421053,12.6241422 13.6421053,11.3684211 C13.6421053,10.1126999 12.6241422,9.09473684 11.3684211,9.09473684 L11.3684211,9.09473684 Z M9.09473684,22.7368421 C8.81052632,22.7368421 8.57178947,22.5322105 8.52631579,22.2593684 L8.10568421,19.2467368 C7.38947368,18.9625263 6.77557895,18.576 6.18442105,18.1212632 L3.35368421,19.2694737 C3.10357895,19.3604211 2.79663158,19.2694737 2.66021053,19.0193684 L0.386526316,15.0858947 C0.238736842,14.8357895 0.306947368,14.5288421 0.522947368,14.3583158 L2.92168421,12.4711579 L2.84210526,11.3684211 L2.92168421,10.2315789 L0.522947368,8.37852632 C0.306947368,8.208 0.238736842,7.90105263 0.386526316,7.65094737 L2.66021053,3.71747368 C2.79663158,3.46736842 3.10357895,3.36505263 3.35368421,3.46736842 L6.18442105,4.60421053 C6.77557895,4.16084211 7.38947368,3.77431579 8.10568421,3.49010526 L8.52631579,0.477473684 C8.57178947,0.204631579 8.81052632,0 9.09473684,0 L13.6421053,0 C13.9263158,0 14.1650526,0.204631579 14.2105263,0.477473684 L14.6311579,3.49010526 C15.3473684,3.77431579 15.9612632,4.16084211 16.5524211,4.60421053 L19.3831579,3.46736842 C19.6332632,3.36505263 19.9402105,3.46736842 20.0766316,3.71747368 L22.3503158,7.65094737 C22.4981053,7.90105263 22.4298947,8.208 22.2138947,8.37852632 L19.8151579,10.2315789 L19.8947368,11.3684211 L19.8151579,12.5052632 L22.2138947,14.3583158 C22.4298947,14.5288421 22.4981053,14.8357895 22.3503158,15.0858947 L20.0766316,19.0193684 C19.9402105,19.2694737 19.6332632,19.3717895 19.3831579,19.2694737 L16.5524211,18.1326316 C15.9612632,18.576 15.3473684,18.9625263 14.6311579,19.2467368 L14.2105263,22.2593684 C14.1650526,22.5322105 13.9263158,22.7368421 13.6421053,22.7368421 L9.09473684,22.7368421 L9.09473684,22.7368421 Z M10.5157895,2.27368421 L10.0951579,5.24084211 C8.73094737,5.52505263 7.52589474,6.25263158 6.65052632,7.26442105 L3.91073684,6.08210526 L3.05810526,7.56 L5.45684211,9.32210526 C5.00210526,10.6522105 5.00210526,12.096 5.45684211,13.4147368 L3.04673684,15.1882105 L3.89936842,16.6661053 L6.66189474,15.4837895 C7.53726316,16.4842105 8.73094737,17.2117895 10.0837895,17.4846316 L10.5044211,20.4631579 L12.2324211,20.4631579 L12.6530526,17.496 C14.0058947,17.2117895 15.1995789,16.4842105 16.0749474,15.4837895 L18.8374737,16.6661053 L19.6901053,15.1882105 L17.28,13.4261053 C17.7347368,12.096 17.7347368,10.6522105 17.28,9.32210526 L19.6787368,7.56 L18.8261053,6.08210526 L16.0863158,7.26442105 C15.2109474,6.25263158 14.0058947,5.52505263 12.6416842,5.25221053 L12.2210526,2.27368421 L10.5157895,2.27368421 Z" id="path-2"></path>
    </defs>
    <g id="icon-card-cogwheel" stroke="none" stroke-width="1" fill="none" fill-rule="evenodd" opacity="0.498976935">
        <g filter="url(#filter-1)" id="Icon">
            <g transform="translate(4.500000, 4.500000)">
                <mask id="mask-3" fill="white">
                    <use xlink:href="#path-2"></use>
                </mask>
                <use id="Shape" fill="#B7BFCB" xlink:href="#path-2"></use>
            </g>
        </g>
    </g>
</svg>