<?xml version="1.0" encoding="UTF-8"?>
<!-- Generated by Pixelmator Pro 3.3.5 -->
<svg width="512" height="512" viewBox="0 0 512 512" xmlns="http://www.w3.org/2000/svg">
    <path id="Shape" fill="#999933" fill-rule="evenodd" stroke="none" d="M 63.5 418.5 C 63.842373 266.600006 64.193771 221.072113 64.50177 219.326935 C 64.923294 216.938446 66.105011 215.537689 69.280884 213.662048 C 71.601395 212.291534 75.050774 209.556915 76.946167 207.585114 C 78.84156 205.613312 81.112732 204 81.993217 204 C 82.873703 204 85.306297 205.753448 87.398979 207.896545 C 89.491661 210.039642 93.453079 213.017273 96.202118 214.513489 C 98.951164 216.009705 103.517792 217.850922 106.350189 218.605072 C 109.182587 219.359222 113.75 219.970612 116.5 219.963684 C 119.25 219.956757 123.473404 219.496155 125.885338 218.940094 C 128.297272 218.384064 132.728943 216.725403 135.73349 215.254242 C 138.738037 213.783051 143.170258 210.841797 145.582886 208.71814 C 147.995514 206.594452 150.76384 205.001587 151.734741 205.178436 C 152.705627 205.355316 155.299316 207.180786 157.498489 209.235046 C 159.697662 211.289337 164.422668 214.439331 167.998489 216.235046 C 174.2173 219.358032 175.002304 219.5 186.052216 219.5 C 197.271957 219.5 197.802658 219.399384 204.491547 216.004303 C 208.279465 214.081635 212.980957 210.932037 214.939331 209.005127 C 216.897705 207.078217 219.08873 205.12674 219.808289 204.668518 C 220.690674 204.106598 222.702759 205.319061 225.9888 208.392761 C 228.668518 210.899323 233.849548 214.423859 237.502228 216.225067 C 243.824799 219.342865 244.688339 219.5 255.5 219.5 C 266.311676 219.5 267.175201 219.342865 273.497772 216.225067 C 277.150452 214.423859 282.331482 210.899323 285.0112 208.392761 C 288.297241 205.319061 290.309326 204.106598 291.191711 204.668518 C 291.911255 205.12674 294.102295 207.078217 296.060669 209.005127 C 298.019043 210.932037 302.720551 214.081635 306.508453 216.004303 C 313.197327 219.399384 313.728027 219.5 324.947784 219.5 C 335.599823 219.5 336.948456 219.279877 342.255157 216.674927 C 345.420502 215.121155 350.369263 211.971161 353.252411 209.674927 C 356.135529 207.378723 359.109894 205.344543 359.862122 205.154541 C 360.614349 204.964539 363.090576 206.622375 365.364899 208.838623 C 367.639191 211.05484 371.769012 213.999512 374.542236 215.382324 C 377.31546 216.765137 381.590454 218.432587 384.042236 219.087769 C 386.641998 219.782501 392.042847 220.088074 397 219.820923 C 403.542267 219.468323 406.971832 218.69928 411.890411 216.481842 C 415.405121 214.897308 419.891327 212.003143 421.859741 210.050415 C 423.828125 208.097687 426.263519 205.866943 427.271729 205.093231 C 428.920441 203.827942 429.527008 204.092987 433.302399 207.728271 C 435.611084 209.951294 439.403992 212.947113 441.73111 214.385681 C 444.058197 215.824219 446.204529 218.013458 446.500702 219.25061 C 446.796844 220.487762 447.142853 265.825012 447.269592 320 L 447.5 418.5 L 454.307983 419.172974 C 458.052368 419.543121 462.208618 420.56189 463.544067 421.43689 C 464.879517 422.31192 466.7659 424.237885 467.736084 425.716797 C 469.180542 427.918762 469.561218 431.160065 469.838074 443.614777 C 470.156616 457.94455 470.05545 458.94455 468.088074 460.911926 C 466 463 466 463 255.5 463 C 45 463 45 463 42.911919 460.911926 C 40.944557 458.94455 40.843384 457.94455 41.161919 443.614777 C 41.438774 431.160065 41.819443 427.918762 43.263927 425.716797 C 44.234089 424.237885 46.120495 422.31192 47.455944 421.43689 C 48.791397 420.56189 52.947628 419.543121 56.692017 419.172974 L 63.5 418.5 Z M 223.5 418.5 C 223.927185 307.674988 223.808182 274.495758 223.511154 273.268341 C 223.214127 272.040924 221.522141 269.386414 219.751175 267.369385 C 217.980209 265.352356 215.076172 263.094116 213.297745 262.351044 C 210.754028 261.288208 200.995346 261 167.552353 261 C 131.344315 261 124.461517 261.231659 121.136093 262.562225 C 118.988686 263.421448 116.301064 265.115082 115.163589 266.325867 C 114.026115 267.536652 112.398979 270.194214 111.547729 272.231506 C 110.200165 275.456696 110 285.100677 110 346.801208 C 110 385.777222 110.303711 417.970367 110.674911 418.341583 C 111.04612 418.712769 136.583618 418.900269 167.424911 418.75824 L 223.5 418.5 Z M 334.772156 364 C 377.341034 364 384.50943 363.787903 387.092621 362.452087 C 388.738922 361.600769 390.516602 359.771484 391.042969 358.387024 C 391.601318 356.918427 392 336.962097 392 310.481934 C 392 279.347961 391.651337 264.328857 390.88974 262.657318 C 390.279083 261.317078 388.682892 259.720917 387.342682 259.110291 C 385.661865 258.344421 369.578735 258 335.5 258 C 302.106293 258 285.322174 258.351715 283.712311 259.085205 C 282.402344 259.682068 280.581177 261.439026 279.665283 262.989502 C 278.178528 265.506348 278 270.595154 278 310.453949 C 278 348.107025 278.234039 355.55188 279.494293 357.988953 C 280.316162 359.578247 281.991272 361.580902 283.216797 362.439301 C 285.162842 363.802368 291.691559 364 334.772156 364 Z"/>
    <path id="path1" fill="#999933" fill-rule="evenodd" stroke="none" d="M 255.5 93 C 69.333336 93 67.985779 92.985779 66 91 C 64.341972 89.34198 64.001671 87.674835 64.009766 81.25 C 64.01757 75.059937 64.532997 72.392944 66.570473 68 C 67.973488 64.975006 70.556587 60.997314 72.310699 59.160706 C 74.064819 57.324097 77.587143 54.754547 80.1381 53.450562 C 82.689056 52.146606 87.639053 50.615173 91.1381 50.047424 C 95.319817 49.368866 151.64563 49.015106 255.5 49.015106 C 359.35437 49.015106 415.680176 49.368866 419.861908 50.047424 C 423.360931 50.615173 428.310944 52.146606 430.861908 53.450562 C 433.412842 54.754547 436.935181 57.324097 438.689301 59.160706 C 440.44342 60.997314 443.02652 64.975006 444.429535 68 C 446.46701 72.392944 446.982422 75.059937 446.990234 81.25 C 446.998322 87.674835 446.65802 89.34198 445 91 C 443.014221 92.985779 441.666656 93 255.5 93 Z"/>
    <path id="path2" fill="#999933" fill-rule="evenodd" stroke="none" d="M 50.62603 160 C 34.09539 160 28.961639 159.692444 27.486372 158.613678 C 25.643768 157.266357 25.669788 157.034485 28.412115 150.363678 C 29.964012 146.588654 34.893654 136.075012 39.366875 127 C 47.138912 111.232544 47.698097 110.400116 51.961891 108.25 C 56.054394 106.186279 57.797783 106 73.02076 106 C 85.600952 106 90.077194 106.335968 91.516167 107.388153 C 93.36058 108.736847 93.319641 109.071075 90.076965 119.138153 C 88.241272 124.837158 84.463379 135.955811 81.681641 143.846252 C 77.528137 155.627686 76.198959 158.354065 74.246864 159.096252 C 72.939476 159.593323 62.310104 160 50.62603 160 Z"/>
    <path id="path3" fill="#999933" fill-rule="evenodd" stroke="none" d="M 119 159.870331 C 107.175003 159.814056 96.659058 159.55191 95.631233 159.287811 C 94.097404 158.893677 93.853477 158.129059 94.270271 155.021637 C 94.549561 152.939362 96.905441 145.220154 99.505562 137.867859 C 102.105682 130.515533 105.321526 120.906586 106.651878 116.514648 C 107.982231 112.122711 109.526291 108.072693 110.083115 107.514648 C 110.68 106.916443 119.387169 106.37677 131.29776 106.199738 C 147.116241 105.9646 151.900894 106.194153 153.347504 107.257599 C 155.06546 108.520538 155.107727 109.172668 153.950211 116.557892 C 153.265579 120.926056 151.625732 129.899994 150.306122 136.5 C 148.986511 143.100006 147.255707 150.809265 146.459885 153.631683 C 145.381271 157.457001 144.438507 158.917297 142.756454 159.368011 C 141.515411 159.700592 130.824997 159.926636 119 159.870331 Z"/>
    <path id="path4" fill="#999933" fill-rule="evenodd" stroke="none" d="M 188.25 159.884003 C 175.737503 159.82019 164.750809 159.56958 163.835144 159.327057 C 162.919479 159.084564 161.965225 158.349274 161.714584 157.693085 C 161.463943 157.036896 161.651016 153.638824 162.130295 150.141815 C 162.609573 146.644806 164.792786 135.875854 166.981888 126.210785 C 169.170975 116.545715 171.442001 108.156921 172.028625 107.56897 C 172.688019 106.908081 180.400177 106.380707 192.230667 106.187531 C 202.755173 106.015686 212.424072 106.140594 213.717087 106.465118 C 215.010101 106.789642 216.514862 108.055267 217.061005 109.277588 C 217.71373 110.738464 217.72403 115.611938 217.091064 123.5 C 216.561447 130.100006 215.81192 140.174896 215.425415 145.888641 C 214.873398 154.049377 214.323517 156.676483 212.861343 158.138641 C 211.147995 159.85202 209.191223 159.990784 188.25 159.884003 Z"/>
    <path id="path5" fill="#999933" fill-rule="evenodd" stroke="none" d="M 255.5 160 C 233.308395 160 231.88829 159.888306 229.993607 157.993622 C 228.241852 156.241852 228.062546 155.131378 228.580688 149.243622 C 228.907089 145.534637 229.732315 134.950134 230.41452 125.722534 C 231.175903 115.424072 232.126175 108.472992 232.875275 107.722534 C 233.738251 106.858032 240.215073 106.410492 254.992157 106.194336 C 274.307831 105.911804 276.030182 106.030182 277.759369 107.759369 C 279.347168 109.347168 279.815247 112.417847 280.854553 128.065033 C 281.528046 138.204254 282.337463 148.586304 282.653259 151.136261 C 283.130768 154.991577 282.871429 156.128571 281.113739 157.886261 C 279.082001 159.917999 278.088196 160 255.5 160 Z"/>
    <path id="path6" fill="#999933" fill-rule="evenodd" stroke="none" d="M 324.087952 159.800171 C 301.786163 160.079285 299.96933 159.96933 298.23584 158.23584 C 296.675629 156.675629 296.17627 153.607208 295.176331 139.435669 C 294.519104 130.121033 293.713226 119.734863 293.385468 116.355225 C 292.860046 110.937469 293.045319 109.954681 294.951477 108.048523 C 297.048615 105.951385 297.728302 105.895813 317.639008 106.193298 C 335.586884 106.461487 338.320648 106.713654 339.406921 108.201294 C 340.09021 109.136993 342.49762 118.811981 344.756744 129.701294 C 347.015869 140.590576 349.079498 151.113617 349.342621 153.085815 C 349.605713 155.058014 349.428253 157.308014 348.948242 158.085815 C 348.243958 159.227081 343.446198 159.557922 324.087952 159.800171 Z"/>
    <path id="path7" fill="#999933" fill-rule="evenodd" stroke="none" d="M 390.860779 159.986359 C 371.705322 159.998444 368.980774 159.799133 367.123688 158.25 C 365.50061 156.896057 364.262329 152.878967 361.652222 140.5 C 359.796722 131.700012 357.722015 120.926056 357.041779 116.557892 C 355.903503 109.248291 355.947449 108.511597 357.593628 107.307892 C 358.916138 106.340851 364.266998 106 378.126038 106 C 388.435089 106 397.924561 106.401031 399.213715 106.891144 C 401.204956 107.648224 402.661865 111.070984 408.897308 129.641144 C 412.934143 141.663513 416.459106 153.121826 416.730591 155.104065 C 417.161102 158.247406 416.922241 158.78894 414.862091 159.340393 C 413.562927 159.688171 402.76236 159.978821 390.860779 159.986359 Z"/>
    <path id="path8" fill="#999933" fill-rule="evenodd" stroke="none" d="M 460.058868 159.936615 C 448.201477 159.901764 437.560822 159.493378 436.412933 159.029114 C 434.849701 158.396851 433.033112 154.585388 429.174835 143.842499 C 426.341736 135.954132 422.573273 124.838531 420.800476 119.141174 C 417.663757 109.060547 417.628265 108.744995 419.479706 107.391174 C 420.918518 106.339081 425.174683 106.010712 436.941132 106.043884 C 447.625336 106.074036 453.728821 106.525604 456.422089 107.485229 C 458.579254 108.253815 461.583466 110.146545 463.098175 111.691315 C 464.612854 113.236084 467.70163 118.549988 469.962097 123.5 C 472.222595 128.450012 475.395691 135.200012 477.013489 138.5 C 478.631256 141.799988 481.176361 147.36792 482.669281 150.873138 C 485.301727 157.053925 485.326813 157.287842 483.500702 158.623138 C 482.032806 159.696503 476.865631 159.986023 460.058868 159.936615 Z"/>
    <path id="path9" fill="#999933" fill-rule="evenodd" stroke="none" d="M 49.633499 204.547089 C 45.710075 204.753479 41.048771 204.54895 39.275047 204.09259 C 37.501324 203.63623 35.026325 202.573822 33.775047 201.73172 C 32.523773 200.889587 29.606133 198.24295 27.291407 195.850281 C 24.976681 193.457642 22.389181 189.530914 21.541407 187.124268 C 20.693634 184.717621 20 181.455109 20 179.874268 C 20 178.293427 20.9 176.100006 22 175 C 23.888889 173.111115 25.333334 173 48 173 C 70.582458 173 72.116898 173.116913 73.979164 174.979156 C 75.477463 176.477478 75.811958 177.753021 75.355896 180.229156 C 75.024559 182.028137 73.887405 185.524994 72.828888 188 C 71.77037 190.475006 69.013344 194.448578 66.702156 196.8302 C 64.390968 199.211823 61.210075 201.837982 59.633499 202.666138 C 58.056923 203.494263 53.556923 204.340698 49.633499 204.547089 Z"/>
    <path id="path10" fill="#999933" fill-rule="evenodd" stroke="none" d="M 118.73893 205.348114 C 117.507515 205.588226 113.899696 205.165649 110.721558 204.409058 C 107.543411 203.652466 103.318771 201.929688 101.333466 200.580627 C 99.34816 199.231567 96.863686 196.861542 95.812416 195.313904 C 94.761139 193.766266 93.077209 190.924988 92.070343 189 C 91.063469 187.075012 89.92691 183.621338 89.54464 181.325195 C 88.967781 177.860168 89.202431 176.797577 90.924805 175.075195 C 92.907326 173.092682 94.049492 173 116.5 173 C 139.084091 173 140.082336 173.082336 142.112579 175.112579 C 143.69664 176.696655 144.094345 178.031189 143.702301 180.447052 C 143.414734 182.219116 142.591568 185.631195 141.873032 188.029449 C 141.01506 190.893097 138.79747 194.159058 135.412918 197.54361 C 131.570419 201.386108 129.078552 202.978973 125.618538 203.804413 C 123.066162 204.41333 119.970337 205.108002 118.73893 205.348114 Z"/>
    <path id="path11" fill="#999933" fill-rule="evenodd" stroke="none" d="M 188.188034 205.508911 C 185.609619 205.728912 181.797882 205.483398 179.717499 204.963318 C 177.637131 204.443268 174.688782 203.373291 173.165634 202.585663 C 171.642471 201.798004 168.537231 199.136749 166.265076 196.671753 C 163.637894 193.821594 161.563416 190.268982 160.56694 186.913452 C 159.705124 184.011414 159 180.159515 159 178.353668 C 159 176.131012 159.624847 174.735962 160.934265 174.035187 C 162.110626 173.405609 172.102142 173 186.434265 173 C 208.951294 173 210.092346 173.092346 212.075195 175.075195 C 213.797974 176.797974 214.032166 177.859344 213.454193 181.325195 C 213.071289 183.621338 211.712372 187.573364 210.434387 190.107452 C 209.156403 192.641541 206.971237 196.069153 205.578476 197.724365 C 204.185699 199.379578 200.757889 201.718231 197.961121 202.921387 C 195.164352 204.124512 190.766464 205.28891 188.188034 205.508911 Z"/>
    <path id="path12" fill="#999933" fill-rule="evenodd" stroke="none" d="M 257.019836 205.540497 C 254.533936 205.755951 250.349686 205.315857 247.721512 204.562469 C 245.093338 203.809082 241.877533 202.494568 240.575287 201.641296 C 239.273041 200.788025 236.595398 198.122467 234.625 195.717834 C 232.654587 193.313232 230.414917 189.805481 229.647949 187.922913 C 228.880981 186.040314 227.954269 182.829681 227.588577 180.788147 C 227.056015 177.815033 227.32933 176.670685 228.961838 175.038147 C 230.901794 173.098206 232.18045 173 255.5 173 C 278.81955 173 280.098206 173.098206 282.038147 175.038147 C 283.66571 176.66571 283.944855 177.824066 283.423767 180.788147 C 283.06488 182.829681 281.992767 186.299988 281.04129 188.5 C 280.089844 190.700012 277.328827 194.661438 274.905701 197.303192 C 272.046478 200.420349 268.927368 202.64032 266.019836 203.627563 C 263.555756 204.464203 259.505768 205.325043 257.019836 205.540497 Z"/>
    <path id="path13" fill="#999933" fill-rule="evenodd" stroke="none" d="M 326.920959 205.494995 C 323.035553 205.891113 320.036224 205.525818 316.332458 204.205414 C 313.490295 203.192169 309.637878 201.198425 307.771515 199.774902 C 305.905151 198.351349 302.990479 194.557129 301.294495 191.343323 C 299.598511 188.129486 297.904602 183.621338 297.530243 181.325195 C 296.96698 177.870392 297.207489 176.792511 298.924805 175.075195 C 300.908844 173.091156 302.045776 173 324.808868 173 C 343.229584 173 349.03598 173.305817 350.465759 174.351318 C 352.007629 175.478729 352.212799 176.555481 351.704132 180.850311 C 351.368805 183.681549 350.246033 187.916016 349.209076 190.260223 C 348.172119 192.604462 345.793427 196.052734 343.923065 197.923065 C 342.052734 199.793427 338.681824 202.137909 336.43219 203.133026 C 334.182526 204.128143 329.902496 205.19104 326.920959 205.494995 Z"/>
    <path id="path14" fill="#999933" fill-rule="evenodd" stroke="none" d="M 393.934387 205.909149 C 392.59549 205.859161 389.024994 205.155579 386 204.345612 C 381.791138 203.218658 379.298767 201.694244 375.382965 197.851959 C 372.384125 194.909363 369.814972 191.313629 369.176483 189.165466 C 368.577301 187.149475 367.792908 183.637085 367.43335 181.360199 C 366.893738 177.943085 367.14801 176.85199 368.889801 175.110199 C 370.916992 173.083008 371.924286 173 394.5 173 C 417.075714 173 418.083008 173.083008 420.110199 175.110199 C 421.848907 176.848907 422.105042 177.94165 421.565186 181.317719 C 421.204834 183.571228 420.103088 187.234161 419.116852 189.45752 C 418.130615 191.680878 415.328186 195.5495 412.889221 198.054413 C 409.448761 201.587952 407.100189 202.988922 402.411774 204.304413 C 399.088135 205.237 395.273315 205.959106 393.934387 205.909149 Z"/>
    <path id="path15" fill="#999933" fill-rule="evenodd" stroke="none" d="M 465.019836 205.540497 C 462.533936 205.755951 458.34967 205.315857 455.721497 204.562469 C 453.093353 203.809082 449.892365 202.504272 448.608246 201.662872 C 447.324097 200.821472 444.923584 198.415619 443.273743 196.316528 C 441.623901 194.217438 439.513306 191.013306 438.583527 189.196228 C 437.653748 187.379181 436.62149 183.599762 436.289612 180.797546 C 435.787476 176.557617 435.996338 175.475861 437.534241 174.351318 C 438.96402 173.305817 444.770416 173 463.191132 173 C 486.131897 173 487.077454 173.077454 489.124542 175.124542 C 490.906494 176.906494 491.157013 178.026581 490.678009 182.07077 C 490.363953 184.722717 489.433441 188.194916 488.61026 189.786774 C 487.787079 191.378632 485.175507 194.801758 482.806793 197.393707 C 480.026062 200.436493 476.912506 202.645386 474.019836 203.627563 C 471.555756 204.464203 467.505768 205.325043 465.019836 205.540497 Z"/>
</svg>
