<?xml version="1.0" encoding="UTF-8"?>
<svg width="24px" height="24px" viewBox="0 0 24 24" version="1.1" xmlns="http://www.w3.org/2000/svg" xmlns:xlink="http://www.w3.org/1999/xlink">
    <title>icon-filter</title>
    <g id="icon-filter" stroke="none" stroke-width="1" fill="none" fill-rule="evenodd">
        <path d="M17.7142857,15.3170732 C18.8952381,15.3170732 19.8857143,16.3121951 19.8857143,17.5414634 C19.8857143,18.7707317 18.9142857,19.7658537 17.7142857,19.7658537 C16.7398496,19.7658537 15.9021765,19.0828728 15.6385479,18.164858 L15.6,18.0097561 L4.47619048,18.0097561 C4.20952381,18.0097561 4,17.795122 4,17.5219512 C4,17.2791328 4.16554968,17.0825655 4.38962702,17.0418816 L4.47619048,17.0341463 L15.6,17.0341463 C15.8285714,16.0585366 16.6857143,15.3170732 17.7142857,15.3170732 Z M17.7142857,16.2731707 C17.047619,16.2731707 16.4952381,16.8390244 16.4952381,17.5219512 C16.4952381,18.204878 17.047619,18.7707317 17.7142857,18.7707317 C18.3809524,18.7707317 18.9333333,18.204878 18.9333333,17.5219512 C18.9333333,16.8390244 18.3809524,16.2731707 17.7142857,16.2731707 Z M11.8857143,9.63902439 C12.8571429,9.63902439 13.6926514,10.3003914 13.9589947,11.2121884 L14,11.3756098 L19.4285714,11.3756098 C19.6761905,11.3756098 19.9047619,11.6097561 19.9047619,11.8634146 C19.9047619,12.1062331 19.7392122,12.3028004 19.5151349,12.3434842 L19.4285714,12.3512195 L14,12.3512195 C13.7904762,13.3463415 12.9142857,14.0878049 11.8857143,14.0878049 C10.9142857,14.0878049 10.0787772,13.4264378 9.81243386,12.5146408 L9.77142857,12.3512195 L4.47619048,12.3512195 C4.20952381,12.3512195 4,12.1365854 4,11.8634146 C4,11.6205962 4.16554968,11.4240289 4.38962702,11.383345 L4.47619048,11.3756098 L9.77142857,11.3756098 C9.98095238,10.3804878 10.8571429,9.63902439 11.8857143,9.63902439 Z M11.8857143,10.6146341 C11.2190476,10.6146341 10.6666667,11.1804878 10.6666667,11.8634146 C10.6666667,12.5463415 11.2190476,13.1121951 11.8857143,13.1121951 C12.552381,13.1121951 13.1047619,12.5463415 13.1047619,11.8634146 C13.1047619,11.1804878 12.552381,10.6146341 11.8857143,10.6146341 Z M6.19047619,4 C7.16190476,4 7.99741329,4.66136706 8.26375661,5.57316404 L8.3047619,5.73658537 L19.4095238,5.73658537 C19.6761905,5.73658537 19.8857143,5.95121951 19.8857143,6.22439024 C19.8857143,6.46720867 19.7201646,6.66377597 19.4960873,6.70445983 L19.4095238,6.71219512 L8.3047619,6.71219512 C8.0952381,7.70731707 7.21904762,8.44878049 6.19047619,8.44878049 C4.99047619,8.44878049 4.01904762,7.43414634 4.01904762,6.22439024 C4.01904762,5.01463415 4.99047619,4 6.19047619,4 Z M6.19047619,4.97560976 C5.52380952,4.97560976 4.97142857,5.54146341 4.97142857,6.22439024 C4.97142857,6.90731707 5.52380952,7.47317073 6.19047619,7.47317073 C6.85714286,7.47317073 7.40952381,6.90731707 7.40952381,6.22439024 C7.40952381,5.54146341 6.85714286,4.97560976 6.19047619,4.97560976 Z" id="Path-3-Copy" fill="#25265E"></path>
    </g>
</svg>