<?xml version="1.0" encoding="UTF-8"?>
<svg width="24px" height="24px" viewBox="0 0 24 24" version="1.1" xmlns="http://www.w3.org/2000/svg" xmlns:xlink="http://www.w3.org/1999/xlink">
    <title>icon-arrow--up</title>
    <g id="icon-arrow--up" stroke="none" stroke-width="1" fill="none" fill-rule="evenodd">
        <path d="M11.5035851,6.08859116 C11.6984533,5.95359511 11.9678777,5.97288026 12.141444,6.14644661 L12.141444,6.14644661 L16.4293346,10.4343372 L16.4871901,10.5035851 C16.6221861,10.6984533 16.602901,10.9678777 16.4293346,11.141444 L16.4293346,11.141444 L16.3600868,11.1992995 C16.1652186,11.3342955 15.8957942,11.3150104 15.7222279,11.141444 L15.7222279,11.141444 L12.287,7.706 L12.2878906,17.4 C12.2878906,17.6761424 12.064033,17.9 11.7878906,17.9 C11.5424307,17.9 11.3382823,17.7231248 11.2959463,17.4898756 L11.2878906,17.4 L11.287,7.708 L7.85355339,11.141444 L7.7843055,11.1992995 C7.58943736,11.3342955 7.32001296,11.3150104 7.14644661,11.141444 C6.95118446,10.9461819 6.95118446,10.6295994 7.14644661,10.4343372 L7.14644661,10.4343372 L11.4343372,6.14644661 Z" id="Combined-Shape" fill="#25265E" fill-rule="nonzero"></path>
    </g>
</svg>