<?xml version="1.0" encoding="UTF-8"?>
<svg width="24px" height="24px" viewBox="0 0 24 24" version="1.1" xmlns="http://www.w3.org/2000/svg" xmlns:xlink="http://www.w3.org/1999/xlink">
    <title>icon-info</title>
    <defs>
        <filter id="filter-1">
            <feColorMatrix in="SourceGraphic" type="matrix" values="0 0 0 0 0.145098 0 0 0 0 0.149020 0 0 0 0 0.368627 0 0 0 1.000000 0"></feColorMatrix>
        </filter>
    </defs>
    <g id="icon-info" stroke="none" stroke-width="1" fill="none" fill-rule="evenodd">
        <g id="fa-seedling-copy-41" transform="translate(3.000000, 3.000000)" filter="url(#filter-1)">
            <g id="ion-help-circle-outline-copy" fill="#000000" fill-rule="nonzero">
                <g id="Icon">
                    <path d="M8.95800185,0.219129019 C4.13165565,0.219129019 0.219129019,4.13165565 0.219129019,8.95800185 C0.219129019,13.784348 4.13165565,17.6968747 8.95800185,17.6968747 C13.784348,17.6968747 17.6968747,13.784348 17.6968747,8.95800185 C17.6968747,6.64030867 16.7761746,4.41754217 15.1373181,2.77868561 C13.4984615,1.13982905 11.275695,0.219129019 8.95800185,0.219129019 Z M8.95800185,1.67560782 C10.8894128,1.67560782 12.7417182,2.44285785 14.107432,3.80857165 C15.4731458,5.17428545 16.2403959,7.02659087 16.2403959,8.95800185 C16.2403959,12.979957 12.979957,16.2403959 8.95800185,16.2403959 C4.93604668,16.2403959 1.67560782,12.979957 1.67560782,8.95800185 C1.67560782,4.93604668 4.93604668,1.67560782 8.95800185,1.67560782 Z" id="Icon-Path"></path>
                    <path d="M8.94984064,3.8603783 C9.52184824,3.85305157 10.0657834,3.94688002 10.4393822,4.12472328 C11.4464054,4.6040663 12.1440492,5.35545182 12.1440492,6.57028691 C12.1440492,7.84855133 11.6193563,8.46408484 10.2063696,9.41166859 C9.58243352,9.83009553 9.36763651,10.2308008 9.36763651,10.7786004 C9.36763651,11.1305214 9.08234811,11.4158098 8.73042703,11.4158098 C8.37850596,11.4158098 8.09321756,11.1305214 8.09321756,10.7786004 C8.09321756,9.80495147 8.52055313,9.00775403 9.49655151,8.35322543 C10.5834888,7.62429844 10.8696303,7.28861704 10.8696303,6.57028691 C10.8696303,5.9613299 10.5029646,5.56641886 9.89163254,5.27542479 C9.71467434,5.19118784 9.35806479,5.12967293 8.96755891,5.13467331 C8.44855416,5.14245838 8.02654735,5.26384365 7.69934177,5.52743396 C7.62056538,5.59081678 7.54914649,5.65656121 7.48460597,5.72439191 C7.19618237,6.02751891 7.07782234,6.31420823 7.05121784,6.48969653 L7.04564062,6.54394408 C7.02876783,6.89546045 6.73012942,7.16674267 6.37861306,7.14986988 C6.02709669,7.13299709 5.75581447,6.83435868 5.77268726,6.48284232 C5.79418601,6.03495166 6.00531431,5.43028495 6.56134211,4.84591168 C6.66471236,4.73727176 6.77767084,4.63328821 6.90014391,4.53474756 C7.47549395,4.07125675 8.16785763,3.87210651 8.94984064,3.8603783 Z" id="Icon-Path"></path>
                    <circle id="Icon-Oval" cx="8.68491207" cy="13.1453784" r="1"></circle>
                </g>
            </g>
        </g>
    </g>
</svg>