<?xml version="1.0" encoding="UTF-8"?>
<svg width="24px" height="24px" viewBox="0 0 24 24" version="1.1" xmlns="http://www.w3.org/2000/svg" xmlns:xlink="http://www.w3.org/1999/xlink">
    <title>icon-flag--united-kingdom</title>
    <g id="icon-flag--united-kingdom" stroke="none" stroke-width="1" fill="none" fill-rule="evenodd">
        <g id="united-flag--kingdom">
            <polygon id="Fill-1" fill="#FFFFFF" points="2.4e-05 23.997256 24.000024 23.997256 24.000024 5.6e-05 2.4e-05 5.6e-05"></polygon>
            <polygon id="Fill-2" fill="#CF142B" points="9.58848 -4.54747351e-15 9.58848 9.59368 0 9.59368 0 14.39112 9.58848 14.39112 9.58848 23.99728 14.38648 23.99728 14.38648 14.39112 24 14.39112 24 9.59368 14.38648 9.59368 14.38648 -4.54747351e-15"></polygon>
            <polygon id="Fill-3" fill="#00247D" points="15.9864 -2.27373675e-15 15.9864 7.76792 24 3.76032 24 -2.27373675e-15"></polygon>
            <polygon id="Fill-4" fill="#00247D" points="15.9864 23.99724 24 23.99724 24 20.23692 15.9864 16.22932"></polygon>
            <polygon id="Fill-5" fill="#00247D" points="2.4e-05 20.224352 2.4e-05 23.997232 7.988584 23.997232 7.988584 16.229312"></polygon>
            <polygon id="Fill-6" fill="#00247D" points="2.4e-05 -2.27373675e-15 2.4e-05 3.77288 7.988584 7.76792 7.988584 -2.27373675e-15"></polygon>
            <polygon id="Fill-7" fill="#CF142B" points="17.344032 7.998912 20.008672 7.998832 24.000032 6.002352 24.000032 4.664352"></polygon>
            <polygon id="Fill-8" fill="#CF142B" points="6.630864 15.997968 3.966224 15.997968 6.4e-05 17.985008 6.4e-05 19.327328 6.655984 15.997968"></polygon>
            <polygon id="Fill-9" fill="#CF142B" points="2.4e-05 7.343504 1.322824 8.005104 3.987384 8.005104 2.4e-05 6.008544"></polygon>
            <polygon id="Fill-10" fill="#CF142B" points="19.979016 15.994872 23.999976 18.008232 23.999976 16.673272 22.643656 15.994872"></polygon>
        </g>
    </g>
</svg>