<?xml version="1.0" encoding="UTF-8"?>
<!-- Generated by Pixelmator Pro 3.3.5 -->
<svg width="512" height="512" viewBox="0 0 512 512" xmlns="http://www.w3.org/2000/svg">
    <path id="Shape" fill="#999933" fill-rule="evenodd" stroke="none" d="M 322.5 303.598267 C 310.5289 303.877563 305.581696 303.555481 298 302.003113 C 292.774994 300.933289 285.799988 299.086243 282.5 297.898529 C 279.200012 296.710815 273.125 294.039246 269 291.96167 C 264.875 289.884094 258.282104 285.912415 254.349121 283.135681 C 250.416138 280.358978 244.20903 275.0979 240.555557 271.444458 C 236.902084 267.790955 231.641312 261.583862 228.864975 257.650879 C 226.088623 253.717896 222.334976 247.575012 220.523529 244 C 218.712082 240.424988 215.888458 233.674988 214.248795 229 C 212.609146 224.325012 210.487411 216.225006 209.533829 211 C 208.580246 205.774994 207.816971 196.983429 207.837646 191.463165 C 207.860504 185.360748 208.695908 177.399323 209.968765 171.153259 C 211.120209 165.503052 213.111206 158.094635 214.393219 154.690094 C 215.675217 151.285522 218.540939 144.887512 220.761475 140.47226 C 222.982025 136.057007 227.46553 128.856995 230.724838 124.47226 C 233.984146 120.087524 239.434174 113.931824 242.835999 110.792969 C 246.237839 107.654114 251.891083 103.038025 255.398743 100.535004 C 258.906403 98.031982 266.512421 93.72168 272.300964 90.956543 C 278.089508 88.191406 287.252319 84.785339 292.662781 83.387512 C 298.444275 81.893799 306.622833 80.638245 312.5 80.342163 C 321.577393 79.884857 322.915192 80.053406 327 82.169189 C 330.421417 83.941345 332.099213 85.698425 334 89.5 C 336.491608 94.483185 336.500854 94.607544 336.756226 126.5 C 336.969025 153.076477 337.279358 159.093201 338.587219 162 C 339.453339 163.924988 341.514679 166.911804 343.167969 168.63736 C 344.821259 170.362885 347.822327 172.492401 349.836975 173.369568 C 352.890259 174.698975 358.826569 175.009033 385.5 175.232239 C 417.381439 175.498993 417.518524 175.509277 422.5 178 C 426.299622 179.899811 428.060303 181.580322 429.833923 185 C 431.960327 189.099854 432.120483 190.389191 431.635071 199.5 C 431.333984 205.151215 430.014862 213.751953 428.601807 219.277344 C 427.226532 224.654877 424.117004 233.243652 421.691711 238.363495 C 419.266418 243.483307 414.880859 251.233521 411.945984 255.586121 C 409.011139 259.938782 403.210175 266.899719 399.054932 271.054932 C 394.899719 275.210144 387.938751 281.011139 383.586121 283.945984 C 379.233521 286.880859 371.483307 291.266418 366.363495 293.691711 C 361.243652 296.117004 352.654877 299.259399 347.277344 300.674805 C 339.37323 302.755249 334.62616 303.315369 322.5 303.598267 Z"/>
    <path id="path1" fill="#999933" fill-rule="evenodd" stroke="none" d="M 434 144.705475 C 397.576935 144.863007 385.392151 144.607544 381.74939 143.609894 C 379.136536 142.894318 376.051178 141.451874 374.892975 140.404419 C 373.734802 139.356995 371.908051 136.777496 370.833557 134.67218 C 369.547516 132.152374 368.519287 127.026794 367.824432 119.67218 C 367.208038 113.14798 366.92099 92.27478 367.13446 69.5 C 367.5 30.5 367.5 30.5 370 25.5 C 371.900787 21.698425 373.578583 19.941345 377 18.169189 C 381.084808 16.053406 382.422607 15.884857 391.5 16.342163 C 397.357147 16.637238 405.550629 17.892578 411.277344 19.372314 C 416.654877 20.76181 425.243652 23.882996 430.363495 26.308289 C 435.483307 28.733582 443.233521 33.119141 447.586121 36.054016 C 451.938751 38.988861 458.899719 44.789825 463.054932 48.945068 C 467.210175 53.100281 473.011139 60.061249 475.945984 64.413879 C 478.880859 68.766479 483.266418 76.516693 485.691711 81.636505 C 488.117004 86.756348 491.226532 95.345123 492.601807 100.722656 C 494.014862 106.248047 495.333984 114.848785 495.635071 120.5 C 496.120483 129.610809 495.960327 130.900146 493.833923 135 C 492.060303 138.419678 490.299622 140.100189 486.5 142 C 481.5 144.5 481.5 144.5 434 144.705475 Z"/>
    <path id="path2" fill="#999933" fill-rule="evenodd" stroke="none" d="M 63.949322 432 C 64.498207 212.217957 64.513641 211.470703 66.595161 207 C 67.747498 204.524994 70.138809 201.092865 71.909187 199.372986 C 73.679565 197.653137 76.997169 195.403137 79.281631 194.372986 C 83.029419 192.682983 86.225891 192.5 112 192.5 C 137.774109 192.5 140.970581 192.682983 144.718369 194.372986 C 147.002838 195.403137 150.320435 197.653137 152.090805 199.372986 C 153.861191 201.092865 156.252502 204.524994 157.404846 207 C 159.486359 211.470703 159.501801 212.217957 159.775345 321.75 L 160.050674 432 L 112 432 L 63.949322 432 Z"/>
    <path id="path3" fill="#999933" fill-rule="evenodd" stroke="none" d="M 16 496 L 16 464 L 256 464 L 496 464 L 496 480 L 496 496 L 256 496 L 16 496 Z"/>
    <path id="path4" fill="#999933" fill-rule="evenodd" stroke="none" d="M 207.890137 432 C 208.488541 341.238281 208.578751 339.330872 210.595154 335 C 211.747498 332.524994 214.138809 329.092834 215.909195 327.372986 C 217.679565 325.653137 220.997162 323.403137 223.281631 322.372986 C 227.029419 320.682983 230.225891 320.5 256 320.5 C 281.774109 320.5 284.970581 320.682983 288.718353 322.372986 C 291.002838 323.403137 294.320435 325.653137 296.09082 327.372986 C 297.861176 329.092834 300.252502 332.524994 301.404846 335 C 303.421265 339.330872 303.511475 341.238281 303.804932 385.75 L 304.109863 432 L 256 432 L 207.890137 432 Z"/>
    <path id="path5" fill="#999933" fill-rule="evenodd" stroke="none" d="M 351.807129 432 C 352.507965 389.828247 352.763458 387.029114 354.6185 383 C 355.757996 380.524994 358.138824 377.092834 359.90918 375.372986 C 361.679565 373.653137 364.997162 371.403137 367.281647 370.372986 C 371.029419 368.682983 374.225891 368.5 400 368.5 C 425.774109 368.5 428.970581 368.682983 432.718353 370.372986 C 435.002838 371.403137 438.320435 373.653137 440.09082 375.372986 C 441.861176 377.092834 444.242004 380.524994 445.3815 383 C 447.236542 387.029114 447.492035 389.828247 447.82309 409.75 L 448.192871 432 L 400 432 L 351.807129 432 Z"/>
    <path id="path6" fill="#999933" fill-rule="evenodd" stroke="none" d="M 16 48 L 16 16 L 128 16 L 240 16 L 240 32 L 240 48 L 128 48 L 16 48 Z"/>
    <path id="path7" fill="#999933" fill-rule="evenodd" stroke="none" d="M 16 112 L 16 80 L 88 80 L 160 80 L 160 96 L 160 112 L 88 112 L 16 112 Z"/>
</svg>
