<?xml version="1.0" encoding="UTF-8"?>
<svg width="24px" height="24px" viewBox="0 0 24 24" version="1.1" xmlns="http://www.w3.org/2000/svg" xmlns:xlink="http://www.w3.org/1999/xlink">
    <title>icon-social-twitter</title>
    <g id="icon-social-twitter" stroke="none" stroke-width="1" fill="none" fill-rule="evenodd">
        <path d="M24,2.8422024 C23.118,3.32451553 22.168,3.64933867 21.172,3.79698554 C22.19,3.04644725 22.968,1.86035066 23.338,0.445401415 C22.386,1.13934174 21.332,1.64380191 20.21,1.91448785 C19.314,0.735773608 18.032,0 16.618,0 C13.438,0 11.102,3.64933867 11.82,7.43894186 C7.73,7.18548139 4.1,4.77391572 1.672,1.10981237 C0.382,3.83143648 1.004,7.3946478 3.196,9.19840049 C2.39,9.16641034 1.632,8.89326361 0.968,8.44047985 C0.914,11.2457705 2.55,13.8714242 4.918,14.4570901 C4.226,14.6884036 3.466,14.7425408 2.694,14.5604429 C3.32,16.9670871 5.142,18.7167026 7.294,18.7659182 C5.22,20.7640726 2.614,21.6573362 0,21.2783759 C2.18,22.998462 4.766,24 7.546,24 C16.69,24 21.854,14.4989234 21.542,5.97723777 C22.506,5.12580744 23.34,4.05782836 24,2.8422024 L24,2.8422024 Z" id="twitter-copy-3" fill="#000000" fill-rule="nonzero"></path>
    </g>
</svg>