<?xml version="1.0" encoding="UTF-8"?>
<svg width="30px" height="36px" viewBox="0 0 30 36" version="1.1" xmlns="http://www.w3.org/2000/svg" xmlns:xlink="http://www.w3.org/1999/xlink">
    <title>icon-doc-archive-dot</title>
    <g id="icon-doc-archive-dot" stroke="none" stroke-width="1" fill="none" fill-rule="evenodd">
        <path d="M30,31.8 C30,34.1195959 28.1195959,36 25.8,36 L4.2,36 C1.88040405,36 0,34.1195959 0,31.8 L0,4.2 C0,1.88040405 1.88040405,0 4.2,0 L18,0 L18,7.58786797 C18,9.90746391 20.0925361,12 22.412132,12 L22.412132,12 L30,12 L30,31.8 Z" id="Combined-Shape-2" fill="#25265E" opacity="0.297712054"></path>
        <path d="M17.9809134,0 L25.5808502,0 C27.9041356,0 30,2.09586437 30,4.41914976 L30,12.0190866 L17.9809134,0 Z" id="Path-Copy" fill="#25265E" opacity="0.498302641" transform="translate(23.990457, 6.009543) scale(-1, -1) translate(-23.990457, -6.009543) "></path>
        <g id="status/dots/ok" transform="translate(2.528738, 2.814940)" fill="#25265E" fill-opacity="0.3046875" stroke="#25265E">
            <circle id="Oval-Copy-7" cx="2.09253023" cy="2.09253023" r="1.59253023"></circle>
        </g>
        <path d="M10.565167,16.8254199 L10.1651671,18.0817907 L10.1651671,18.2612722 L10.565167,19.3830319 C10.6051671,19.4727726 10.685167,19.517643 10.7651671,19.517643 L10.7651671,19.517643 L12.3340914,19.517643 C12.3740914,19.517643 12.4451671,19.4279022 12.4451671,19.3830319 L12.4451671,19.3830319 L12.965167,18.2612722 C13.005167,18.2164018 13.005167,18.1266611 12.965167,18.0817907 L12.965167,18.0817907 L12.4451671,16.8254199 L13.7251671,16.8254199 C14.4051671,16.8254199 14.9251671,17.4087349 14.9251671,18.1715315 L14.9251671,18.1715315 L14.9251671,24.6777373 C14.925167,25.0815707 15.165167,25.3956634 15.485167,25.5302746 L15.485167,25.5302746 L15.7651671,25.6648857 C16.245167,25.8443673 16.565167,26.3379415 16.565167,26.9212565 L16.565167,26.9212565 L16.565167,28.9404238 C16.565167,29.7032204 16.0451671,30.2865354 15.3651671,30.2865354 L15.3651671,30.2865354 L8.56516706,30.2865354 C7.88516705,30.2865354 7.36516706,29.7032204 7.36516706,28.9404238 L7.36516706,28.9404238 L7.36516706,18.1715315 C7.36516706,17.4087349 7.88516705,16.8254199 8.56516706,16.8254199 L8.56516706,16.8254199 L10.565167,16.8254199 Z M16.8634988,17.6194524 C17.5434988,17.6194524 18.0634988,18.1394524 18.0234988,18.8194524 L18.0234988,18.8194524 L18.0234988,27.2194524 C18.0234988,27.6194524 17.8634988,27.9394524 17.5434988,28.1794524 C17.5034988,28.2194524 17.4634988,28.2194524 17.4234988,28.2194524 C17.3834988,28.2194524 17.3834988,28.1794524 17.3434988,28.1794524 C17.2634988,28.1794524 17.2234988,28.0994524 17.2234988,28.0194524 L17.2234988,28.0194524 L17.2234988,26.2194524 C17.2234988,25.5794524 16.8234988,24.9794524 16.1834988,24.7394524 L16.1834988,24.7394524 L15.9834988,24.6194524 C15.9834988,24.6194524 15.9434988,24.5794524 15.9034988,24.5794524 C15.8634988,24.5394524 15.7834988,24.4994524 15.7834988,24.4194524 L15.7834988,24.4194524 L15.6634988,23.6194524 L15.6634988,18.4194524 C15.6634988,18.2594524 15.6234988,18.0594524 15.5434988,17.8994524 C15.5434988,17.8194524 15.5434988,17.7394524 15.5834988,17.6994524 C15.6234988,17.6594524 15.6634988,17.6194524 15.7434988,17.6194524 L15.7434988,17.6194524 Z M11.8906117,26.4194812 L11.1583879,26.4194812 C10.9387208,26.4194812 10.792276,26.5507149 10.792276,26.7475654 C10.792276,26.9444159 10.9387208,27.0756496 11.1583879,27.0756496 L11.1583879,27.0756496 L11.8906117,27.0756496 C12.1102788,27.0756496 12.2567236,26.9444159 12.2567236,26.7475654 C12.2567236,26.5507149 12.1102788,26.4194812 11.8906117,26.4194812 L11.8906117,26.4194812 Z M11.8906117,25.168459 L11.1583879,25.168459 C10.9387208,25.168459 10.792276,25.2996926 10.792276,25.4965431 C10.792276,25.6933936 10.9387208,25.8246273 11.1583879,25.8246273 L11.1583879,25.8246273 L11.8906117,25.8246273 C12.1102788,25.8246273 12.2567236,25.6933936 12.2567236,25.4965431 C12.2567236,25.2996926 12.1102788,25.168459 11.8906117,25.168459 L11.8906117,25.168459 Z M11.8906117,23.9174367 L11.1583879,23.9174367 C10.9387207,23.9174367 10.792276,24.0486704 10.792276,24.2455209 C10.792276,24.4423714 10.9387207,24.573605 11.1583879,24.573605 L11.1583879,24.573605 L11.8906117,24.573605 C12.1102788,24.573605 12.2567235,24.4423713 12.2567235,24.2455209 C12.2567235,24.0486704 12.1102788,23.9174367 11.8906117,23.9174367 L11.8906117,23.9174367 Z M11.8906116,22.6664144 L11.1583879,22.6664144 C10.9387207,22.6664144 10.792276,22.7976481 10.792276,22.9944986 C10.792276,23.1913491 10.9387207,23.3225828 11.1583879,23.3225828 L11.1583879,23.3225828 L11.8906116,23.3225828 C12.1102788,23.3225828 12.2567235,23.1913491 12.2567235,22.9944986 C12.2567235,22.7976481 12.1102788,22.6664144 11.8906116,22.6664144 L11.8906116,22.6664144 Z M11.8906116,21.4153921 L11.1583879,21.4153921 C10.9387207,21.4153921 10.792276,21.5466258 10.792276,21.7434763 C10.792276,21.9403268 10.9387207,22.0715605 11.1583879,22.0715605 L11.1583879,22.0715605 L11.8906116,22.0715605 C12.1102788,22.0715605 12.2567235,21.9403268 12.2567235,21.7434763 C12.2567235,21.5466258 12.1102788,21.4153921 11.8906116,21.4153921 L11.8906116,21.4153921 Z M11.8906116,20.1643699 L11.1583879,20.1643699 C10.9387207,20.1643699 10.792276,20.2956035 10.792276,20.492454 C10.792276,20.6893045 10.9387207,20.8205382 11.1583879,20.8205382 L11.1583879,20.8205382 L11.8906116,20.8205382 C12.1102788,20.8205382 12.2567235,20.6893045 12.2567235,20.492454 C12.2567235,20.2956035 12.1102788,20.1643699 11.8906116,20.1643699 L11.8906116,20.1643699 Z M11.9057891,17.477499 L11.9057891,17.5142472 L12.2412999,18.0287216 L12.0176261,18.3410811 L11.6716758,18.9626087 L11.3860373,18.9626087 L11.0949715,18.3778292 L10.8712977,18.0287216 L11.15089,17.5142472 L11.15089,17.477499 L11.9057891,17.477499 Z" id="Shape" fill="#25265E" fill-rule="nonzero"></path>
    </g>
</svg>