<?xml version="1.0" encoding="UTF-8"?>
<svg width="24px" height="24px" viewBox="0 0 24 24" version="1.1" xmlns="http://www.w3.org/2000/svg" xmlns:xlink="http://www.w3.org/1999/xlink">
    <title>icon-arrow-right</title>
    <g id="icon-arrow-right" stroke="none" stroke-width="1" fill="none" fill-rule="evenodd">
        <path d="M13.132743,7.08859116 L13.2019909,7.14644661 L17.4898815,11.4343372 C17.6634479,11.6079036 17.682733,11.877328 17.547737,12.0721961 L17.4898815,12.141444 L13.2019909,16.4293346 C13.0067287,16.6245968 12.6901463,16.6245968 12.4948841,16.4293346 C12.3213178,16.2557683 12.3020326,15.9863439 12.4370287,15.7914757 L12.4948841,15.7222279 L15.816,12.4 L6.5,12.4007813 C6.22385763,12.4007813 6,12.1769236 6,11.9007813 C6,11.6553214 6.17687516,11.4511729 6.41012437,11.4088369 L6.5,11.4007813 L16.042,11.4 L12.4948841,7.85355339 C12.3213178,7.67998704 12.3020326,7.41056264 12.4370287,7.2156945 L12.4948841,7.14644661 C12.6684505,6.97288026 12.9378749,6.95359511 13.132743,7.08859116 Z" id="Path" fill="#25265E" fill-rule="nonzero"></path>
    </g>
</svg>