<?xml version="1.0" encoding="UTF-8"?>
<svg width="16px" height="16px" viewBox="0 0 16 16" version="1.1" xmlns="http://www.w3.org/2000/svg" xmlns:xlink="http://www.w3.org/1999/xlink">
    <title>journey-warehouse</title>
    <g id="journey-warehouse" stroke="none" stroke-width="1" fill="none" fill-rule="evenodd">
        <path d="M12.6,10.2498173 L3.41,10.2498173 C3.3,10.2498173 3.21,10.3341965 3.21,10.4373265 L3.2075,11.5623813 C3.2075,11.6655113 3.2975,11.7498904 3.4075,11.7498904 L12.6,11.7498904 C12.71,11.7498904 12.8,11.6655113 12.8,11.5623813 L12.8,10.4373265 C12.8,10.3341965 12.71,10.2498173 12.6,10.2498173 Z M12.6,12.4999269 L3.4025,12.4999269 C3.2925,12.4999269 3.2025,12.584306 3.2025,12.6874361 L3.2,13.8124909 C3.2,13.9156209 3.29,14 3.4,14 L12.6,14 C12.71,14 12.8,13.9156209 12.8,13.8124909 L12.8,12.6874361 C12.8,12.584306 12.71,12.4999269 12.6,12.4999269 Z M12.6,7.99970776 L3.415,7.99970776 C3.305,7.99970776 3.215,8.08408687 3.215,8.18721689 L3.2125,9.31227169 C3.2125,9.41540171 3.3025,9.49978082 3.4125,9.49978082 L12.6,9.49978082 C12.71,9.49978082 12.8,9.41540171 12.8,9.31227169 L12.8,8.18721689 C12.8,8.08408687 12.71,7.99970776 12.6,7.99970776 Z M15.2625,4.74173658 L8.46,2.08613849 C8.16470062,1.97128717 7.83279938,1.97128717 7.5375,2.08613849 L0.7375,4.74173658 C0.2925,4.91752639 0,5.32535875 0,5.7800684 L0,13.8124909 C0,13.9156209 0.09,14 0.2,14 L2.2,14 C2.31,14 2.4,13.9156209 2.4,13.8124909 L2.4,7.99970776 C2.4,7.58718767 2.765,7.24967123 3.215,7.24967123 L12.785,7.24967123 C13.235,7.24967123 13.6,7.58718767 13.6,7.99970776 L13.6,13.8124909 C13.6,13.9156209 13.69,14 13.8,14 L15.8,14 C15.91,14 16,13.9156209 16,13.8124909 L16,5.7800684 C16,5.32535875 15.7075,4.91752639 15.2625,4.74173658 Z" id="fa-solid:warehouse-copy" fill="#FFFFFF" fill-rule="nonzero"></path>
    </g>
</svg>