<?xml version="1.0" encoding="UTF-8"?>
<svg width="16px" height="16px" viewBox="0 0 16 16" version="1.1" xmlns="http://www.w3.org/2000/svg" xmlns:xlink="http://www.w3.org/1999/xlink">
    <title>journey-ship</title>
    <g id="journey-ship" stroke="none" stroke-width="1" fill="none" fill-rule="evenodd">
        <g id="Group" transform="translate(0.000000, 0.750000)" fill="#FFFFFF" fill-rule="nonzero">
            <path d="M12.4154,10.3510833 L14.1657,8.40630556 C14.588175,7.93686111 14.41425,7.13488889 13.8448,6.93152778 L12.8,6.55838889 L12.8,2.66666667 C12.8,2.17575 12.441825,1.77777778 12,1.77777778 L10.4,1.77777778 L10.4,0.666666667 C10.4,0.298472222 10.131375,-2.39808173e-14 9.8,-2.39808173e-14 L6.2,-2.39808173e-14 C5.868625,-2.39808173e-14 5.6,0.298472222 5.6,0.666666667 L5.6,1.77777778 L4,1.77777778 C3.558175,1.77777778 3.2,2.17575 3.2,2.66666667 L3.2,6.55838889 L2.1552,6.93152778 C1.586375,7.13466667 1.41135,7.93633333 1.8343,8.40630556 L3.5846,10.3510833 C3.1457,11.5635278 2.139675,12.4444444 0.6,12.4444444 C0.268625,12.4444444 0,12.7429167 0,13.1111111 L0,13.5555556 C0,13.92375 0.268625,14.2222222 0.6,14.2222222 C2.125575,14.2222222 3.287475,13.6497222 4.18145,12.5723333 C4.541925,13.5397778 5.400525,14.2222222 6.4,14.2222222 L9.6,14.2222222 C10.599475,14.2222222 11.458075,13.5397778 11.81855,12.5723333 C12.712375,13.6495556 13.8742,14.2222222 15.4,14.2222222 C15.731375,14.2222222 16,13.92375 16,13.5555556 L16,13.1111111 C16,12.7429167 15.731375,12.4444444 15.4,12.4444444 C13.879575,12.4444444 12.86145,11.5833056 12.4154,10.3510833 Z M4.8,3.55555556 L11.2,3.55555556 L11.2,5.98697222 L8.2448,4.93155556 C8.08561173,4.87469468 7.91438827,4.87469468 7.7552,4.93155556 L4.8,5.98697222 L4.8,3.55555556 Z" id="fa-ship-copy"></path>
        </g>
    </g>
</svg>