<?xml version="1.0" encoding="UTF-8"?>
<svg width="16px" height="16px" viewBox="0 0 16 16" version="1.1" xmlns="http://www.w3.org/2000/svg" xmlns:xlink="http://www.w3.org/1999/xlink">
    <title>journey-qr-code</title>
    <g id="journey-qr-code" stroke="none" stroke-width="1" fill="none" fill-rule="evenodd">
        <path d="M6.33333333,4.19444444 L6.33333333,6.19444444 L4.33333333,6.19444444 L4.33333333,4.19444444 L6.33333333,4.19444444 M7.33333333,3.19444444 L3.33333333,3.19444444 L3.33333333,7.19444444 L7.33333333,7.19444444 L7.33333333,3.19444444 L7.33333333,3.19444444 Z M6.33333333,9.52777778 L6.33333333,11.5277778 L4.33333333,11.5277778 L4.33333333,9.52777778 L6.33333333,9.52777778 M7.33333333,8.52777778 L3.33333333,8.52777778 L3.33333333,12.5277778 L7.33333333,12.5277778 L7.33333333,8.52777778 L7.33333333,8.52777778 Z M11.6666667,4.19444444 L11.6666667,6.19444444 L9.66666667,6.19444444 L9.66666667,4.19444444 L11.6666667,4.19444444 M12.6666667,3.19444444 L8.66666667,3.19444444 L8.66666667,7.19444444 L12.6666667,7.19444444 L12.6666667,3.19444444 L12.6666667,3.19444444 Z M8.66666667,8.52777778 L9.66666667,8.52777778 L9.66666667,9.52777778 L8.66666667,9.52777778 L8.66666667,8.52777778 Z M9.66666667,9.52777778 L10.6666667,9.52777778 L10.6666667,10.5277778 L9.66666667,10.5277778 L9.66666667,9.52777778 Z M10.6666667,8.52777778 L11.6666667,8.52777778 L11.6666667,9.52777778 L10.6666667,9.52777778 L10.6666667,8.52777778 Z M8.66666667,10.5277778 L9.66666667,10.5277778 L9.66666667,11.5277778 L8.66666667,11.5277778 L8.66666667,10.5277778 Z M9.66666667,11.5277778 L10.6666667,11.5277778 L10.6666667,12.5277778 L9.66666667,12.5277778 L9.66666667,11.5277778 Z M10.6666667,10.5277778 L11.6666667,10.5277778 L11.6666667,11.5277778 L10.6666667,11.5277778 L10.6666667,10.5277778 Z M11.6666667,9.52777778 L12.6666667,9.52777778 L12.6666667,10.5277778 L11.6666667,10.5277778 L11.6666667,9.52777778 Z M11.6666667,11.5277778 L12.6666667,11.5277778 L12.6666667,12.5277778 L11.6666667,12.5277778 L11.6666667,11.5277778 Z M14.6666667,4.52777778 L13.3333333,4.52777778 L13.3333333,2.52777778 L11.3333333,2.52777778 L11.3333333,1.19444444 L14.6666667,1.19444444 L14.6666667,4.52777778 Z M14.6666667,14.5277778 L14.6666667,11.1944444 L13.3333333,11.1944444 L13.3333333,13.1944444 L11.3333333,13.1944444 L11.3333333,14.5277778 L14.6666667,14.5277778 Z M1.33333333,14.5277778 L4.66666667,14.5277778 L4.66666667,13.1944444 L2.66666667,13.1944444 L2.66666667,11.1944444 L1.33333333,11.1944444 L1.33333333,14.5277778 Z M1.33333333,1.19444444 L1.33333333,4.52777778 L2.66666667,4.52777778 L2.66666667,2.52777778 L4.66666667,2.52777778 L4.66666667,1.19444444 L1.33333333,1.19444444 Z" id="qr_code_scanner-24px-copy-2" fill="#FFFFFF" fill-rule="nonzero"></path>
    </g>
</svg>