<?xml version="1.0" encoding="UTF-8"?>
<svg width="24px" height="20px" viewBox="0 0 24 20" version="1.1" xmlns="http://www.w3.org/2000/svg" xmlns:xlink="http://www.w3.org/1999/xlink">
    <title>slide-left</title>
    <g id="slide-left" stroke="none" stroke-width="1" fill="none" fill-rule="evenodd">
        <path d="M11.678596,18.3466577 C12.071435,18.6996731 12.1003858,19.3006417 11.7432595,19.6889586 C11.4136044,20.047405 10.8702152,20.099362 10.479589,19.8275782 L10.3853271,19.7528777 L0.31465678,10.70311 C-0.074918281,10.3530277 -0.102745071,9.76566867 0.23117641,9.38168967 L0.31465678,9.29688999 L10.3853271,0.247122305 C10.7781661,-0.105893089 11.3861331,-0.0772755369 11.7432595,0.311041397 C12.0729146,0.669487797 12.0736045,1.20912851 11.7627815,1.56768534 L11.678596,1.65334232 L2.3908229,9.99980435 L11.678596,18.3466577 Z" id="Path-2" fill="#5DBCCF" fill-rule="nonzero"></path>
        <path d="M13.8563565,8.97677454 C14.4086413,8.97677454 14.8563565,9.42448979 14.8563565,9.97677454 C14.8563565,10.4896104 14.4703163,10.9122817 13.9729776,10.9700468 L13.8563565,10.9767745 L1.19891241,10.9767745 C0.646627661,10.9767745 0.198912411,10.5290593 0.198912411,9.97677454 C0.198912411,9.4639387 0.584952601,9.04126737 1.08229129,8.98350227 L1.19891241,8.97677454 L13.8563565,8.97677454 Z" id="Path-2" fill="#5DBCCF" fill-rule="nonzero"></path>
        <circle id="Oval" fill="#5DBCCF" cx="19.9742262" cy="9.97677454" r="1"></circle>
        <circle id="Oval-Copy-2" fill="#5DBCCF" cx="23" cy="9.97677454" r="1"></circle>
        <circle id="Oval-Copy" fill="#5DBCCF" cx="16.9484524" cy="9.97677454" r="1"></circle>
    </g>
</svg>
