<?xml version="1.0" encoding="UTF-8"?>
<svg width="24px" height="20px" viewBox="0 0 24 20" version="1.1" xmlns="http://www.w3.org/2000/svg" xmlns:xlink="http://www.w3.org/1999/xlink">
    <title>slide-right</title>
    <g id="slide-right" stroke="none" stroke-width="1" fill="none" fill-rule="evenodd">
        <path d="M12.321404,18.3466577 C11.928565,18.6996731 11.8996142,19.3006417 12.2567405,19.6889586 C12.5863956,20.047405 13.1297848,20.099362 13.520411,19.8275782 L13.6146729,19.7528777 L23.6853432,10.70311 C24.0749183,10.3530277 24.1027451,9.76566867 23.7688236,9.38168967 L23.6853432,9.29688999 L13.6146729,0.247122305 C13.2218339,-0.105893089 12.6138669,-0.0772755369 12.2567405,0.311041397 C11.9270854,0.669487797 11.9263955,1.20912851 12.2372185,1.56768534 L12.321404,1.65334232 L21.6091771,9.99980435 L12.321404,18.3466577 Z" id="Path" fill="#5DBCCF" fill-rule="nonzero"></path>
        <path d="M10.1436435,8.97677454 C9.59135874,8.97677454 9.14364349,9.42448979 9.14364349,9.97677454 C9.14364349,10.4896104 9.52968368,10.9122817 10.0270224,10.9700468 L10.1436435,10.9767745 L22.8010876,10.9767745 C23.3533723,10.9767745 23.8010876,10.5290593 23.8010876,9.97677454 C23.8010876,9.4639387 23.4150474,9.04126737 22.9177087,8.98350227 L22.8010876,8.97677454 L10.1436435,8.97677454 Z" id="Path" fill="#5DBCCF" fill-rule="nonzero"></path>
        <path d="M4.02577381,10.9767745 C3.47348906,10.9767745 3.02577381,10.5290593 3.02577381,9.97677454 C3.02577381,9.42448979 3.47348906,8.97677454 4.02577381,8.97677454 C4.57805856,8.97677454 5.02577381,9.42448979 5.02577381,9.97677454 C5.02577381,10.5290593 4.57805856,10.9767745 4.02577381,10.9767745 Z" id="Oval" fill="#5DBCCF"></path>
        <path d="M1,10.9767745 C0.44771525,10.9767745 0,10.5290593 0,9.97677454 C0,9.42448979 0.44771525,8.97677454 1,8.97677454 C1.55228475,8.97677454 2,9.42448979 2,9.97677454 C2,10.5290593 1.55228475,10.9767745 1,10.9767745 Z" id="Oval-Copy-2" fill="#5DBCCF"></path>
        <path d="M7.05154762,10.9767745 C6.49926287,10.9767745 6.05154762,10.5290593 6.05154762,9.97677454 C6.05154762,9.42448979 6.49926287,8.97677454 7.05154762,8.97677454 C7.60383237,8.97677454 8.05154762,9.42448979 8.05154762,9.97677454 C8.05154762,10.5290593 7.60383237,10.9767745 7.05154762,10.9767745 Z" id="Oval-Copy" fill="#5DBCCF"></path>
    </g>
</svg>
