<?xml version="1.0" encoding="UTF-8"?>
<svg width="32px" height="38px" viewBox="0 0 32 38" version="1.1" xmlns="http://www.w3.org/2000/svg" xmlns:xlink="http://www.w3.org/1999/xlink">
    <title>logo-INATrace-w-symbol</title>
    <g id="logo-INATrace-w-symbol" stroke="none" stroke-width="1" fill="none" fill-rule="evenodd">
        <g id="Group-3-Copy" transform="translate(2.000000, 6.000000)" fill="#FFFFFF" fill-rule="nonzero">
            <g id="Group" transform="translate(0.500000, 0.000000)">
                <path d="M25.4732664,1.4437624 C25.0661683,1.52123835 24.2863846,2.02921544 23.1339153,2.96769366 C21.9814459,3.90617188 20.7145804,5.07055449 19.3333187,6.46084148 C17.952057,7.85112847 16.7913895,9.13014061 15.8513162,10.2978779 L15.5187473,10.7182863 C14.7893235,11.6584219 14.3858911,12.3128367 14.30845,12.6815307 C13.619147,11.8800679 13.2126753,10.8885338 13.0890352,9.70692837 C12.965395,8.52532288 13.1422436,7.30432201 13.6195808,6.04392576 C14.096918,4.7835295 14.8288943,3.6568003 15.8155098,2.66373817 C16.8021253,1.67067603 17.9080072,0.947538319 19.1331553,0.494325029 C20.3583035,0.0411117398 21.5351832,-0.100461019 22.6637945,0.069606752 C23.7924058,0.239674523 24.7288965,0.697726405 25.4732664,1.4437624 Z M20.700618,7.93669672 C22.0818797,6.54640973 23.2425472,5.2673976 24.1826206,4.09966031 L24.5151894,3.67925194 L24.8078409,3.29382979 C25.3532267,2.55797171 25.6591086,2.03203096 25.7254867,1.71600754 C26.4147898,2.51747025 26.8212614,3.50900435 26.9449015,4.69060984 C27.0685417,5.87221532 26.8916932,7.09321619 26.414356,8.35361244 C25.9370188,9.6140087 25.2050424,10.7407379 24.2184269,11.7338 C23.2318114,12.7268622 22.1259296,13.4499999 20.9007814,13.9032132 C19.6756332,14.3564265 18.4987535,14.4979992 17.3701422,14.3279314 C16.2415309,14.1578637 15.3050403,13.6998118 14.5606703,12.9537758 C14.9677684,12.8762998 15.7475521,12.3683228 16.9000215,11.4298445 C18.0524908,10.4913663 19.3193563,9.32698371 20.700618,7.93669672 Z" id="Shape"></path>
                <path d="M3.60538623,15.2077999 C3.86296361,14.9856591 4.2087789,14.3045633 4.6428321,13.1645124 C5.07688531,12.0244616 5.49954426,10.6768866 5.91080895,9.12178735 C6.32207365,7.56668815 6.62220215,6.18121507 6.81119446,4.96536811 L6.88303792,4.47122999 C7.00841832,3.53683202 7.02395967,2.92570376 6.92966199,2.63784521 C7.74854453,2.92465574 8.44438889,3.46264404 9.01719507,4.25181012 C9.59000126,5.0409762 9.96538207,5.98146316 10.1433375,7.07327099 C10.321293,8.16507882 10.2633905,9.26637531 9.96962996,10.3771605 C9.67586946,11.4879456 9.18655767,12.4558094 8.50169456,13.2807517 C7.81683146,14.1056941 7.03838392,14.6893077 6.16635193,15.0315925 C5.29431994,15.3738773 4.44066471,15.4326131 3.60538623,15.2077999 Z M4.33322946,8.63384988 C3.92196477,10.1889491 3.62183626,11.5744222 3.43284395,12.7902691 C3.24385164,14.0061161 3.20436246,14.781957 3.31437642,15.117792 C2.49549388,14.8309815 1.79964952,14.2929932 1.22684334,13.5038271 C0.654037158,12.714661 0.278656341,11.7741741 0.100700888,10.6823662 C-0.0772545653,9.59055841 -0.0193520435,8.48926193 0.274408453,7.37847678 C0.56816895,6.26769163 1.05748075,5.29982788 1.74234385,4.47488553 C2.42720695,3.64994318 3.2056545,3.06632958 4.07768649,2.72404474 C4.94971848,2.38175991 5.80337371,2.3230241 6.63865218,2.54783732 C6.38107481,2.76997814 6.03525952,3.45107396 5.60120631,4.59112481 C5.16715311,5.73117565 4.74449416,7.07875068 4.33322946,8.63384988 Z" id="Shape" fill-opacity="0.80026"></path>
                <path d="M6.50593536,23.5841457 C6.80710488,23.606393 7.4518049,23.3959022 8.44003543,22.9526732 C9.42826595,22.5094443 10.5396278,21.9287773 11.7741211,21.2106722 C13.0086144,20.4925671 14.0668436,19.8111822 14.9488089,19.1665177 L15.3295907,18.8819302 C15.9795124,18.3839281 16.3644535,18.0165052 16.4844141,17.7796615 C16.8184516,18.4738212 16.9175544,19.2484276 16.7817226,20.1034807 C16.6458907,20.9585338 16.2911142,21.7846423 15.7173931,22.5818062 C15.1436719,23.37897 14.4159209,24.0340181 13.53414,24.5469503 C12.6523591,25.0598825 11.7375368,25.3603199 10.7896733,25.4482623 C9.84180976,25.5362048 8.98670084,25.4138871 8.22434656,25.0813091 C7.46199228,24.7487311 6.88918855,24.2496767 6.50593536,23.5841457 Z M11.0900383,19.9139301 C9.85554505,20.6320353 8.7973158,21.3134201 7.91535056,21.9580847 L7.53456875,22.2426722 L7.20634506,22.5013597 C6.75342813,22.8699659 6.47789488,23.1511596 6.37974533,23.3449409 C6.04570781,22.6507811 5.94660498,21.8761747 6.08243682,21.0211216 C6.21826867,20.1660685 6.57304518,19.33996 7.14676635,18.5427962 C7.72048752,17.7456323 8.44823855,17.0905843 9.33001945,16.5776521 C10.2118003,16.0647198 11.1266226,15.7642825 12.0744861,15.67634 C13.0223497,15.5883975 13.8774586,15.7107153 14.6398128,16.0432932 C15.4021671,16.3758712 15.9749709,16.8749257 16.3582241,17.5404566 C16.0570545,17.5182094 15.4123545,17.7287002 14.424124,18.1719291 C13.4358935,18.615158 12.3245316,19.195825 11.0900383,19.9139301 Z" id="Shape" fill-opacity="0.80026"></path>
            </g>
        </g>
    </g>
</svg>