<?xml version="1.0" encoding="UTF-8"?>
<svg width="129px" height="38px" viewBox="0 0 129 38" version="1.1" xmlns="http://www.w3.org/2000/svg" xmlns:xlink="http://www.w3.org/1999/xlink">
    <title>logo-inatrace-w</title>
    <g id="logo-inatrace-w" stroke="none" stroke-width="1" fill="none" fill-rule="evenodd">
        <path d="M27.9732664,7.4437624 C27.5661683,7.52123835 26.7863846,8.02921544 25.6339153,8.96769366 C24.4814459,9.90617188 23.2145804,11.0705545 21.8333187,12.4608415 C20.452057,13.8511285 19.2913895,15.1301406 18.3513162,16.2978779 L18.0187473,16.7182863 C17.2893235,17.6584219 16.8858911,18.3128367 16.80845,18.6815307 C16.119147,17.8800679 15.7126753,16.8885338 15.5890352,15.7069284 C15.465395,14.5253229 15.6422436,13.304322 16.1195808,12.0439258 C16.596918,10.7835295 17.3288943,9.6568003 18.3155098,8.66373817 C19.3021253,7.67067603 20.4080072,6.94753832 21.6331553,6.49432503 C22.8583035,6.04111174 24.0351832,5.89953898 25.1637945,6.06960675 C26.2924058,6.23967452 27.2288965,6.6977264 27.9732664,7.4437624 Z M23.200618,13.9366967 C24.5818797,12.5464097 25.7425472,11.2673976 26.6826206,10.0996603 L27.0151894,9.67925194 L27.3078409,9.29382979 C27.8532267,8.55797171 28.1591086,8.03203096 28.2254867,7.71600754 C28.9147898,8.51747025 29.3212614,9.50900435 29.4449015,10.6906098 C29.5685417,11.8722153 29.3916932,13.0932162 28.914356,14.3536124 C28.4370188,15.6140087 27.7050424,16.7407379 26.7184269,17.7338 C25.7318114,18.7268622 24.6259296,19.4499999 23.4007814,19.9032132 C22.1756332,20.3564265 20.9987535,20.4979992 19.8701422,20.3279314 C18.7415309,20.1578637 17.8050403,19.6998118 17.0606703,18.9537758 C17.4677684,18.8762998 18.2475521,18.3683228 19.4000215,17.4298445 C20.5524908,16.4913663 21.8193563,15.3269837 23.200618,13.9366967 Z" id="Shape" fill="#FFFFFF" fill-rule="nonzero"></path>
        <path d="M6.10538623,21.2077999 C6.36296361,20.9856591 6.7087789,20.3045633 7.1428321,19.1645124 C7.57688531,18.0244616 7.99954426,16.6768866 8.41080895,15.1217874 C8.82207365,13.5666881 9.12220215,12.1812151 9.31119446,10.9653681 L9.38303792,10.47123 C9.50841832,9.53683202 9.52395967,8.92570376 9.42966199,8.63784521 C10.2485445,8.92465574 10.9443889,9.46264404 11.5171951,10.2518101 C12.0900013,11.0409762 12.4653821,11.9814632 12.6433375,13.073271 C12.821293,14.1650788 12.7633905,15.2663753 12.46963,16.3771605 C12.1758695,17.4879456 11.6865577,18.4558094 11.0016946,19.2807517 C10.3168315,20.1056941 9.53838392,20.6893077 8.66635193,21.0315925 C7.79431994,21.3738773 6.94066471,21.4326131 6.10538623,21.2077999 Z M6.83322946,14.6338499 C6.42196477,16.1889491 6.12183626,17.5744222 5.93284395,18.7902691 C5.74385164,20.0061161 5.70436246,20.781957 5.81437642,21.117792 C4.99549388,20.8309815 4.29964952,20.2929932 3.72684334,19.5038271 C3.15403716,18.714661 2.77865634,17.7741741 2.60070089,16.6823662 C2.42274543,15.5905584 2.48064796,14.4892619 2.77440845,13.3784768 C3.06816895,12.2676916 3.55748075,11.2998279 4.24234385,10.4748855 C4.92720695,9.64994318 5.7056545,9.06632958 6.57768649,8.72404474 C7.44971848,8.38175991 8.30337371,8.3230241 9.13865218,8.54783732 C8.88107481,8.76997814 8.53525952,9.45107396 8.10120631,10.5911248 C7.66715311,11.7311757 7.24449416,13.0787507 6.83322946,14.6338499 Z" id="Shape" fill-opacity="0.80026" fill="#FFFFFF" fill-rule="nonzero"></path>
        <path d="M9.00593536,29.5841457 C9.30710488,29.606393 9.9518049,29.3959022 10.9400354,28.9526732 C11.928266,28.5094443 13.0396278,27.9287773 14.2741211,27.2106722 C15.5086144,26.4925671 16.5668436,25.8111822 17.4488089,25.1665177 L17.8295907,24.8819302 C18.4795124,24.3839281 18.8644535,24.0165052 18.9844141,23.7796615 C19.3184516,24.4738212 19.4175544,25.2484276 19.2817226,26.1034807 C19.1458907,26.9585338 18.7911142,27.7846423 18.2173931,28.5818062 C17.6436719,29.37897 16.9159209,30.0340181 16.03414,30.5469503 C15.1523591,31.0598825 14.2375368,31.3603199 13.2896733,31.4482623 C12.3418098,31.5362048 11.4867008,31.4138871 10.7243466,31.0813091 C9.96199228,30.7487311 9.38918855,30.2496767 9.00593536,29.5841457 Z M13.5900383,25.9139301 C12.355545,26.6320353 11.2973158,27.3134201 10.4153506,27.9580847 L10.0345687,28.2426722 L9.70634506,28.5013597 C9.25342813,28.8699659 8.97789488,29.1511596 8.87974533,29.3449409 C8.54570781,28.6507811 8.44660498,27.8761747 8.58243682,27.0211216 C8.71826867,26.1660685 9.07304518,25.33996 9.64676635,24.5427962 C10.2204875,23.7456323 10.9482386,23.0905843 11.8300194,22.5776521 C12.7118003,22.0647198 13.6266226,21.7642825 14.5744861,21.67634 C15.5223497,21.5883975 16.3774586,21.7107153 17.1398128,22.0432932 C17.9021671,22.3758712 18.4749709,22.8749257 18.8582241,23.5404566 C18.5570545,23.5182094 17.9123545,23.7287002 16.924124,24.1719291 C15.9358935,24.615158 14.8245316,25.195825 13.5900383,25.9139301 Z" id="Shape" fill-opacity="0.80026" fill="#FFFFFF" fill-rule="nonzero"></path>
        <path d="M38.761,26.088 C39.2376667,26.088 39.63,26.0586667 39.938,26 L39.938,26 L39.938,10.974 C39.63,10.9153333 39.2376667,10.886 38.761,10.886 C38.2843333,10.886 37.8993333,10.9153333 37.606,10.974 L37.606,10.974 L37.606,26 C37.8993333,26.0586667 38.2843333,26.088 38.761,26.088 Z M53.556,26.088 C54.084,26.088 54.5533333,26.0513333 54.964,25.978 L54.964,25.978 L54.964,10.996 L54.832,10.886 L54.062,10.886 C53.5926667,10.886 53.2663333,10.996 53.083,11.216 C52.8996667,11.436 52.808,11.81 52.808,12.338 L52.808,12.338 L52.808,17.816 C52.808,19.6346667 52.8666667,21.4826667 52.984,23.36 L52.984,23.36 L52.896,23.382 C52.808,23.206 52.5953333,22.7403333 52.258,21.985 C51.9206667,21.2296667 51.6493333,20.632 51.444,20.192 L51.444,20.192 L46.802,10.974 C46.3913333,10.9153333 45.9256667,10.886 45.405,10.886 C44.8843333,10.886 44.4186667,10.9226667 44.008,10.996 L44.008,10.996 L44.008,26 C44.3453333,26.0586667 44.7046667,26.088 45.086,26.088 C45.4673333,26.088 45.834,26.0586667 46.186,26 L46.186,26 L46.186,19.136 C46.186,17.816 46.12,16.0193333 45.988,13.746 L45.988,13.746 L46.076,13.724 C46.5306667,14.78 46.9926667,15.7993333 47.462,16.782 L47.462,16.782 L52.148,26 C52.5586667,26.0586667 53.028,26.088 53.556,26.088 Z M68.78,26.154 C69.264,26.154 69.66,26.0513333 69.968,25.846 L69.968,25.846 L65.04,10.974 C64.7466667,10.9153333 64.3066667,10.886 63.72,10.886 C63.1333333,10.886 62.686,10.9153333 62.378,10.974 L62.378,10.974 L57.406,25.846 L57.472,25.956 C57.8386667,26.0586667 58.2273333,26.11 58.638,26.11 C59.0486667,26.11 59.3786667,26.0806667 59.628,26.022 L59.628,26.022 L60.794,22.348 L62.07,22.37 L65.084,22.37 L66.404,22.348 L67.218,24.922 C67.3646667,25.3913333 67.5406667,25.714 67.746,25.89 C67.9513333,26.066 68.296,26.154 68.78,26.154 Z M65.81,20.456 C65.678,20.456 65.3113333,20.4486667 64.71,20.434 L64.71,20.434 L62.51,20.434 L61.388,20.456 L62.664,16.474 C63.06,15.154 63.346,14.0906667 63.522,13.284 L63.522,13.284 L63.632,13.284 C63.896,14.296 64.2846667,15.6233333 64.798,17.266 L64.798,17.266 L65.81,20.456 Z M75.831,26.088 C76.2783333,26.088 76.6706667,26.0586667 77.008,26 L77.008,26 L77.008,12.932 L78.284,12.954 L79.714,12.954 C80.594,12.954 81.034,12.6313333 81.034,11.986 C81.034,11.6633333 80.99,11.326 80.902,10.974 L80.902,10.974 L70.782,10.974 C70.7233333,11.282 70.694,11.612 70.694,11.964 C70.694,12.316 70.7233333,12.646 70.782,12.954 L70.782,12.954 L73.4,12.954 L74.654,12.932 L74.676,12.932 L74.654,14.56 L74.654,26 C74.9913333,26.0586667 75.3836667,26.088 75.831,26.088 Z M84.279,26.088 C84.7556667,26.088 85.1333333,26.0586667 85.412,26 L85.412,26 L85.412,18.828 C85.984,17.7133333 86.7686667,17.156 87.766,17.156 C88.2353333,17.1853333 88.536,17.222 88.668,17.266 C89.0346667,16.6793333 89.218,15.9606667 89.218,15.11 C88.7926667,15.022 88.404,14.978 88.052,14.978 C86.7173333,14.978 85.7566667,15.6306667 85.17,16.936 C84.8473333,15.8506667 84.18,15.198 83.168,14.978 C82.7573333,15.242 82.4786667,15.6453333 82.332,16.188 C82.8746667,16.7013333 83.146,17.4566667 83.146,18.454 L83.146,18.454 L83.146,26 C83.4246667,26.0586667 83.8023333,26.088 84.279,26.088 Z M93.64,26.286 C94.74,26.286 95.8106667,25.7873333 96.852,24.79 C97.16,25.538 97.7466667,25.9926667 98.612,26.154 C99.008,25.9046667 99.294,25.516 99.47,24.988 C99.0593333,24.636 98.854,24.0053333 98.854,23.096 L98.854,23.096 L98.854,18.586 C98.854,17.354 98.5386667,16.4336667 97.908,15.825 C97.2773333,15.2163333 96.39,14.912 95.246,14.912 C93.706,14.912 92.188,15.2493333 90.692,15.924 C90.7066667,16.6573333 90.9266667,17.2073333 91.352,17.574 C92.8186667,17.0166667 93.97,16.738 94.806,16.738 C96.0086667,16.738 96.61,17.3906667 96.61,18.696 L96.61,18.696 L96.61,19.554 C96.2726667,19.4953333 95.928,19.455 95.576,19.433 C95.224,19.411 94.8646667,19.4 94.498,19.4 C93.222,19.4 92.199,19.708 91.429,20.324 C90.659,20.94 90.274,21.8493333 90.274,23.052 C90.274,23.4773333 90.3436667,23.8843333 90.483,24.273 C90.6223333,24.6616667 90.835,25.0063333 91.121,25.307 C91.407,25.6076667 91.759,25.846 92.177,26.022 C92.595,26.198 93.0826667,26.286 93.64,26.286 Z M94.014,24.482 C93.5593333,24.482 93.2,24.3316667 92.936,24.031 C92.672,23.7303333 92.54,23.316 92.54,22.788 C92.54,22.2453333 92.727,21.809 93.101,21.479 C93.475,21.149 93.9993333,20.984 94.674,20.984 C95.026,20.984 95.3633333,20.9913333 95.686,21.006 C96.0086667,21.0206667 96.3166667,21.0426667 96.61,21.072 L96.61,21.072 L96.61,23.162 C95.818,24.042 94.9526667,24.482 94.014,24.482 Z M105.982,26.286 C107.522,26.286 108.834667,25.7433333 109.92,24.658 C109.861333,24.4086667 109.736667,24.152 109.546,23.888 C109.355333,23.624 109.157333,23.4333333 108.952,23.316 C107.998667,24.0493333 107.111333,24.416 106.29,24.416 C104.632667,24.416 103.804,23.1546667 103.804,20.632 C103.804,19.2973333 103.994667,18.2926667 104.376,17.618 C104.757333,16.9433333 105.3,16.606 106.004,16.606 C107.294667,16.606 107.94,17.4346667 107.94,19.092 L107.94,19.092 L107.94,19.334 C108.189333,19.3926667 108.504667,19.422 108.886,19.422 C109.648667,19.422 110.03,19.004 110.03,18.168 C110.03,17.7573333 109.938333,17.3503333 109.755,16.947 C109.571667,16.5436667 109.307667,16.188 108.963,15.88 C108.618333,15.572 108.200333,15.3226667 107.709,15.132 C107.217667,14.9413333 106.656667,14.846 106.026,14.846 C105.41,14.846 104.827,14.9706667 104.277,15.22 C103.727,15.4693333 103.243,15.8286667 102.825,16.298 C102.407,16.7673333 102.073333,17.3503333 101.824,18.047 C101.574667,18.7436667 101.45,19.5393333 101.45,20.434 C101.45,21.2993333 101.541667,22.0913333 101.725,22.81 C101.908333,23.5286667 102.187,24.1446667 102.561,24.658 C102.935,25.1713333 103.404333,25.571 103.969,25.857 C104.533667,26.143 105.204667,26.286 105.982,26.286 Z M116.344,26.286 C117.928,26.286 119.306667,25.8753333 120.48,25.054 C120.362667,24.4233333 120.120667,23.9393333 119.754,23.602 C119.211333,23.8953333 118.687,24.108 118.181,24.24 C117.675,24.372 117.202,24.438 116.762,24.438 C115.838,24.438 115.181667,24.1666667 114.793,23.624 C114.404333,23.0813333 114.188,22.304 114.144,21.292 L114.144,21.292 L120.612,21.292 C120.670667,20.9986667 120.711,20.709 120.733,20.423 C120.755,20.137 120.766,19.8473333 120.766,19.554 C120.766,18.8793333 120.667,18.2523333 120.469,17.673 C120.271,17.0936667 119.981333,16.595 119.6,16.177 C119.218667,15.759 118.753,15.4326667 118.203,15.198 C117.653,14.9633333 117.026,14.846 116.322,14.846 C115.618,14.846 114.983667,14.989 114.419,15.275 C113.854333,15.561 113.381333,15.9533333 113,16.452 C112.618667,16.9506667 112.325333,17.5483333 112.12,18.245 C111.914667,18.9416667 111.812,19.6933333 111.812,20.5 C111.812,21.3213333 111.892667,22.0876667 112.054,22.799 C112.215333,23.5103333 112.475667,24.1226667 112.835,24.636 C113.194333,25.1493333 113.66,25.5526667 114.232,25.846 C114.804,26.1393333 115.508,26.286 116.344,26.286 Z M118.588,19.642 L114.144,19.642 C114.246667,17.574 114.994667,16.54 116.388,16.54 C117.136,16.54 117.689667,16.8003333 118.049,17.321 C118.408333,17.8416667 118.588,18.52 118.588,19.356 L118.588,19.356 L118.588,19.642 Z" id="INATrace" fill="#FFFFFF" fill-rule="nonzero"></path>
    </g>
</svg>