<?xml version="1.0" encoding="UTF-8"?>
<svg width="207px" height="70px" viewBox="0 0 207 70" version="1.1" xmlns="http://www.w3.org/2000/svg" xmlns:xlink="http://www.w3.org/1999/xlink">
    <title>af-b2c-logo--angeliques-finest-front</title>
    <g id="af-b2c-logo--angeliques-finest-front" stroke="none" stroke-width="1" fill="none" fill-rule="evenodd">
        <g id="Logo-large-Copy-2" transform="translate(0.000000, 0.000000)" fill="#FFFFFF">
            <path d="M5.26638298,31.0283688 L5.26638298,18.0887943 L11.8076596,18.0887943 L11.8076596,31.0283688 L16.8834043,31.0283688 L16.8834043,4.82751773 C16.8834043,2.18241135 14.7387234,0.0377304965 12.093617,0.0377304965 L4.94468085,0.0377304965 C2.33531915,0.0377304965 0.190638298,2.18241135 0.190638298,4.82751773 L0.190638298,31.0283688 L5.26638298,31.0283688 Z M11.8076596,13.0130496 L5.26638298,13.0130496 L5.26638298,6.07858156 C5.26638298,5.54241135 5.69531915,5.11347518 6.19574468,5.11347518 L10.8425532,5.11347518 C11.3787234,5.11347518 11.8076596,5.54241135 11.8076596,6.07858156 L11.8076596,13.0130496 Z M26.9634043,31.0283688 L26.9634043,14.0853901 L33.5046809,30.9926241 L33.5046809,31.0283688 L38.5804255,31.0283688 L38.5804255,0.0377304965 L33.5046809,0.0377304965 L33.5046809,16.9807092 L26.9634043,0.0734751773 L26.9634043,0.0377304965 L21.8876596,0.0377304965 L21.8876596,31.0283688 L26.9634043,31.0283688 Z M60.2774468,31.0283688 L60.2774468,11.9764539 L55.2017021,11.9764539 L55.2017021,25.9526241 L49.5897872,25.9526241 C49.0893617,25.9526241 48.6604255,25.5236879 48.6604255,25.0232624 L48.6604255,6.07858156 C48.6604255,5.54241135 49.0893617,5.11347518 49.5897872,5.11347518 L60.2774468,5.11347518 L60.2774468,0.0377304965 L48.3387234,0.0377304965 C45.7293617,0.0377304965 43.5846809,2.18241135 43.5846809,4.82751773 L43.5846809,26.2743262 C43.5846809,28.8836879 45.7293617,31.0283688 48.3387234,31.0283688 L60.2774468,31.0283688 Z M81.0451064,31.0283688 L81.0451064,25.9526241 L71.2868085,25.9526241 C70.786383,25.9526241 70.3574468,25.5236879 70.3574468,25.0232624 L70.3574468,18.0887943 L81.0451064,18.0887943 L81.0451064,13.0130496 L70.3574468,13.0130496 L70.3574468,6.07858156 C70.3574468,5.54241135 70.786383,5.11347518 71.2868085,5.11347518 L81.0451064,5.11347518 L81.0451064,0.0377304965 L70.0357447,0.0377304965 C67.426383,0.0377304965 65.2817021,2.18241135 65.2817021,4.82751773 L65.2817021,26.2743262 C65.2817021,28.8836879 67.426383,31.0283688 70.0357447,31.0283688 L81.0451064,31.0283688 Z M100.347234,31.0283688 L100.347234,25.9526241 L92.0544681,25.9526241 C91.5540426,25.9526241 91.1251064,25.5236879 91.1251064,25.0232624 L91.1251064,0.0377304965 L86.0493617,0.0377304965 L86.0493617,26.2743262 C86.0493617,28.8836879 88.1940426,31.0283688 90.8034043,31.0283688 L100.347234,31.0283688 Z M110.427234,31.0283688 L110.427234,0.0377304965 L105.351489,0.0377304965 L105.351489,31.0283688 L110.427234,31.0283688 Z M126.154894,33.4232624 L126.154894,31.0283688 L127.334468,31.0283688 C129.979574,31.0283688 132.124255,28.8836879 132.124255,26.2743262 L132.124255,4.82751773 C132.124255,2.18241135 129.979574,0.0377304965 127.334468,0.0377304965 L120.185532,0.0377304965 C117.57617,0.0377304965 115.431489,2.18241135 115.431489,4.82751773 L115.431489,26.2743262 C115.431489,28.8836879 117.57617,31.0283688 120.185532,31.0283688 L121.400851,31.0283688 L121.400851,33.4232624 L126.154894,33.4232624 Z M126.154894,25.9526241 L126.154894,23.8794326 L121.400851,23.8794326 L121.400851,25.9526241 C120.900426,25.9168794 120.507234,25.5236879 120.507234,25.0232624 L120.507234,6.07858156 C120.507234,5.54241135 120.93617,5.11347518 121.436596,5.11347518 L126.083404,5.11347518 C126.619574,5.11347518 127.048511,5.54241135 127.048511,6.07858156 L127.048511,25.0232624 C127.048511,25.5236879 126.655319,25.9168794 126.154894,25.9526241 Z M149.031489,31.0283688 C151.676596,31.0283688 153.821277,28.8836879 153.821277,26.2743262 L153.821277,0.0377304965 L148.745532,0.0377304965 L148.745532,25.0232624 C148.745532,25.5236879 148.316596,25.9526241 147.780426,25.9526241 L143.133617,25.9526241 C142.633191,25.9526241 142.204255,25.5236879 142.204255,25.0232624 L142.204255,0.0377304965 L137.128511,0.0377304965 L137.128511,26.2743262 C137.128511,28.8836879 139.273191,31.0283688 141.882553,31.0283688 L149.031489,31.0283688 Z M174.588936,31.0283688 L174.588936,25.9526241 L164.830638,25.9526241 C164.330213,25.9526241 163.901277,25.5236879 163.901277,25.0232624 L163.901277,18.0887943 L174.588936,18.0887943 L174.588936,13.0130496 L163.901277,13.0130496 L163.901277,6.07858156 C163.901277,5.54241135 164.330213,5.11347518 164.830638,5.11347518 L174.588936,5.11347518 L174.588936,0.0377304965 L163.579574,0.0377304965 C160.970213,0.0377304965 158.825532,2.18241135 158.825532,4.82751773 L158.825532,26.2743262 C158.825532,28.8836879 160.970213,31.0283688 163.579574,31.0283688 L174.588936,31.0283688 Z M201.504681,31.0283688 C204.149787,31.0283688 206.294468,28.8836879 206.294468,26.2743262 L206.294468,17.7670922 C206.294468,15.1577305 204.149787,13.0130496 201.504681,13.0130496 L195.606809,13.0130496 C195.106383,13.0130496 194.677447,12.5841135 194.677447,12.0479433 L194.677447,6.07858156 C194.677447,5.54241135 195.106383,5.11347518 195.606809,5.11347518 L205.579574,5.11347518 L205.579574,0.0377304965 L194.355745,0.0377304965 C191.746383,0.0377304965 189.601702,2.18241135 189.601702,4.82751773 L189.601702,13.2990071 C189.601702,15.9441135 191.746383,18.0887943 194.355745,18.0887943 L200.253617,18.0887943 C200.789787,18.0887943 201.218723,18.4819858 201.218723,19.018156 L201.218723,25.0232624 C201.218723,25.5236879 200.789787,25.9526241 200.253617,25.9526241 L189.601702,25.9526241 L189.601702,31.0283688 L201.504681,31.0283688 Z" id="ANGELIQUESFINEST" fill-rule="nonzero"></path>
            <path d="M53.0748936,69.751773 L53.0748936,56.8121986 L63.6195745,56.8121986 L63.6195745,51.7364539 L53.0748936,51.7364539 L53.0748936,44.8019858 C53.0748936,44.2658156 53.5038298,43.8368794 54.0042553,43.8368794 L63.6195745,43.8368794 L63.6195745,38.7611348 L52.7531915,38.7611348 C50.1438298,38.7611348 47.9991489,40.9058156 47.9991489,43.550922 L47.9991489,69.751773 L53.0748936,69.751773 Z M73.6995745,69.751773 L73.6995745,38.7611348 L68.6238298,38.7611348 L68.6238298,69.751773 L73.6995745,69.751773 Z M83.7795745,69.751773 L83.7795745,52.8087943 L90.3208511,69.7160284 L90.3208511,69.751773 L95.3965957,69.751773 L95.3965957,38.7611348 L90.3208511,38.7611348 L90.3208511,55.7041135 L83.7795745,38.7968794 L83.7795745,38.7611348 L78.7038298,38.7611348 L78.7038298,69.751773 L83.7795745,69.751773 Z M116.164255,69.751773 L116.164255,64.6760284 L106.405957,64.6760284 C105.905532,64.6760284 105.476596,64.2470922 105.476596,63.7466667 L105.476596,56.8121986 L116.164255,56.8121986 L116.164255,51.7364539 L105.476596,51.7364539 L105.476596,44.8019858 C105.476596,44.2658156 105.905532,43.8368794 106.405957,43.8368794 L116.164255,43.8368794 L116.164255,38.7611348 L105.154894,38.7611348 C102.545532,38.7611348 100.400851,40.9058156 100.400851,43.550922 L100.400851,64.9977305 C100.400851,67.6070922 102.545532,69.751773 105.154894,69.751773 L116.164255,69.751773 Z M133.071489,69.751773 C135.716596,69.751773 137.861277,67.6070922 137.861277,64.9977305 L137.861277,56.4904965 C137.861277,53.8811348 135.716596,51.7364539 133.071489,51.7364539 L127.173617,51.7364539 C126.673191,51.7364539 126.244255,51.3075177 126.244255,50.7713475 L126.244255,44.8019858 C126.244255,44.2658156 126.673191,43.8368794 127.173617,43.8368794 L137.146383,43.8368794 L137.146383,38.7611348 L125.922553,38.7611348 C123.313191,38.7611348 121.168511,40.9058156 121.168511,43.550922 L121.168511,52.0224113 C121.168511,54.6675177 123.313191,56.8121986 125.922553,56.8121986 L131.820426,56.8121986 C132.356596,56.8121986 132.785532,57.2053901 132.785532,57.7415603 L132.785532,63.7466667 C132.785532,64.2470922 132.356596,64.6760284 131.820426,64.6760284 L121.168511,64.6760284 L121.168511,69.751773 L133.071489,69.751773 Z M152.659574,69.751773 L152.659574,43.8368794 L158.485957,43.8368794 L158.485957,38.7611348 L141.793191,38.7611348 L141.793191,43.8368794 L147.58383,43.8368794 L147.58383,69.751773 L152.659574,69.751773 Z" id="ANGELIQUESFINEST-Copy" fill-rule="nonzero"></path>
            <path d="M178.77305,9.54382979 C181.382411,9.54382979 183.527092,7.39914894 183.527092,4.75404255 L183.527092,-3.94200039e-13 L178.77305,-3.94200039e-13 L178.77305,4.75404255 L181.132199,4.75404255 C181.132199,6.07659574 180.095603,7.14893617 178.77305,7.14893617 L178.77305,9.54382979 Z" id="Path"></path>
        </g>
    </g>
</svg>