<?xml version="1.0" encoding="UTF-8"?>
<svg width="167px" height="17px" viewBox="0 0 167 17" version="1.1" xmlns="http://www.w3.org/2000/svg" xmlns:xlink="http://www.w3.org/1999/xlink">
    <title>af-b2c-logo--angeliques-finest</title>
    <g id="af-b2c-logo--angeliques-finest" stroke="none" stroke-width="1" fill="none" fill-rule="evenodd">
        <g id="Group" fill="#FFFFFF" fill-rule="nonzero">
            <path d="M2.55586692,15.6051874 L2.55586692,9.08952671 L5.84969541,9.08952671 L5.84969541,15.6051874 L8.40556232,15.6051874 L8.40556232,2.41187441 C8.40556232,1.07994377 7.32561856,1.13686838e-12 5.99368791,1.13686838e-12 L2.39387535,1.13686838e-12 C1.07994377,1.13686838e-12 -1.84741111e-13,1.07994377 -1.84741111e-13,2.41187441 L-1.84741111e-13,15.6051874 L2.55586692,15.6051874 Z M5.84969541,6.53365979 L2.55586692,6.53365979 L2.55586692,3.04184161 C2.55586692,2.77185567 2.77185567,2.55586692 3.02384255,2.55586692 L5.36372071,2.55586692 C5.63370665,2.55586692 5.84969541,2.77185567 5.84969541,3.04184161 L5.84969541,6.53365979 Z M13.481298,15.6051874 L13.481298,7.07363168 L16.7751265,15.5871884 L16.7751265,15.6051874 L19.3309934,15.6051874 L19.3309934,1.13686838e-12 L16.7751265,1.13686838e-12 L16.7751265,8.53155576 L13.481298,0.0179990628 L13.481298,1.13686838e-12 L10.9254311,1.13686838e-12 L10.9254311,15.6051874 L13.481298,15.6051874 Z M30.2564246,15.6051874 L30.2564246,6.01168697 L27.7005576,6.01168697 L27.7005576,13.0493205 L24.8747048,13.0493205 C24.6227179,13.0493205 24.4067291,12.8333318 24.4067291,12.5813449 L24.4067291,3.04184161 C24.4067291,2.77185567 24.6227179,2.55586692 24.8747048,2.55586692 L30.2564246,2.55586692 L30.2564246,1.13686838e-12 L24.2447376,1.13686838e-12 C22.930806,1.13686838e-12 21.8508622,1.07994377 21.8508622,2.41187441 L21.8508622,13.2113121 C21.8508622,14.5252437 22.930806,15.6051874 24.2447376,15.6051874 L30.2564246,15.6051874 Z M40.71388,15.6051874 L40.71388,13.0493205 L35.8001359,13.0493205 C35.548149,13.0493205 35.3321603,12.8333318 35.3321603,12.5813449 L35.3321603,9.08952671 L40.71388,9.08952671 L40.71388,6.53365979 L35.3321603,6.53365979 L35.3321603,3.04184161 C35.3321603,2.77185567 35.548149,2.55586692 35.8001359,2.55586692 L40.71388,2.55586692 L40.71388,1.13686838e-12 L35.1701687,1.13686838e-12 C33.8562371,1.13686838e-12 32.7762933,1.07994377 32.7762933,2.41187441 L32.7762933,13.2113121 C32.7762933,14.5252437 33.8562371,15.6051874 35.1701687,15.6051874 L40.71388,15.6051874 Z M50.4333739,15.6051874 L50.4333739,13.0493205 L46.2575914,13.0493205 C46.0056045,13.0493205 45.7896157,12.8333318 45.7896157,12.5813449 L45.7896157,1.13686838e-12 L43.2337488,1.13686838e-12 L43.2337488,13.2113121 C43.2337488,14.5252437 44.3136926,15.6051874 45.6276242,15.6051874 L50.4333739,15.6051874 Z M55.5091097,15.6051874 L55.5091097,1.13686838e-12 L52.9532427,1.13686838e-12 L52.9532427,15.6051874 L55.5091097,15.6051874 Z M63.4286973,16.8111246 L63.4286973,15.6051874 L64.0226664,15.6051874 C65.354597,15.6051874 66.4345408,14.5252437 66.4345408,13.2113121 L66.4345408,2.41187441 C66.4345408,1.07994377 65.354597,1.13686838e-12 64.0226664,1.13686838e-12 L60.4228538,1.13686838e-12 C59.1089222,1.13686838e-12 58.0289784,1.07994377 58.0289784,2.41187441 L58.0289784,13.2113121 C58.0289784,14.5252437 59.1089222,15.6051874 60.4228538,15.6051874 L61.0348219,15.6051874 L61.0348219,16.8111246 L63.4286973,16.8111246 Z M63.4286973,13.0493205 L63.4286973,12.0053749 L61.0348219,12.0053749 L61.0348219,13.0493205 C60.7828351,13.0313215 60.5848454,12.8333318 60.5848454,12.5813449 L60.5848454,3.04184161 C60.5848454,2.77185567 60.8008341,2.55586692 61.052821,2.55586692 L63.3926992,2.55586692 C63.6626851,2.55586692 63.8786739,2.77185567 63.8786739,3.04184161 L63.8786739,12.5813449 C63.8786739,12.8333318 63.6806842,13.0313215 63.4286973,13.0493205 Z M74.9480975,15.6051874 C76.2800281,15.6051874 77.3599719,14.5252437 77.3599719,13.2113121 L77.3599719,1.13686838e-12 L74.804105,1.13686838e-12 L74.804105,12.5813449 C74.804105,12.8333318 74.5881162,13.0493205 74.3181303,13.0493205 L71.9782521,13.0493205 C71.7262652,13.0493205 71.5102765,12.8333318 71.5102765,12.5813449 L71.5102765,1.13686838e-12 L68.9544096,1.13686838e-12 L68.9544096,13.2113121 C68.9544096,14.5252437 70.0343533,15.6051874 71.3482849,15.6051874 L74.9480975,15.6051874 Z M87.8174274,15.6051874 L87.8174274,13.0493205 L82.9036832,13.0493205 C82.6516963,13.0493205 82.4357076,12.8333318 82.4357076,12.5813449 L82.4357076,9.08952671 L87.8174274,9.08952671 L87.8174274,6.53365979 L82.4357076,6.53365979 L82.4357076,3.04184161 C82.4357076,2.77185567 82.6516963,2.55586692 82.9036832,2.55586692 L87.8174274,2.55586692 L87.8174274,1.13686838e-12 L82.273716,1.13686838e-12 C80.9597844,1.13686838e-12 79.8798407,1.07994377 79.8798407,2.41187441 L79.8798407,13.2113121 C79.8798407,14.5252437 80.9597844,15.6051874 82.273716,15.6051874 L87.8174274,15.6051874 Z M101.244728,15.6051874 C102.576659,15.6051874 103.656603,14.5252437 103.656603,13.2113121 L103.656603,8.92753515 C103.656603,7.61360356 102.576659,6.53365979 101.244728,6.53365979 L98.2748828,6.53365979 C98.022896,6.53365979 97.8069072,6.31767104 97.8069072,6.0476851 L97.8069072,3.04184161 C97.8069072,2.77185567 98.022896,2.55586692 98.2748828,2.55586692 L103.296621,2.55586692 L103.296621,1.13686838e-12 L97.6449157,1.13686838e-12 C96.3309841,1.13686838e-12 95.2510403,1.07994377 95.2510403,2.41187441 L95.2510403,6.6776523 C95.2510403,8.00958294 96.3309841,9.08952671 97.6449157,9.08952671 L100.614761,9.08952671 C100.884747,9.08952671 101.100736,9.2875164 101.100736,9.55750234 L101.100736,12.5813449 C101.100736,12.8333318 100.884747,13.0493205 100.614761,13.0493205 L95.2510403,13.0493205 L95.2510403,15.6051874 L101.244728,15.6051874 Z M113.772076,15.6051874 L113.772076,9.08952671 L119.081799,9.08952671 L119.081799,6.53365979 L113.772076,6.53365979 L113.772076,3.04184161 C113.772076,2.77185567 113.988065,2.55586692 114.240052,2.55586692 L119.081799,2.55586692 L119.081799,1.13686838e-12 L113.610084,1.13686838e-12 C112.296153,1.13686838e-12 111.216209,1.07994377 111.216209,2.41187441 L111.216209,15.6051874 L113.772076,15.6051874 Z M124.157535,15.6051874 L124.157535,1.13686838e-12 L121.601668,1.13686838e-12 L121.601668,15.6051874 L124.157535,15.6051874 Z M129.233271,15.6051874 L129.233271,7.07363168 L132.527099,15.5871884 L132.527099,15.6051874 L135.082966,15.6051874 L135.082966,1.13686838e-12 L132.527099,1.13686838e-12 L132.527099,8.53155576 L129.233271,0.0179990628 L129.233271,1.13686838e-12 L126.677404,1.13686838e-12 L126.677404,15.6051874 L129.233271,15.6051874 Z M145.540422,15.6051874 L145.540422,13.0493205 L140.626678,13.0493205 C140.374691,13.0493205 140.158702,12.8333318 140.158702,12.5813449 L140.158702,9.08952671 L145.540422,9.08952671 L145.540422,6.53365979 L140.158702,6.53365979 L140.158702,3.04184161 C140.158702,2.77185567 140.374691,2.55586692 140.626678,2.55586692 L145.540422,2.55586692 L145.540422,1.13686838e-12 L139.99671,1.13686838e-12 C138.682779,1.13686838e-12 137.602835,1.07994377 137.602835,2.41187441 L137.602835,13.2113121 C137.602835,14.5252437 138.682779,15.6051874 139.99671,15.6051874 L145.540422,15.6051874 Z M154.053978,15.6051874 C155.385909,15.6051874 156.465853,14.5252437 156.465853,13.2113121 L156.465853,8.92753515 C156.465853,7.61360356 155.385909,6.53365979 154.053978,6.53365979 L151.084133,6.53365979 C150.832146,6.53365979 150.616157,6.31767104 150.616157,6.0476851 L150.616157,3.04184161 C150.616157,2.77185567 150.832146,2.55586692 151.084133,2.55586692 L156.105872,2.55586692 L156.105872,1.13686838e-12 L150.454166,1.13686838e-12 C149.140234,1.13686838e-12 148.060291,1.07994377 148.060291,2.41187441 L148.060291,6.6776523 C148.060291,8.00958294 149.140234,9.08952671 150.454166,9.08952671 L153.424011,9.08952671 C153.693997,9.08952671 153.909986,9.2875164 153.909986,9.55750234 L153.909986,12.5813449 C153.909986,12.8333318 153.693997,13.0493205 153.424011,13.0493205 L148.060291,13.0493205 L148.060291,15.6051874 L154.053978,15.6051874 Z M163.917465,15.6051874 L163.917465,2.55586692 L166.851312,2.55586692 L166.851312,1.13686838e-12 L158.44575,1.13686838e-12 L158.44575,2.55586692 L161.361598,2.55586692 L161.361598,15.6051874 L163.917465,15.6051874 Z" id="ANGELIQUE'SFINEST"></path>
            <path d="M92.9713747,4.805 L92.9713747,2.41149813 L91.7656257,2.41149813 C91.7656257,1.7456367 92.3055133,1.20574906 92.9713747,1.20574906 L92.9713747,1.45661261e-13 C91.6396519,1.45661261e-13 90.5598766,1.07977528 90.5598766,2.41149813 L90.5598766,4.805 L92.9713747,4.805 Z" id="Path" transform="translate(91.765626, 2.402500) scale(-1, -1) translate(-91.765626, -2.402500) "></path>
        </g>
    </g>
</svg>