<?xml version="1.0" encoding="UTF-8"?>
<svg width="414px" height="1127px" viewBox="0 0 414 1127" version="1.1" xmlns="http://www.w3.org/2000/svg" xmlns:xlink="http://www.w3.org/1999/xlink">
    <title>header-bg-graphics</title>
    <defs>
        <path d="M291.50391,725.44752 L409.710112,588.361561 C409.710112,588.361561 507.929181,472.385308 508.537961,329.504321 C509.295202,150.105116 409.714645,79.4917267 409.714645,79.4917267 C382.164528,55.8091429 352.034987,37.5008468 319.295801,24.5744058 C278.541816,8.45456936 236.977888,0.40600207 194.596463,0.40600207 C152.218061,0.40600207 110.652622,8.45456936 69.9031702,24.5744058 C45.2543378,34.3059379 22.0863696,47.08406 0.388687895,62.9087723 L0.298022744,239.320412 C0.298022744,239.320412 80.056156,93.603205 195.932263,97.470089 C311.805348,101.338487 412.360556,180.85252 411.553636,337.366733 C410.748228,493.883973 136.375837,711.617545 136.375837,711.617545 C129.642438,718.375133 127.817046,720.828447 124.678521,729.26446 L291.50391,725.44752" id="path-1"></path>
        <path d="M0.291978401,98.4144865 C95.5039867,112.09917 174.796706,179.76283 186.445666,302.206087 L284.29603,302.206087 C276.062124,141.788667 186.073939,77.9782692 186.073939,77.9782692 C158.523822,54.2941718 128.394281,35.9873892 95.6550953,23.0609482 C64.3453965,10.6763251 32.5597056,3.05606625 0.291978401,0.18957764 L0.291978401,98.4144865" id="path-3"></path>
        <path d="M291.272088,725.213764 L409.47829,588.127806 C409.47829,588.127806 507.697359,472.151553 508.306139,329.270566 C509.06338,149.871361 409.482823,79.2579714 409.482823,79.2579714 C381.932706,55.5753876 351.803165,37.2670915 319.063979,24.3406505 C278.309994,8.22081408 236.746066,0.172246796 194.364642,0.172246796 C151.986239,0.172246796 110.4208,8.22081408 69.6713483,24.3406505 C45.022516,34.0721826 21.8545477,46.8503048 0.156866013,62.675017 L0.0662008623,239.086657 C0.0662008623,239.086657 79.8243342,93.3694497 195.700441,97.2363338 C311.573527,101.104731 412.128734,180.618764 411.321814,337.132978 C410.516406,493.650218 136.144015,711.383789 136.144015,711.383789 C129.410616,718.141377 127.585225,720.594692 124.446699,729.030704 L291.272088,725.213764 L291.272088,725.213764 Z" id="path-5"></path>
        <rect id="path-7" x="4.29581432" y="4.24694011" width="421" height="475.5"></rect>
        <path d="M345.923242,860.600547 L486.121295,698.010224 C486.121295,698.010224 602.613679,560.456994 603.335722,390.993497 C604.233845,178.217696 486.126672,94.4669317 486.126672,94.4669317 C453.450951,66.3782857 417.715915,44.663795 378.885717,29.3324348 C330.549595,10.213559 281.252844,0.667583851 230.986503,0.667583851 C180.723746,0.667583851 131.425203,10.213559 83.0944577,29.3324348 C53.859796,40.8744845 26.3815081,56.0299317 0.647048434,74.7987764 L0.539515348,284.031186 C0.539515348,284.031186 95.1363711,111.203801 232.570824,115.790106 C370.001692,120.378205 489.264846,214.685547 488.307801,400.318683 C487.352549,585.95541 161.934132,844.197553 161.934132,844.197553 C153.948008,852.212366 151.783009,855.122112 148.060572,865.127615 L345.923242,860.600547" id="path-9"></path>
        <path d="M0.532346476,116.910205 C113.458217,133.140876 207.503069,213.393124 221.319279,358.616522 L337.374362,358.616522 C327.608565,168.354 220.878393,92.6719006 220.878393,92.6719006 C188.202673,64.5814596 152.467636,42.868764 113.637439,27.5374037 C76.5026795,12.8486646 38.8033718,3.81068323 0.532346476,0.41089441 L0.532346476,116.910205" id="path-11"></path>
        <path d="M345.462244,860.137255 L485.660297,697.546932 C485.660297,697.546932 602.152681,559.993703 602.874724,390.530206 C603.772847,177.754405 485.665674,94.0036405 485.665674,94.0036405 C452.989953,65.9149946 417.254917,44.2005039 378.424719,28.8691436 C330.088597,9.75026787 280.791846,0.204292712 230.525505,0.204292712 C180.262748,0.204292712 130.964205,9.75026787 82.6334597,28.8691436 C53.398798,40.4111933 25.9205101,55.5666405 0.186050388,74.3354853 L0.0785173018,283.567895 C0.0785173018,283.567895 94.6753731,110.74051 232.109826,115.326814 C369.540694,119.914914 488.803848,214.222255 487.846803,399.855392 C486.891551,585.492119 161.473134,843.734262 161.473134,843.734262 C153.48701,851.749075 151.322011,854.658821 147.599574,864.664324 L345.462244,860.137255 L345.462244,860.137255 Z" id="path-13"></path>
    </defs>
    <g id="header-bg-graphics" stroke="none" stroke-width="1" fill="none" fill-rule="evenodd">
        <g id="Group-2" opacity="0.05">
            <g id="Group-234" transform="translate(-0.000000, 0.000000)">
                <mask id="mask-2" fill="white">
                    <use xlink:href="#path-1"></use>
                </mask>
                <g id="Clip-210"></g>
                <polyline id="Fill-209" fill="#FFFFFE" mask="url(#mask-2)" points="342.296039 97.8817495 -73.589542 -318.730739 -489.589965 97.8817495 -73.589542 514.501805 342.296039 97.8817495"></polyline>
                <polyline id="Fill-211" fill="#0A0B09" mask="url(#mask-2)" points="328.371383 97.8817495 -73.1180832 -304.313542 -474.719369 97.8817495 -73.1180832 500.081582 328.371383 97.8817495"></polyline>
                <polyline id="Fill-212" fill="#FFFFFE" mask="url(#mask-2)" points="311.787215 97.8817495 -73.3356796 -287.91977 -458.571906 97.8817495 -73.3356796 483.686296 311.787215 97.8817495"></polyline>
                <polyline id="Fill-213" fill="#0A0B09" mask="url(#mask-2)" points="-73.184571 -273.490466 297.542209 97.8817495 -73.3115022 469.252451 -444.036771 97.8817495 -73.184571 -273.490466"></polyline>
                <polyline id="Fill-214" fill="#FFFFFE" mask="url(#mask-2)" points="279.392557 97.8408861 -73.1256387 -255.294166 -425.742055 97.8408861 -73.1256387 450.988046 279.392557 97.8408861"></polyline>
                <polyline id="Fill-215" fill="#0A0B09" mask="url(#mask-2)" points="-73.1120389 -240.386609 264.1593 97.4776563 -73.2389701 435.341921 -410.510309 97.4776563 -73.1120389 -240.386609"></polyline>
                <polyline id="Fill-216" fill="#FFFFFE" mask="url(#mask-2)" points="-72.9352419 -224.525573 248.877689 97.8408861 -73.0349735 420.208859 -394.846394 97.8408861 -72.9352419 -224.525573"></polyline>
                <polyline id="Fill-217" fill="#0A0B09" mask="url(#mask-2)" points="-73.1180832 -210.076594 234.014649 97.595706 -73.2329258 405.268006 -380.365658 97.595706 -73.1180832 -210.076594"></polyline>
                <polyline id="Fill-218" fill="#FFFFFE" mask="url(#mask-2)" points="-73.1195943 -195.474756 219.438715 97.595706 -73.2253703 390.666168 -365.783679 97.595706 -73.1195943 -195.474756"></polyline>
                <polyline id="Fill-219" fill="#0A0B09" mask="url(#mask-2)" points="-72.8385324 -181.413222 206.248446 98.1632526 -72.9412862 377.739727 -352.028265 98.1632526 -72.8385324 -181.413222"></polyline>
                <polyline id="Fill-220" fill="#FFFFFE" mask="url(#mask-2)" points="-72.8445767 -167.814805 192.293569 97.7864017 -72.938264 363.387609 -338.076409 97.7864017 -72.8445767 -167.814805"></polyline>
                <polyline id="Fill-221" fill="#0A0B09" mask="url(#mask-2)" points="-72.8445767 -154.012072 178.515488 97.7864017 -72.9322197 349.583362 -324.290773 97.7864017 -72.8445767 -154.012072"></polyline>
                <polyline id="Fill-222" fill="#FFFFFE" mask="url(#mask-2)" points="-72.9594192 -139.178675 163.965242 98.1632526 -73.0500844 335.50518 -309.974746 98.1632526 -72.9594192 -139.178675"></polyline>
                <polyline id="Fill-223" fill="#0A0B09" mask="url(#mask-2)" points="-72.6798683 -125.860248 150.953282 98.1632526 -72.7584448 322.188267 -296.393106 98.1632526 -72.6798683 -125.860248"></polyline>
                <polyline id="Fill-224" fill="#FFFFFE" mask="url(#mask-2)" points="-72.9624414 -111.284139 136.114419 98.1617391 -73.04404 307.607617 -282.1209 98.1617391 -72.9624414 -111.284139"></polyline>
                <polyline id="Fill-225" fill="#0A0B09" mask="url(#mask-2)" points="-72.25072 -97.3678965 122.939261 98.1617391 -72.3172077 293.691375 -267.507189 98.1617391 -72.25072 -97.3678965"></polyline>
                <polyline id="Fill-226" fill="#FFFFFE" mask="url(#mask-2)" points="-72.5378263 -82.6177391 107.929646 98.1617391 -72.5952475 278.941217 -253.062719 98.1617391 -72.5378263 -82.6177391"></polyline>
                <polyline id="Fill-227" fill="#0A0B09" mask="url(#mask-2)" points="-72.6541799 -67.8630414 93.0817161 98.1617391 -72.708579 264.185006 -238.445986 98.1617391 -72.6541799 -67.8630414"></polyline>
                <polyline id="Fill-228" fill="#FFFFFE" mask="url(#mask-2)" points="-72.9261753 -52.6240373 77.4223334 97.9846646 -72.9775523 248.59488 -223.32455 97.9846646 -72.9261753 -52.6240373"></polyline>
                <polyline id="Fill-229" fill="#0A0B09" mask="url(#mask-2)" points="-72.9276864 -36.8084058 61.6329974 97.9846646 -72.973019 232.779248 -207.532192 97.9846646 -72.9276864 -36.8084058"></polyline>
                <polyline id="Fill-230" fill="#FFFFFE" mask="url(#mask-2)" points="-72.9307086 -20.8353747 45.678953 97.9816377 -72.973019 216.797137 -191.581169 97.9816377 -72.9307086 -20.8353747"></polyline>
                <polyline id="Fill-231" fill="#0A0B09" mask="url(#mask-2)" points="-72.9412862 -4.91985507 29.7883742 97.9816377 -72.9624414 200.88313 -175.692102 97.9816377 -72.9412862 -4.91985507"></polyline>
                <polyline id="Fill-232" fill="#FFFFFE" mask="url(#mask-2)" points="-72.9412862 12.1701077 12.7236817 97.9816377 -72.9654636 183.793168 -158.630431 97.9816377 -72.9412862 12.1701077"></polyline>
                <polygon id="Fill-233" fill="#0C0C0A" mask="url(#mask-2)" points="224.203168 300.748627 849.164098 300.748627 849.164098 -45.1899337 224.203168 -45.1899337"></polygon>
            </g>
            <g id="Group-293" transform="translate(223.640706, 1.513458)">
                <mask id="mask-4" fill="white">
                    <use xlink:href="#path-3"></use>
                </mask>
                <g id="Clip-236"></g>
                <polyline id="Fill-235" fill="#FFFFFE" mask="url(#mask-4)" points="-84.7202004 331.57019 -34.1109131 331.709429 -82.178554 307.432056 16.9260114 307.422975 -31.4378023 282.803561 16.9260114 282.803561 16.9260114 279.045646 -33.8963389 278.903381 -33.8963389 303.038489 -84.7096228 302.971896"></polyline>
                <polyline id="Fill-237" fill="#FFFFFE" mask="url(#mask-4)" points="17.1874293 282.838371 67.7967165 282.985176 19.7275646 258.707803 118.833641 258.698723 70.4713385 234.079308 118.833641 234.079308 118.833641 230.325934 68.0128018 230.179128 68.0128018 254.311209 17.2010291 254.243104"></polyline>
                <polygon id="Fill-238" fill="#FFFFFE" mask="url(#mask-4)" points="13.9310393 278.44783 17.1889404 278.44783 17.1889404 254.309696 13.9310393 254.309696"></polygon>
                <polygon id="Fill-239" fill="#FFFFFE" mask="url(#mask-4)" points="64.7518786 258.701749 68.0128018 258.701749 68.0128018 230.177615 64.7518786 230.177615"></polygon>
                <polygon id="Fill-240" fill="#FFFFFE" mask="url(#mask-4)" points="13.9310393 282.836857 17.1889404 282.836857 17.1889404 254.309696 13.9310393 254.309696"></polygon>
                <polyline id="Fill-241" fill="#FFFFFE" mask="url(#mask-4)" points="118.953017 233.982447 169.565326 234.127739 121.491641 209.85188 220.597718 209.841286 172.238437 185.218845 220.597718 185.218845 220.597718 181.462443 169.775367 181.321692 169.775367 205.455286 118.963594 205.388694"></polyline>
                <polygon id="Fill-242" fill="#FFFFFE" mask="url(#mask-4)" points="115.696627 229.58888 118.954528 229.58888 118.954528 205.455286 115.696627 205.455286"></polygon>
                <polygon id="Fill-243" fill="#FFFFFE" mask="url(#mask-4)" points="166.518977 209.845826 171.623425 209.845826 171.623425 181.321692 166.518977 181.321692"></polygon>
                <polygon id="Fill-244" fill="#FFFFFE" mask="url(#mask-4)" points="115.696627 233.982447 121.653327 233.982447 121.653327 205.455286 115.696627 205.455286"></polygon>
                <polyline id="Fill-251" fill="#FFFFFE" mask="url(#mask-4)" points="210.335934 146.86783 159.725135 146.725565 207.794287 171.004451 108.694255 171.012019 157.053535 195.63446 108.694255 195.63446 108.694255 199.386321 159.512072 199.531613 159.512072 175.391965 210.328378 175.464611"></polyline>
                <polygon id="Fill-253" fill="#FFFFFE" mask="url(#mask-4)" points="157.404107 199.531613 162.772995 199.531613 162.772995 171.004451 157.404107 171.004451"></polygon>
                <polyline id="Fill-255" fill="#FFFFFE" mask="url(#mask-4)" points="108.570346 195.726781 57.9595477 195.581489 106.027189 219.860375 6.92262311 219.870969 55.2879479 244.490383 6.92262311 244.490383 6.92262311 248.242244 57.7464846 248.39359 57.7464846 224.253942 108.562791 224.320534"></polyline>
                <polygon id="Fill-256" fill="#FFFFFE" mask="url(#mask-4)" points="108.570346 224.253942 111.828247 224.253942 111.828247 200.117321 108.570346 200.117321"></polygon>
                <polygon id="Fill-257" fill="#FFFFFE" mask="url(#mask-4)" points="57.7464846 248.39359 61.0058967 248.39359 61.0058967 219.861888 57.7464846 219.861888"></polygon>
                <polygon id="Fill-258" fill="#FFFFFE" mask="url(#mask-4)" points="108.570346 224.253942 111.828247 224.253942 111.828247 195.726781 108.570346 195.726781"></polygon>
                <polyline id="Fill-259" fill="#FFFFFE" mask="url(#mask-4)" points="6.66120526 244.44952 -43.948082 244.305741 4.12258103 268.5816 -94.9834955 268.590681 -46.6196818 293.214636 -94.9834955 293.214636 -94.9834955 296.972551 -44.1581229 297.114816 -44.1581229 272.978195 6.65213874 273.037219"></polyline>
                <polygon id="Fill-260" fill="#FFFFFE" mask="url(#mask-4)" points="6.66120526 272.978195 9.91910635 272.978195 9.91910635 248.84006 6.66120526 248.84006"></polygon>
                <polygon id="Fill-261" fill="#FFFFFE" mask="url(#mask-4)" points="6.66120526 272.978195 9.91910635 272.978195 9.91910635 244.44952 6.66120526 244.44952"></polygon>
                <polyline id="Fill-263" fill="#FFFFFE" mask="url(#mask-4)" points="201.083555 294.847656 150.475779 294.703878 198.549464 318.978224 99.4418764 318.990331 147.801157 343.603692 99.4418764 343.603692 99.4418764 347.361607 150.264227 347.508412 150.264227 323.370277 201.079022 323.438383"></polyline>
                <polyline id="Fill-266" fill="#FFFFFE" mask="url(#mask-4)" points="-38.0427585 171.691561 12.5650177 171.836853 -35.5056454 147.564021 63.6019422 147.545859 15.2335953 122.932499 63.5989201 122.932499 63.6019422 119.176097 12.7811029 119.030805 12.7811029 143.167427 -38.0382252 143.097807"></polyline>
                <polygon id="Fill-267" fill="#FFFFFE" mask="url(#mask-4)" points="9.5186686 147.562507 12.7811029 147.562507 12.7811029 119.030805 9.5186686 119.030805"></polygon>
                <polyline id="Fill-268" fill="#FFFFFE" mask="url(#mask-4)" points="63.8603379 122.962768 114.477181 123.117141 66.4004732 98.8412816 165.505039 98.826147 117.144247 74.2097598 165.505039 74.2097598 165.505039 70.4503313 114.682688 70.3050393 114.682688 94.440147 63.8724266 94.370528"></polyline>
                <polygon id="Fill-269" fill="#FFFFFE" mask="url(#mask-4)" points="60.6039479 118.578282 63.861849 118.578282 63.861849 94.440147 60.6039479 94.440147"></polygon>
                <polygon id="Fill-270" fill="#FFFFFE" mask="url(#mask-4)" points="111.424787 98.8322008 116.372082 98.8322008 116.372082 70.3035259 111.424787 70.3035259"></polygon>
                <polygon id="Fill-271" fill="#FFFFFE" mask="url(#mask-4)" points="60.6039479 122.962768 64.7790781 122.962768 64.7790781 94.440147 60.6039479 94.440147"></polygon>
                <polyline id="Fill-272" fill="#FFFFFE" mask="url(#mask-4)" points="165.625926 74.114412 216.239746 74.2536501 168.167572 49.9762774 267.275159 49.9687101 218.909835 25.3477826 267.275159 25.3477826 267.275159 21.591381 216.449787 21.4400352 216.449787 45.5842236 165.636503 45.5191449"></polyline>
                <polygon id="Fill-273" fill="#FFFFFE" mask="url(#mask-4)" points="162.368024 69.7208447 165.627437 69.7208447 165.627437 45.5827101 162.368024 45.5827101"></polygon>
                <polygon id="Fill-275" fill="#FFFFFE" mask="url(#mask-4)" points="162.368024 74.1128986 166.544666 74.1128986 166.544666 45.5827101 162.368024 45.5827101"></polygon>
                <polyline id="Fill-279" fill="#FFFFFE" mask="url(#mask-4)" points="257.010353 -13.0032319 206.399555 -13.1470104 254.468707 11.1273354 155.364142 11.1379296 203.726444 35.7543168 155.364142 35.7543168 155.364142 39.5152588 206.191025 39.6605507 206.191025 15.5224161 256.996754 15.5874948"></polyline>
                <polyline id="Fill-283" fill="#FFFFFE" mask="url(#mask-4)" points="155.244766 35.8526915 104.632456 35.708913 152.706141 59.9877992 53.5985539 59.993853 101.960857 84.6193209 53.5985539 84.6193209 53.5985539 88.3757226 104.420904 88.5164741 104.420904 64.3828799 155.231166 64.4449317"></polyline>
                <polygon id="Fill-284" fill="#FFFFFE" mask="url(#mask-4)" points="155.244766 64.3828799 158.502667 64.3828799 158.502667 40.2417184 155.244766 40.2417184"></polygon>
                <polygon id="Fill-285" fill="#FFFFFE" mask="url(#mask-4)" points="103.405455 88.5149607 107.477831 88.5149607 107.477831 59.9908261 103.405455 59.9908261"></polygon>
                <polygon id="Fill-286" fill="#FFFFFE" mask="url(#mask-4)" points="153.230488 64.3828799 158.408979 64.3828799 158.408979 35.8526915 153.230488 35.8526915"></polygon>
                <polyline id="Fill-287" fill="#FFFFFE" mask="url(#mask-4)" points="53.3341139 84.5784576 2.7263377 84.4286253 50.7954897 108.715079 -48.3105869 108.719619 0.051715751 133.34206 -48.3105869 133.34206 -48.3105869 137.092408 2.51176351 137.243754 2.51176351 113.105619 53.3265585 113.172211"></polyline>
                <polygon id="Fill-288" fill="#FFFFFE" mask="url(#mask-4)" points="53.3341139 113.105619 56.5950371 113.105619 56.5950371 88.9689979 53.3341139 88.9689979"></polygon>
                <polygon id="Fill-289" fill="#FFFFFE" mask="url(#mask-4)" points="0.659172262 137.243754 5.40247074 137.243754 5.40247074 108.715079 0.659172262 108.715079"></polygon>
                <polygon id="Fill-290" fill="#FFFFFE" mask="url(#mask-4)" points="50.7909564 113.105619 56.5633043 113.105619 56.5633043 84.5784576 50.7909564 84.5784576"></polygon>
                <polyline id="Fill-291" fill="#FFFFFE" mask="url(#mask-4)" points="-53.5495215 45.7098406 -2.9326788 45.8642133 -51.0093862 21.5868406 48.0951792 21.5732195 -0.265612277 -3.04468116 48.0951792 -3.04468116 48.0951792 -6.80259627 -2.72868221 -6.94940166 -2.72868221 17.1887329 -53.5374328 17.1176004"></polyline>
                <polyline id="Fill-292" fill="#FFFFFE" mask="url(#mask-4)" points="37.8333952 -41.4032629 -12.7774031 -41.5440145 35.2932599 -17.2651284 -63.8113055 -17.260588 -15.4520251 7.36336646 -63.8113055 7.36336646 -63.8113055 11.122795 -12.9889551 11.26506 -12.9889551 -12.8700476 37.8228176 -12.8095093"></polyline>
            </g>
            <g id="Group-391" transform="translate(0.231822, 0.233755)">
                <mask id="mask-6" fill="white">
                    <use xlink:href="#path-5"></use>
                </mask>
                <g id="Clip-295"></g>
                <polygon id="Fill-294" fill="#0A0B09" mask="url(#mask-6)" points="235.079339 1478.49489 907.81627 1478.49489 907.81627 278.946588 235.079339 278.946588"></polygon>
                <polyline id="Fill-296" fill="#FFFFFE" mask="url(#mask-6)" points="411.196394 278.954156 417.781706 287.656537 398.013681 310.698928 417.781706 333.738292 398.524428 356.780684 418.271298 380.849199 398.013681 403.893104 418.779023 427.43645 398.013681 451.000984 417.781706 474.043375 397.504445 496.571191 418.271298 520.63668 398.013681 544.190619 407.130062 543.673017 427.390701 520.119077 406.622338 496.571191 427.390701 473.531827 406.622338 450.483381 427.390701 426.929441 406.622338 403.370961 426.879954 380.849199 407.130062 356.780684 426.879954 334.246814 406.622338 310.184352 427.390701 287.141961 420.306731 279.461164 411.196394 278.954156"></polyline>
                <polyline id="Fill-297" fill="#FFFFFE" mask="url(#mask-6)" points="411.690519 511.934299 418.271298 520.63668 398.52594 543.676044 418.271298 566.721462 399.02762 589.768394 418.780534 613.833882 398.52594 636.873247 419.28977 660.427187 398.52594 683.976586 418.271298 707.026545 398.013681 729.555874 418.780534 753.616822 398.52594 777.170762 407.643832 776.656187 427.895404 753.105274 407.131573 729.555874 427.895404 706.508942 407.131573 683.463524 427.895404 659.909584 407.131573 636.355644 427.390701 613.833882 407.643832 589.768394 427.390701 567.233011 407.131573 543.172063 427.895404 520.122104 420.805389 512.44282 411.690519 511.934299"></polyline>
                <polyline id="Fill-300" fill="#FFFFFE" mask="url(#mask-6)" points="351.90743 279.026802 358.494253 287.73221 338.726228 310.774601 358.494253 333.810938 339.22942 356.85333 358.982334 380.926386 338.726228 403.968777 359.490059 427.515149 338.726228 451.069089 358.494253 474.116021 338.215481 496.643837 358.982334 520.712352 338.726228 544.263265 347.845631 543.74869 368.101737 520.19475 347.333373 496.643837 368.101737 473.604472 347.333373 450.559054 368.101737 427.008141 347.333373 403.448147 367.587968 380.926386 347.845631 356.85333 367.587968 334.325514 347.333373 310.256998 368.101737 287.217634 361.017767 279.53835 351.90743 279.026802"></polyline>
                <polyline id="Fill-301" fill="#FFFFFE" mask="url(#mask-6)" points="352.401555 512.011485 358.982334 520.713866 339.22942 543.756257 358.982334 566.798648 339.738656 589.838013 359.49157 613.911069 339.22942 636.945893 359.996273 660.499833 339.22942 684.053773 358.982334 707.100704 338.726228 729.62852 359.49157 753.694009 339.22942 777.247949 348.351845 776.733373 368.604929 753.179433 347.845631 729.62852 368.604929 706.586129 347.845631 683.539197 368.604929 659.989798 347.845631 636.432831 368.101737 613.911069 348.351845 589.838013 368.101737 567.30717 347.845631 543.241682 368.604929 520.19929 361.511892 512.518493 352.401555 512.011485"></polyline>
                <polyline id="Fill-302" fill="#FFFFFE" mask="url(#mask-6)" points="371.021155 279.026802 377.601934 287.73221 357.861108 310.774601 377.601934 333.810938 358.370344 356.85333 378.114192 380.926386 357.861108 403.968777 378.627961 427.515149 357.861108 451.069089 377.601934 474.116021 357.351872 496.643837 378.114192 520.712352 357.861108 544.263265 366.975978 543.74869 387.233595 520.19475 366.462209 496.643837 387.233595 473.604472 366.462209 450.559054 387.233595 427.008141 366.462209 403.448147 386.733426 380.926386 366.975978 356.85333 386.733426 334.325514 366.462209 310.256998 387.233595 287.217634 380.131491 279.53835 371.021155 279.026802"></polyline>
                <polyline id="Fill-303" fill="#FFFFFE" mask="url(#mask-6)" points="371.522835 512.011485 378.114192 520.713866 358.352211 543.756257 378.114192 566.798648 358.850869 589.838013 378.61285 613.911069 358.352211 636.945893 379.125108 660.499833 358.352211 684.053773 378.114192 707.100704 357.841464 729.62852 378.61285 753.694009 358.352211 777.247949 367.474636 776.733373 387.733764 753.179433 366.962378 729.62852 387.733764 706.586129 366.962378 683.539197 387.733764 659.989798 366.962378 636.432831 387.221506 613.911069 367.474636 589.838013 387.221506 567.30717 366.962378 543.241682 387.733764 520.19929 380.651305 512.518493 371.522835 512.011485"></polyline>
                <polyline id="Fill-304" fill="#FFFFFE" mask="url(#mask-6)" points="391.141263 279.026802 397.720531 287.73221 377.976683 310.774601 397.720531 333.810938 378.485919 356.85333 398.238833 380.926386 377.976683 403.968777 398.739003 427.515149 377.976683 451.069089 397.720531 474.116021 377.464425 496.643837 398.238833 520.712352 377.976683 544.263265 387.08702 543.74869 407.353703 520.19475 386.582317 496.643837 407.353703 473.604472 386.582317 450.559054 407.353703 427.008141 386.582317 403.448147 406.852023 380.926386 387.08702 356.85333 406.852023 334.325514 386.582317 310.256998 407.353703 287.217634 400.256133 279.53835 391.141263 279.026802"></polyline>
                <polyline id="Fill-305" fill="#FFFFFE" mask="url(#mask-6)" points="391.642943 512.011485 398.210123 520.713866 378.466275 543.756257 398.210123 566.798648 378.981555 589.838013 398.719359 613.911069 378.466275 636.945893 399.230106 660.499833 378.466275 684.053773 398.210123 707.100704 377.964594 729.62852 398.719359 753.694009 378.466275 777.247949 387.5887 776.733373 407.846317 753.179433 387.074931 729.62852 407.846317 706.586129 387.074931 683.539197 407.846317 659.989798 387.074931 636.432831 407.332548 613.911069 387.5887 589.838013 407.332548 567.30717 387.074931 543.241682 407.846317 520.19929 400.765369 512.518493 391.642943 512.011485"></polyline>
                <polyline id="Fill-306" fill="#FFFFFE" mask="url(#mask-6)" points="293.151879 278.722597 299.741724 287.424978 279.972188 310.467369 299.741724 333.506733 280.481424 356.549125 300.229805 380.622181 279.972188 403.657005 300.73753 427.207918 279.972188 450.761858 299.741724 473.808789 279.461441 496.336605 300.229805 520.408147 279.972188 543.95906 289.088569 543.444485 309.350719 519.887518 288.577822 496.336605 309.350719 473.297241 288.577822 450.254849 309.350719 426.700909 288.577822 403.143942 308.838461 380.622181 289.088569 356.549125 308.838461 334.018282 288.577822 309.952793 309.350719 286.910402 302.265238 279.234145 293.151879 278.722597"></polyline>
                <polyline id="Fill-307" fill="#FFFFFE" mask="url(#mask-6)" points="293.642982 511.70274 300.228294 520.408147 280.481424 543.444485 300.228294 566.494443 280.983105 589.529268 300.736019 613.602323 280.481424 636.644715 301.245255 660.198655 280.481424 683.749568 300.228294 706.791959 279.970677 729.319775 300.736019 753.38829 280.481424 776.939203 289.599316 776.424628 309.853911 752.873715 289.088569 729.319775 309.853911 706.277383 289.088569 683.231965 309.853911 659.681052 289.088569 636.124085 309.349208 613.602323 289.599316 589.529268 309.349208 566.995398 289.088569 542.935963 309.853911 519.893572 302.754829 512.214288 293.642982 511.70274"></polyline>
                <polyline id="Fill-308" fill="#FFFFFE" mask="url(#mask-6)" points="313.436695 278.722597 320.018985 287.424978 300.273627 310.467369 320.018985 333.506733 300.790418 356.549125 320.532755 380.622181 300.273627 403.657005 321.043502 427.207918 300.273627 450.761858 320.018985 473.808789 299.773457 496.336605 320.532755 520.408147 300.273627 543.95906 309.394541 543.444485 329.65518 519.887518 308.880772 496.336605 329.65518 473.297241 308.880772 450.254849 329.65518 426.700909 308.880772 403.143942 329.148966 380.622181 309.394541 356.549125 329.148966 334.018282 308.880772 309.952793 329.65518 286.910402 322.554587 279.234145 313.436695 278.722597"></polyline>
                <polyline id="Fill-309" fill="#FFFFFE" mask="url(#mask-6)" points="313.942909 511.70274 320.534266 520.408147 300.770774 543.444485 320.534266 566.494443 301.270943 589.529268 321.034435 613.602323 300.770774 636.644715 321.540649 660.198655 300.770774 683.749568 320.534266 706.791959 300.260027 729.319775 321.034435 753.38829 300.770774 776.939203 309.891688 776.424628 330.149305 752.873715 309.37943 729.319775 330.149305 706.277383 309.37943 683.231965 330.149305 659.681052 309.37943 636.124085 329.640069 613.602323 309.891688 589.529268 329.640069 566.995398 309.37943 542.935963 330.149305 519.893572 323.068357 512.214288 313.942909 511.70274"></polyline>
                <polyline id="Fill-310" fill="#FFFFFE" mask="url(#mask-6)" points="332.973524 278.722597 339.555814 287.424978 319.808944 310.467369 339.555814 333.506733 320.319691 356.549125 340.074117 380.622181 319.808944 403.657005 340.574286 427.207918 319.808944 450.761858 339.555814 473.808789 319.295175 496.336605 340.074117 520.408147 319.808944 543.95906 328.920792 543.444485 349.190498 519.887518 328.414578 496.336605 349.190498 473.297241 328.414578 450.254849 349.190498 426.700909 328.414578 403.143942 348.67824 380.622181 328.920792 356.549125 348.67824 334.018282 328.414578 309.952793 349.190498 286.910402 342.085372 279.234145 332.973524 278.722597"></polyline>
                <polyline id="Fill-311" fill="#FFFFFE" mask="url(#mask-6)" points="333.476716 511.70274 340.040873 520.408147 320.301558 543.444485 340.040873 566.494443 320.812305 589.529268 340.55162 613.602323 320.301558 636.644715 341.063878 660.198655 320.301558 683.749568 340.040873 706.791959 319.798367 729.319775 340.55162 753.38829 320.301558 776.939203 329.422473 776.424628 349.680089 752.873715 328.907192 729.319775 349.680089 706.277383 328.907192 683.231965 349.680089 659.681052 328.907192 636.124085 349.16632 613.602323 329.422473 589.529268 349.16632 566.995398 328.907192 542.935963 349.680089 519.893572 342.596119 512.214288 333.476716 511.70274"></polyline>
                <polyline id="Fill-312" fill="#FFFFFE" mask="url(#mask-6)" points="232.717511 278.79827 239.307357 287.497624 219.537821 310.543042 239.307357 333.582406 220.05159 356.624798 239.792415 380.693313 219.537821 403.729651 240.310718 427.28359 219.537821 450.840557 239.307357 473.884462 219.027074 496.412278 239.792415 520.480793 219.537821 544.031706 228.660246 543.517131 248.914841 519.963191 228.147988 496.412278 248.914841 473.369887 228.147988 450.330522 248.914841 426.773555 228.147988 403.212048 248.404094 380.693313 228.660246 356.624798 248.404094 334.093955 228.147988 310.028466 248.914841 286.983048 241.835403 279.306791 232.717511 278.79827"></polyline>
                <polyline id="Fill-313" fill="#FFFFFE" mask="url(#mask-6)" points="233.217681 511.775386 239.792415 520.480793 220.05159 543.520158 239.792415 566.567089 220.55327 589.606454 240.310718 613.674969 220.05159 636.717361 240.813909 660.268274 220.05159 683.822214 239.792415 706.864605 219.537821 729.389394 240.310718 753.463963 220.05159 777.014876 229.16646 776.500301 249.419543 752.946361 228.660246 729.389394 249.419543 706.356083 228.660246 683.310665 249.419543 659.756725 228.660246 636.199758 248.914841 613.674969 229.16646 589.606454 248.914841 567.074098 228.660246 543.013149 249.419543 519.966218 242.324995 512.282394 233.217681 511.775386"></polyline>
                <polyline id="Fill-314" fill="#FFFFFE" mask="url(#mask-6)" points="252.422071 278.79827 259.00285 287.497624 239.260513 310.543042 259.00285 333.582406 239.766727 356.624798 259.516619 380.693313 239.260513 403.729651 260.030388 427.28359 239.260513 450.840557 259.00285 473.884462 238.749766 496.412278 259.516619 520.480793 239.260513 544.031706 248.373872 543.517131 268.633 519.963191 247.863125 496.412278 268.633 473.369887 247.863125 450.330522 268.633 426.773555 247.863125 403.212048 268.132831 380.693313 248.373872 356.624798 268.132831 334.093955 247.863125 310.028466 268.633 286.983048 261.541474 279.306791 252.422071 278.79827"></polyline>
                <polyline id="Fill-315" fill="#FFFFFE" mask="url(#mask-6)" points="252.925263 511.775386 259.516619 520.480793 239.753127 543.520158 259.516619 566.567089 240.251786 589.606454 260.013766 613.674969 239.753127 636.717361 260.523002 660.268274 239.753127 683.822214 259.516619 706.864605 239.239358 729.389394 260.013766 753.463963 239.753127 777.014876 248.87253 776.500301 269.128636 752.946361 248.361783 729.389394 269.128636 706.356083 248.361783 683.310665 269.128636 659.756725 248.361783 636.199758 268.620911 613.674969 248.87253 589.606454 268.620911 567.074098 248.361783 543.013149 269.128636 519.966218 262.05071 512.282394 252.925263 511.775386"></polyline>
                <polyline id="Fill-316" fill="#FFFFFE" mask="url(#mask-6)" points="273.12848 278.79827 279.712281 287.497624 259.9639 310.543042 279.712281 333.582406 260.47767 356.624798 280.226051 380.693313 259.9639 403.729651 280.72622 427.28359 259.9639 450.840557 279.712281 473.884462 259.453153 496.412278 280.226051 520.480793 259.9639 544.031706 269.077259 543.517131 289.342431 519.963191 268.572556 496.412278 289.342431 473.369887 268.572556 450.330522 289.342431 426.773555 268.572556 403.212048 288.834707 380.693313 269.077259 356.624798 288.834707 334.093955 268.572556 310.028466 289.342431 286.983048 282.246372 279.306791 273.12848 278.79827"></polyline>
                <polyline id="Fill-317" fill="#FFFFFE" mask="url(#mask-6)" points="273.634694 511.775386 280.195829 520.480793 260.456514 543.520158 280.195829 566.567089 260.967261 589.606454 280.708087 613.674969 260.456514 636.717361 281.215812 660.268274 260.456514 683.822214 280.195829 706.864605 259.950301 729.389394 280.708087 753.463963 260.456514 777.014876 269.572895 776.500301 289.832023 752.946361 269.063659 729.389394 289.832023 706.356083 269.063659 683.310665 289.832023 659.756725 269.063659 636.199758 289.324298 613.674969 269.572895 589.606454 289.324298 567.074098 269.063659 543.013149 289.832023 519.966218 282.754097 512.282394 273.634694 511.775386"></polyline>
                <polygon id="Fill-318" fill="#0A0B09" mask="url(#mask-6)" points="-15.9875752 1030.37675 349.119477 1030.37675 349.119477 201.707282 -15.9875752 201.707282"></polygon>
                <polyline id="Fill-319" fill="#FFFFFE" mask="url(#mask-6)" points="350.305679 460.360205 322.175305 513.338787 322.175305 461.186553 350.305679 408.486448 350.305679 460.360205"></polyline>
                <polyline id="Fill-320" fill="#FFFFFE" mask="url(#mask-6)" points="322.176816 460.360205 294.037375 513.338787 294.037375 461.186553 322.176816 408.486448 322.176816 460.360205"></polyline>
                <polyline id="Fill-321" fill="#FFFFFE" mask="url(#mask-6)" points="293.768402 460.360205 265.628961 513.338787 265.628961 461.186553 293.768402 408.486448 293.768402 460.360205"></polyline>
                <polyline id="Fill-322" fill="#FFFFFE" mask="url(#mask-6)" points="265.628961 460.367773 237.504631 513.340301 237.504631 461.188067 265.628961 408.487961 265.628961 460.367773"></polyline>
                <polyline id="Fill-323" fill="#FFFFFE" mask="url(#mask-6)" points="237.504631 460.367773 209.372746 513.340301 209.372746 461.188067 237.504631 408.487961 237.504631 460.367773"></polyline>
                <polyline id="Fill-324" fill="#FFFFFE" mask="url(#mask-6)" points="209.372746 460.367773 181.233305 513.340301 181.233305 461.188067 209.372746 408.487961 209.372746 460.367773"></polyline>
                <polyline id="Fill-325" fill="#FFFFFE" mask="url(#mask-6)" points="181.233305 460.360205 153.099909 513.338787 153.099909 461.186553 181.233305 408.486448 181.233305 460.360205"></polyline>
                <polyline id="Fill-326" fill="#FFFFFE" mask="url(#mask-6)" points="153.099909 460.360205 124.960468 513.338787 124.960468 461.186553 153.099909 408.486448 153.099909 460.360205"></polyline>
                <polyline id="Fill-327" fill="#FFFFFE" mask="url(#mask-6)" points="124.691495 460.360205 96.5535656 513.338787 96.5535656 461.186553 124.691495 408.486448 124.691495 460.360205"></polyline>
                <polyline id="Fill-328" fill="#FFFFFE" mask="url(#mask-6)" points="96.5535656 460.367773 68.4186582 513.340301 68.4186582 461.188067 96.5535656 408.487961 96.5535656 460.367773"></polyline>
                <polyline id="Fill-329" fill="#FFFFFE" mask="url(#mask-6)" points="68.4201693 460.367773 40.2973505 513.340301 40.2973505 461.188067 68.4201693 408.487961 68.4201693 460.367773"></polyline>
                <polyline id="Fill-330" fill="#FFFFFE" mask="url(#mask-6)" points="40.2973505 460.367773 12.1533766 513.340301 12.1533766 461.188067 40.2973505 408.487961 40.2973505 460.367773"></polyline>
                <polyline id="Fill-331" fill="#FFFFFE" mask="url(#mask-6)" points="350.266391 564.163719 322.132994 617.136247 322.132994 564.984013 350.266391 512.286934 350.266391 564.163719"></polyline>
                <polyline id="Fill-332" fill="#FFFFFE" mask="url(#mask-6)" points="322.132994 564.163719 293.996576 617.136247 293.996576 564.984013 322.132994 512.286934 322.132994 564.163719"></polyline>
                <polyline id="Fill-333" fill="#FFFFFE" mask="url(#mask-6)" points="293.732136 564.163719 265.589673 617.136247 265.589673 564.984013 293.732136 512.286934 293.732136 564.163719"></polyline>
                <polyline id="Fill-334" fill="#FFFFFE" mask="url(#mask-6)" points="265.589673 564.171286 237.457788 617.136247 237.457788 564.984013 265.589673 512.286934 265.589673 564.171286"></polyline>
                <polyline id="Fill-335" fill="#FFFFFE" mask="url(#mask-6)" points="237.457788 564.171286 209.327414 617.136247 209.327414 564.984013 237.457788 512.286934 237.457788 564.171286"></polyline>
                <polyline id="Fill-336" fill="#FFFFFE" mask="url(#mask-6)" points="209.327414 564.171286 181.189484 617.136247 181.189484 564.984013 209.327414 512.286934 209.327414 564.171286"></polyline>
                <polyline id="Fill-337" fill="#FFFFFE" mask="url(#mask-6)" points="181.189484 564.163719 153.05911 617.136247 153.05911 564.984013 181.189484 512.286934 181.189484 564.163719"></polyline>
                <polyline id="Fill-338" fill="#FFFFFE" mask="url(#mask-6)" points="153.060621 564.163719 124.918158 617.136247 124.918158 564.984013 153.060621 512.286934 153.060621 564.163719"></polyline>
                <polyline id="Fill-339" fill="#FFFFFE" mask="url(#mask-6)" points="124.652207 564.163719 96.5097441 617.136247 96.5097441 564.984013 124.652207 512.286934 124.652207 564.163719"></polyline>
                <polyline id="Fill-340" fill="#FFFFFE" mask="url(#mask-6)" points="96.5097441 564.171286 68.3793699 617.136247 68.3793699 564.984013 96.5097441 512.286934 96.5097441 564.171286"></polyline>
                <polyline id="Fill-341" fill="#FFFFFE" mask="url(#mask-6)" points="68.3793699 564.171286 40.253529 617.136247 40.253529 564.984013 68.3793699 512.286934 68.3793699 564.171286"></polyline>
                <polyline id="Fill-342" fill="#FFFFFE" mask="url(#mask-6)" points="40.253529 564.171286 12.1125773 617.136247 12.1125773 564.984013 40.253529 512.286934 40.253529 564.171286"></polyline>
                <polyline id="Fill-343" fill="#FFFFFE" mask="url(#mask-6)" points="350.189325 251.940452 322.055929 304.925087 322.055929 252.769827 350.189325 200.069721 350.189325 251.940452"></polyline>
                <polyline id="Fill-344" fill="#FFFFFE" mask="url(#mask-6)" points="322.05744 251.940452 293.919511 304.925087 293.919511 252.769827 322.05744 200.069721 322.05744 251.940452"></polyline>
                <polyline id="Fill-345" fill="#FFFFFE" mask="url(#mask-6)" points="293.650537 251.940452 265.511097 304.925087 265.511097 252.769827 293.650537 200.069721 293.650537 251.940452"></polyline>
                <polyline id="Fill-346" fill="#FFFFFE" mask="url(#mask-6)" points="265.511097 251.954073 237.383745 304.925087 237.383745 252.769827 265.511097 200.069721 265.511097 251.954073"></polyline>
                <polyline id="Fill-347" fill="#FFFFFE" mask="url(#mask-6)" points="237.383745 251.954073 209.250348 304.925087 209.250348 252.769827 237.383745 200.069721 237.383745 251.954073"></polyline>
                <polyline id="Fill-348" fill="#FFFFFE" mask="url(#mask-6)" points="209.250348 251.954073 181.112419 304.925087 181.112419 252.769827 209.250348 200.069721 209.250348 251.954073"></polyline>
                <polyline id="Fill-349" fill="#FFFFFE" mask="url(#mask-6)" points="181.112419 251.940452 152.980533 304.925087 152.980533 252.769827 181.112419 200.069721 181.112419 251.940452"></polyline>
                <polyline id="Fill-350" fill="#FFFFFE" mask="url(#mask-6)" points="152.980533 251.940452 124.844115 304.925087 124.844115 252.769827 152.980533 200.069721 152.980533 251.940452"></polyline>
                <polyline id="Fill-351" fill="#FFFFFE" mask="url(#mask-6)" points="124.57363 251.940452 96.437212 304.925087 96.437212 252.769827 124.57363 200.069721 124.57363 251.940452"></polyline>
                <polyline id="Fill-352" fill="#FFFFFE" mask="url(#mask-6)" points="96.437212 251.954073 68.3038156 304.925087 68.3038156 252.769827 96.437212 200.069721 96.437212 251.954073"></polyline>
                <polyline id="Fill-353" fill="#FFFFFE" mask="url(#mask-6)" points="68.3038156 251.954073 40.1779747 304.925087 40.1779747 252.769827 68.3038156 200.069721 68.3038156 251.954073"></polyline>
                <polyline id="Fill-354" fill="#FFFFFE" mask="url(#mask-6)" points="40.1779747 251.954073 12.037023 304.925087 12.037023 252.769827 40.1779747 200.069721 40.1779747 251.954073"></polyline>
                <polyline id="Fill-355" fill="#FFFFFE" mask="url(#mask-6)" points="350.147015 355.750019 322.016641 408.722547 322.016641 356.570313 350.147015 303.873234 350.147015 355.750019"></polyline>
                <polyline id="Fill-356" fill="#FFFFFE" mask="url(#mask-6)" points="322.016641 355.750019 293.8772 408.722547 293.8772 356.570313 322.016641 303.873234 322.016641 355.750019"></polyline>
                <polyline id="Fill-357" fill="#FFFFFE" mask="url(#mask-6)" points="293.611249 355.750019 265.473319 408.722547 265.473319 356.570313 293.611249 303.873234 293.611249 355.750019"></polyline>
                <polyline id="Fill-358" fill="#FFFFFE" mask="url(#mask-6)" points="265.473319 355.756073 237.342945 408.722547 237.342945 356.5688 265.473319 303.871721 265.473319 355.756073"></polyline>
                <polyline id="Fill-359" fill="#FFFFFE" mask="url(#mask-6)" points="237.342945 355.756073 209.209549 408.722547 209.209549 356.5688 237.342945 303.871721 237.342945 355.756073"></polyline>
                <polyline id="Fill-360" fill="#FFFFFE" mask="url(#mask-6)" points="209.21106 355.756073 181.074641 408.722547 181.074641 356.5688 209.21106 303.871721 209.21106 355.756073"></polyline>
                <polyline id="Fill-361" fill="#FFFFFE" mask="url(#mask-6)" points="181.074641 355.750019 152.938223 408.722547 152.938223 356.570313 181.074641 303.873234 181.074641 355.750019"></polyline>
                <polyline id="Fill-362" fill="#FFFFFE" mask="url(#mask-6)" points="152.938223 355.750019 124.804827 408.722547 124.804827 356.570313 152.938223 303.873234 152.938223 355.750019"></polyline>
                <polyline id="Fill-363" fill="#FFFFFE" mask="url(#mask-6)" points="124.53132 355.750019 96.3903683 408.722547 96.3903683 356.570313 124.53132 303.873234 124.53132 355.750019"></polyline>
                <polyline id="Fill-364" fill="#FFFFFE" mask="url(#mask-6)" points="96.3903683 355.756073 68.2645274 408.722547 68.2645274 356.5688 96.3903683 303.871721 96.3903683 355.756073"></polyline>
                <polyline id="Fill-365" fill="#FFFFFE" mask="url(#mask-6)" points="68.2645274 355.756073 40.1371754 408.722547 40.1371754 356.5688 68.2645274 303.871721 68.2645274 355.756073"></polyline>
                <polyline id="Fill-366" fill="#FFFFFE" mask="url(#mask-6)" points="40.1356643 355.756073 11.9932015 408.722547 11.9932015 356.5688 40.1356643 303.871721 40.1356643 355.756073"></polyline>
                <polyline id="Fill-367" fill="#FFFFFE" mask="url(#mask-6)" points="350.391811 666.341779 322.261437 719.317334 322.261437 667.1651 350.391811 614.468021 350.391811 666.341779"></polyline>
                <polyline id="Fill-368" fill="#FFFFFE" mask="url(#mask-6)" points="322.262948 666.341779 294.120485 719.317334 294.120485 667.1651 322.262948 614.468021 322.262948 666.341779"></polyline>
                <polyline id="Fill-369" fill="#FFFFFE" mask="url(#mask-6)" points="293.854534 666.341779 265.716604 719.317334 265.716604 667.1651 293.854534 614.468021 293.854534 666.341779"></polyline>
                <polyline id="Fill-370" fill="#FFFFFE" mask="url(#mask-6)" points="265.716604 666.352373 237.584719 719.318847 237.584719 667.1651 265.716604 614.468021 265.716604 666.352373"></polyline>
                <polyline id="Fill-371" fill="#FFFFFE" mask="url(#mask-6)" points="237.584719 666.352373 209.454345 719.318847 209.454345 667.1651 237.584719 614.468021 237.584719 666.352373"></polyline>
                <polyline id="Fill-372" fill="#FFFFFE" mask="url(#mask-6)" points="209.455856 666.352373 181.313393 719.318847 181.313393 667.1651 209.455856 614.468021 209.455856 666.352373"></polyline>
                <polyline id="Fill-373" fill="#FFFFFE" mask="url(#mask-6)" points="181.311882 666.341779 153.186041 719.317334 153.186041 667.1651 181.311882 614.468021 181.311882 666.341779"></polyline>
                <polyline id="Fill-374" fill="#FFFFFE" mask="url(#mask-6)" points="153.186041 666.341779 125.0466 719.317334 125.0466 667.1651 153.186041 614.468021 153.186041 666.341779"></polyline>
                <polyline id="Fill-375" fill="#FFFFFE" mask="url(#mask-6)" points="124.776116 666.341779 96.6381864 719.317334 96.6381864 667.1651 124.776116 614.468021 124.776116 666.341779"></polyline>
                <polyline id="Fill-376" fill="#FFFFFE" mask="url(#mask-6)" points="96.6381864 666.352373 68.5123455 719.318847 68.5123455 667.1651 96.6381864 614.468021 96.6381864 666.352373"></polyline>
                <polyline id="Fill-377" fill="#FFFFFE" mask="url(#mask-6)" points="68.5123455 666.352373 40.3804602 719.318847 40.3804602 667.1651 68.5123455 614.468021 68.5123455 666.352373"></polyline>
                <polyline id="Fill-378" fill="#FFFFFE" mask="url(#mask-6)" points="40.3804602 666.352373 12.2379974 719.318847 12.2379974 667.1651 40.3804602 614.468021 40.3804602 666.352373"></polyline>
                <polyline id="Fill-379" fill="#FFFFFE" mask="url(#mask-6)" points="350.3495 770.142265 322.219126 823.120847 322.219126 770.968613 350.3495 718.268508 350.3495 770.142265"></polyline>
                <polyline id="Fill-380" fill="#FFFFFE" mask="url(#mask-6)" points="322.219126 770.142265 294.076663 823.120847 294.076663 770.968613 322.219126 718.268508 322.219126 770.142265"></polyline>
                <polyline id="Fill-381" fill="#FFFFFE" mask="url(#mask-6)" points="293.816757 770.142265 265.674294 823.120847 265.674294 770.968613 293.816757 718.268508 293.816757 770.142265"></polyline>
                <polyline id="Fill-382" fill="#FFFFFE" mask="url(#mask-6)" points="265.672783 770.15286 237.545431 823.122361 237.545431 770.968613 265.672783 718.268508 265.672783 770.15286"></polyline>
                <polyline id="Fill-383" fill="#FFFFFE" mask="url(#mask-6)" points="237.545431 770.15286 209.415057 823.122361 209.415057 770.968613 237.545431 718.268508 237.545431 770.15286"></polyline>
                <polyline id="Fill-384" fill="#FFFFFE" mask="url(#mask-6)" points="209.415057 770.15286 181.272594 823.122361 181.272594 770.968613 209.415057 718.268508 209.415057 770.15286"></polyline>
                <polyline id="Fill-385" fill="#FFFFFE" mask="url(#mask-6)" points="181.272594 770.142265 153.14222 823.120847 153.14222 770.968613 181.272594 718.268508 181.272594 770.142265"></polyline>
                <polyline id="Fill-386" fill="#FFFFFE" mask="url(#mask-6)" points="153.143731 770.142265 125.00429 823.120847 125.00429 770.968613 153.143731 718.268508 153.143731 770.142265"></polyline>
                <polyline id="Fill-387" fill="#FFFFFE" mask="url(#mask-6)" points="124.738339 770.142265 96.5973871 823.120847 96.5973871 770.968613 124.738339 718.268508 124.738339 770.142265"></polyline>
                <polyline id="Fill-388" fill="#FFFFFE" mask="url(#mask-6)" points="96.5973871 770.15286 68.4655018 823.122361 68.4655018 770.968613 96.5973871 718.268508 96.5973871 770.15286"></polyline>
                <polyline id="Fill-389" fill="#FFFFFE" mask="url(#mask-6)" points="68.4655018 770.15286 40.3396609 823.122361 40.3396609 770.968613 68.4655018 718.268508 68.4655018 770.15286"></polyline>
                <polyline id="Fill-390" fill="#FFFFFE" mask="url(#mask-6)" points="40.3396609 770.15286 12.1987091 823.122361 12.1987091 770.968613 40.3396609 718.268508 40.3396609 770.15286"></polyline>
            </g>
        </g>
        <g id="Group" transform="translate(-4.000000, 727.000000)">
            <mask id="mask-8" fill="white">
                <use xlink:href="#path-7"></use>
            </mask>
            <g id="Rectangle" transform="translate(214.795814, 241.996940) rotate(-1.000000) translate(-214.795814, -241.996940) "></g>
            <g id="Group-2-Copy" opacity="0.05" mask="url(#mask-8)">
                <g transform="translate(69.180240, 283.000000) rotate(-3.000000) translate(-69.180240, -283.000000) translate(-232.819760, -150.000000)">
                    <g id="Group-234" transform="translate(-0.000000, 0.000000)">
                        <mask id="mask-10" fill="white">
                            <use xlink:href="#path-9"></use>
                        </mask>
                        <g id="Clip-210"></g>
                        <polyline id="Fill-209" fill="#FFFFFE" mask="url(#mask-10)" points="406.165069 116.278354 -87.0945731 -377.843435 -580.490424 116.278354 -87.0945731 610.409118 406.165069 116.278354"></polyline>
                        <polyline id="Fill-211" fill="#0A0B09" mask="url(#mask-10)" points="389.649779 116.278354 -86.5354011 -360.743969 -562.853206 116.278354 -86.5354011 593.306062 389.649779 116.278354"></polyline>
                        <polyline id="Fill-212" fill="#FFFFFE" mask="url(#mask-10)" points="369.980186 116.278354 -86.7934805 -341.300193 -543.701563 116.278354 -86.7934805 573.860491 369.980186 116.278354"></polyline>
                        <polyline id="Fill-213" fill="#0A0B09" mask="url(#mask-10)" points="-86.6142586 -324.186366 353.084946 116.278354 -86.764805 556.74128 -526.462217 116.278354 -86.6142586 -324.186366"></polyline>
                        <polyline id="Fill-214" fill="#FFFFFE" mask="url(#mask-10)" points="331.558614 116.229888 -86.5443621 -302.604708 -504.763832 116.229888 -86.5443621 535.078845 331.558614 116.229888"></polyline>
                        <polyline id="Fill-215" fill="#0A0B09" mask="url(#mask-10)" points="-86.5282322 -284.923652 313.491263 115.799081 -86.6787785 516.521814 -486.698274 115.799081 -86.5282322 -284.923652"></polyline>
                        <polyline id="Fill-216" fill="#FFFFFE" mask="url(#mask-10)" points="-86.3185427 -266.111727 295.366562 116.229888 -86.4368291 498.573298 -468.120141 116.229888 -86.3185427 -266.111727"></polyline>
                        <polyline id="Fill-217" fill="#0A0B09" mask="url(#mask-10)" points="-86.5354011 -248.974565 277.738304 115.939093 -86.6716096 480.852752 -450.945315 115.939093 -86.5354011 -248.974565"></polyline>
                        <polyline id="Fill-218" fill="#FFFFFE" mask="url(#mask-10)" points="-86.5371933 -231.656106 260.450569 115.939093 -86.6626485 463.534292 -433.65041 115.939093 -86.5371933 -231.656106"></polyline>
                        <polyline id="Fill-219" fill="#0A0B09" mask="url(#mask-10)" points="-86.2038407 -214.978472 244.806297 116.61223 -86.3257115 448.202932 -417.335849 116.61223 -86.2038407 -214.978472"></polyline>
                        <polygon id="Fill-233" fill="#0C0C0A" mask="url(#mask-10)" points="266.101432 356.887907 1007.33416 356.887907 1007.33416 -53.4113168 266.101432 -53.4113168"></polygon>
                    </g>
                    <g id="Group-293" transform="translate(265.248279, 1.795031)">
                        <mask id="mask-12" fill="white">
                            <use xlink:href="#path-11"></use>
                        </mask>
                        <g id="Clip-236"></g>
                        <polyline id="Fill-235" fill="#FFFFFE" mask="url(#mask-12)" points="-100.296052 393.443714 -40.271083 393.608857 -97.2815408 364.814764 20.2610833 364.803994 -37.1006492 335.604224 20.2610833 335.604224 20.2610833 331.147161 -40.016588 330.978429 -40.016588 359.603789 -100.283506 359.524807"></polyline>
                        <polyline id="Fill-237" fill="#FFFFFE" mask="url(#mask-12)" points="20.5711371 335.645509 80.5961057 335.819627 23.5838557 307.025534 141.128272 307.014764 83.7683317 277.814994 141.128272 277.814994 141.128272 273.363317 80.8523929 273.189199 80.8523929 301.810969 20.587267 301.730193"></polyline>
                        <polygon id="Fill-238" fill="#FFFFFE" mask="url(#mask-12)" points="16.708907 330.438124 20.5729293 330.438124 20.5729293 301.809174 16.708907 301.809174"></polygon>
                        <polygon id="Fill-239" fill="#FFFFFE" mask="url(#mask-12)" points="76.9847862 307.018354 80.8523929 307.018354 80.8523929 273.187404 76.9847862 273.187404"></polygon>
                        <polygon id="Fill-240" fill="#FFFFFE" mask="url(#mask-12)" points="16.708907 335.643714 20.5729293 335.643714 20.5729293 301.809174 16.708907 301.809174"></polygon>
                        <polyline id="Fill-241" fill="#FFFFFE" mask="url(#mask-12)" points="141.269857 277.700112 201.29841 277.872435 144.280784 249.080137 261.8252 249.067571 204.468844 219.864211 261.8252 219.864211 261.8252 215.408944 201.547529 215.242006 201.547529 243.865571 141.282403 243.78659"></polyline>
                        <polygon id="Fill-242" fill="#FFFFFE" mask="url(#mask-12)" points="137.407627 272.489137 141.271649 272.489137 141.271649 243.865571 137.407627 243.865571"></polygon>
                        <polygon id="Fill-243" fill="#FFFFFE" mask="url(#mask-12)" points="197.685299 249.072957 203.739411 249.072957 203.739411 215.242006 197.685299 215.242006"></polygon>
                        <polygon id="Fill-244" fill="#FFFFFE" mask="url(#mask-12)" points="137.407627 277.700112 144.472551 277.700112 144.472551 243.865571 137.407627 243.865571"></polygon>
                        <polyline id="Fill-245" fill="#FFFFFE" mask="url(#mask-12)" points="262.138838 219.909087 322.163807 220.08141 265.149765 191.290907 382.694181 191.280137 325.334241 162.076776 382.694181 162.076776 382.694181 157.619714 322.412925 157.447391 322.412925 186.078137 262.147799 185.995565"></polyline>
                        <polygon id="Fill-246" fill="#FFFFFE" mask="url(#mask-12)" points="258.273024 214.707087 262.14063 214.707087 262.14063 186.078137 258.273024 186.078137"></polygon>
                        <polygon id="Fill-247" fill="#FFFFFE" mask="url(#mask-12)" points="318.552487 191.278342 325.405929 191.278342 325.405929 157.447391 318.552487 157.447391"></polygon>
                        <polygon id="Fill-248" fill="#FFFFFE" mask="url(#mask-12)" points="258.273024 219.909087 264.934698 219.909087 264.934698 186.078137 258.273024 186.078137"></polygon>
                        <polyline id="Fill-249" fill="#FFFFFE" mask="url(#mask-12)" points="370.523228 116.587099 310.494675 116.420161 367.508717 145.210665 249.966093 145.22323 307.324241 174.42659 249.966093 174.42659 249.966093 178.874677 310.243764 179.047 310.243764 150.423435 370.50889 150.500621"></polyline>
                        <polygon id="Fill-250" fill="#FFFFFE" mask="url(#mask-12)" points="310.245556 179.047 314.109579 179.047 314.109579 145.21605 310.245556 145.21605"></polygon>
                        <polyline id="Fill-251" fill="#FFFFFE" mask="url(#mask-12)" points="249.654247 174.378124 189.627486 174.209391 246.639736 203.00528 129.102489 203.014255 186.458844 232.217615 129.102489 232.217615 129.102489 236.667497 189.374783 236.83982 189.374783 208.209075 249.645286 208.295236"></polyline>
                        <polygon id="Fill-252" fill="#FFFFFE" mask="url(#mask-12)" points="249.654247 208.209075 253.518269 208.209075 253.518269 179.589099 249.654247 179.589099"></polygon>
                        <polygon id="Fill-253" fill="#FFFFFE" mask="url(#mask-12)" points="186.874639 236.83982 193.24239 236.83982 193.24239 203.00528 186.874639 203.00528"></polygon>
                        <polygon id="Fill-254" fill="#FFFFFE" mask="url(#mask-12)" points="248.111147 208.209075 253.518269 208.209075 253.518269 174.378124 248.111147 174.378124"></polygon>
                        <polyline id="Fill-255" fill="#FFFFFE" mask="url(#mask-12)" points="128.955527 232.327112 68.9287658 232.154789 125.939224 260.950677 8.3965995 260.963242 65.7601242 290.163012 8.3965995 290.163012 8.3965995 294.612894 68.6760631 294.792398 68.6760631 266.161652 128.946566 266.240634"></polyline>
                        <polygon id="Fill-256" fill="#FFFFFE" mask="url(#mask-12)" points="128.955527 266.161652 132.819549 266.161652 132.819549 237.534497 128.955527 237.534497"></polygon>
                        <polygon id="Fill-257" fill="#FFFFFE" mask="url(#mask-12)" points="68.6760631 294.792398 72.5418775 294.792398 72.5418775 260.952472 68.6760631 260.952472"></polygon>
                        <polygon id="Fill-258" fill="#FFFFFE" mask="url(#mask-12)" points="128.955527 266.161652 132.819549 266.161652 132.819549 232.327112 128.955527 232.327112"></polygon>
                        <polyline id="Fill-259" fill="#FFFFFE" mask="url(#mask-12)" points="8.08654577 290.114547 -51.9384228 289.944019 5.07561936 318.736317 -112.468797 318.747087 -55.1070644 347.952242 -112.468797 347.952242 -112.468797 352.409304 -52.1875412 352.578037 -52.1875412 323.950882 8.07579246 324.020888"></polyline>
                        <polygon id="Fill-260" fill="#FFFFFE" mask="url(#mask-12)" points="8.08654577 323.950882 11.950568 323.950882 11.950568 295.321932 8.08654577 295.321932"></polygon>
                        <polygon id="Fill-261" fill="#FFFFFE" mask="url(#mask-12)" points="8.08654577 323.950882 11.950568 323.950882 11.950568 290.114547 8.08654577 290.114547"></polygon>
                        <polyline id="Fill-262" fill="#FFFFFE" mask="url(#mask-12)" points="359.549476 292.096261 299.524508 291.925733 356.53855 320.718031 238.997718 320.732391 296.354074 349.933957 238.997718 349.933957 238.997718 354.385634 299.273597 354.559752 299.273597 325.927211 359.536931 326.007988"></polyline>
                        <polyline id="Fill-263" fill="#FFFFFE" mask="url(#mask-12)" points="238.680495 349.889081 178.657319 349.718553 235.674946 378.509056 118.128737 378.523416 175.485093 407.716006 118.128737 407.716006 118.128737 412.173068 178.406408 412.347186 178.406408 383.718236 238.675119 383.799012"></polyline>
                        <polygon id="Fill-264" fill="#FFFFFE" mask="url(#mask-12)" points="238.680495 383.716441 242.54631 383.716441 242.54631 355.092876 238.680495 355.092876"></polygon>
                        <polygon id="Fill-265" fill="#FFFFFE" mask="url(#mask-12)" points="238.680495 383.716441 242.54631 383.716441 242.54631 349.887286 238.680495 349.887286"></polygon>
                        <polyline id="Fill-266" fill="#FFFFFE" mask="url(#mask-12)" points="-44.9344345 203.820224 15.0887419 203.992547 -41.9253003 175.203839 75.6209082 175.182298 18.2537991 145.989708 75.6173238 145.989708 75.6209082 141.534441 15.3450291 141.362118 15.3450291 169.989273 -44.9290579 169.906702"></polyline>
                        <polygon id="Fill-267" fill="#FFFFFE" mask="url(#mask-12)" points="11.4756302 175.202043 15.3450291 175.202043 15.3450291 141.362118 11.4756302 141.362118"></polygon>
                        <polyline id="Fill-268" fill="#FFFFFE" mask="url(#mask-12)" points="75.9273775 146.025609 135.961307 146.208702 78.9400961 117.416404 196.48272 117.398453 139.124572 88.2022733 196.48272 88.2022733 196.48272 83.7434161 136.205049 83.5710932 136.205049 112.196453 75.9417153 112.113882"></polyline>
                        <polygon id="Fill-269" fill="#FFFFFE" mask="url(#mask-12)" points="72.0651475 140.825404 75.9291697 140.825404 75.9291697 112.196453 72.0651475 112.196453"></polygon>
                        <polygon id="Fill-270" fill="#FFFFFE" mask="url(#mask-12)" points="132.341027 117.405634 138.208749 117.405634 138.208749 83.5692981 132.341027 83.5692981"></polygon>
                        <polygon id="Fill-271" fill="#FFFFFE" mask="url(#mask-12)" points="72.0651475 146.025609 77.0170461 146.025609 77.0170461 112.196453 72.0651475 112.196453"></polygon>
                        <polyline id="Fill-272" fill="#FFFFFE" mask="url(#mask-12)" points="196.626098 88.0891863 256.656443 88.2543292 199.640609 59.460236 317.186817 59.4512609 259.823292 30.2496957 317.186817 30.2496957 317.186817 25.7944286 256.905561 25.6149255 256.905561 54.2510559 196.638643 54.1738696"></polyline>
                        <polygon id="Fill-273" fill="#FFFFFE" mask="url(#mask-12)" points="192.762075 82.8782112 196.62789 82.8782112 196.62789 54.2492609 192.762075 54.2492609"></polygon>
                        <polygon id="Fill-274" fill="#FFFFFE" mask="url(#mask-12)" points="253.043331 59.4530559 256.905561 59.4530559 256.905561 25.6149255 253.043331 25.6149255"></polygon>
                        <polygon id="Fill-275" fill="#FFFFFE" mask="url(#mask-12)" points="192.762075 88.0873913 197.715766 88.0873913 197.715766 54.2492609 192.762075 54.2492609"></polygon>
                        <polyline id="Fill-276" fill="#FFFFFE" mask="url(#mask-12)" points="317.493286 30.2999565 377.521839 30.4633043 320.507797 1.67100621 438.048629 1.66203106 380.688689 -27.5395342 438.048629 -27.5395342 438.048629 -31.9948012 377.774542 -32.1653292 377.774542 -3.54355901 317.507624 -3.61715528"></polyline>
                        <polygon id="Fill-277" fill="#FFFFFE" mask="url(#mask-12)" points="313.631056 25.0853913 317.495079 25.0853913 317.495079 -3.54355901 313.631056 -3.54355901"></polygon>
                        <polygon id="Fill-278" fill="#FFFFFE" mask="url(#mask-12)" points="313.631056 30.2999565 317.495079 30.2999565 317.495079 -3.54355901 313.631056 -3.54355901"></polygon>
                        <polyline id="Fill-279" fill="#FFFFFE" mask="url(#mask-12)" points="305.01228 -15.2363913 244.985519 -15.4069193 301.997769 13.3835839 184.455145 13.3961491 241.815085 42.5923292 184.455145 42.5923292 184.455145 47.0529814 244.738193 47.2253043 244.738193 18.596354 304.99615 18.6735404"></polyline>
                        <polygon id="Fill-280" fill="#FFFFFE" mask="url(#mask-12)" points="305.01228 18.594559 308.872717 18.594559 308.872717 -10.0308012 305.01228 -10.0308012"></polygon>
                        <polygon id="Fill-281" fill="#FFFFFE" mask="url(#mask-12)" points="244.738193 47.2235093 248.596838 47.2235093 248.596838 13.3889689 244.738193 13.3889689"></polygon>
                        <polygon id="Fill-282" fill="#FFFFFE" mask="url(#mask-12)" points="305.01228 18.594559 308.872717 18.594559 308.872717 -15.2381863 305.01228 -15.2381863"></polygon>
                        <polyline id="Fill-283" fill="#FFFFFE" mask="url(#mask-12)" points="184.313559 42.7090062 124.285006 42.5384783 181.302633 71.3343665 63.7564244 71.3415466 121.116365 100.548497 63.7564244 100.548497 63.7564244 105.003764 124.034096 105.170702 124.034096 76.5471366 184.297429 76.6207329"></polyline>
                        <polygon id="Fill-284" fill="#FFFFFE" mask="url(#mask-12)" points="184.313559 76.5471366 188.177582 76.5471366 188.177582 47.9145963 184.313559 47.9145963"></polygon>
                        <polygon id="Fill-285" fill="#FFFFFE" mask="url(#mask-12)" points="122.829725 105.168907 127.659753 105.168907 127.659753 71.3379565 122.829725 71.3379565"></polygon>
                        <polygon id="Fill-286" fill="#FFFFFE" mask="url(#mask-12)" points="181.924533 76.5471366 188.066464 76.5471366 188.066464 42.7090062 181.924533 42.7090062"></polygon>
                        <polyline id="Fill-287" fill="#FFFFFE" mask="url(#mask-12)" points="63.4427862 100.500031 3.41960984 100.322323 60.4318598 129.127186 -57.1125565 129.132571 0.247383798 158.335932 -57.1125565 158.335932 -57.1125565 162.784019 3.16511486 162.963522 3.16511486 134.334571 63.4338251 134.413553"></polyline>
                        <polygon id="Fill-288" fill="#FFFFFE" mask="url(#mask-12)" points="63.4427862 134.334571 67.3103929 134.334571 67.3103929 105.707416 63.4427862 105.707416"></polygon>
                        <polygon id="Fill-289" fill="#FFFFFE" mask="url(#mask-12)" points="0.967855474 162.963522 6.59362809 162.963522 6.59362809 129.127186 0.967855474 129.127186"></polygon>
                        <polygon id="Fill-290" fill="#FFFFFE" mask="url(#mask-12)" points="60.4264832 134.334571 67.2727563 134.334571 67.2727563 100.500031 60.4264832 100.500031"></polygon>
                        <polyline id="Fill-291" fill="#FFFFFE" mask="url(#mask-12)" points="-63.3261767 54.4000435 -3.29224695 54.5831366 -60.313458 25.7890435 57.2291661 25.7728882 -0.128982003 -3.42508696 57.2291661 -3.42508696 57.2291661 -7.88214907 -3.05029751 -8.05626708 -3.05029751 20.5726832 -63.3118389 20.4883168"></polyline>
                        <polyline id="Fill-292" fill="#FFFFFE" mask="url(#mask-12)" points="45.058213 -48.9201491 -14.9685479 -49.087087 42.0454943 -20.2911988 -75.4971298 -20.2858137 -18.1407739 8.91934161 -75.4971298 8.91934161 -75.4971298 13.3781988 -15.2194584 13.5469317 -15.2194584 -15.0784286 45.0456674 -15.0066273"></polyline>
                    </g>
                    <g id="Group-391" transform="translate(0.460998, 0.463291)">
                        <mask id="mask-14" fill="white">
                            <use xlink:href="#path-13"></use>
                        </mask>
                        <g id="Clip-295"></g>
                        <polygon id="Fill-294" fill="#0A0B09" mask="url(#mask-14)" points="278.81503 1753.5637 1076.71232 1753.5637 1076.71232 330.843628 278.81503 330.843628"></polygon>
                        <polyline id="Fill-296" fill="#FFFFFE" mask="url(#mask-14)" points="487.698049 330.852603 495.508536 341.174032 472.062738 368.50338 495.508536 395.829137 472.668508 423.158485 496.089214 451.704864 472.062738 479.036007 496.6914 506.95951 472.062738 534.908144 495.508536 562.237491 471.458761 588.956529 496.089214 617.499318 472.062738 645.435386 482.87519 644.821485 506.905251 616.885417 482.273005 588.956529 506.905251 561.630771 482.273005 534.294243 506.905251 506.358175 482.273005 478.416721 506.299481 451.704864 482.87519 423.158485 506.299481 396.432268 482.273005 367.893069 506.905251 340.563721 498.503332 331.453939 487.698049 330.852603"></polyline>
                        <polyline id="Fill-298" fill="#FFFFFE" mask="url(#mask-14)" points="511.717356 330.852603 519.52605 341.174032 496.107136 368.50338 519.52605 395.829137 496.712906 423.158485 520.130028 451.704864 496.107136 479.036007 520.739382 506.95951 496.107136 534.908144 519.52605 562.237491 495.506743 588.956529 520.130028 617.499318 496.107136 645.435386 506.923173 644.821485 530.949649 616.885417 506.313819 588.956529 530.949649 561.630771 506.313819 534.294243 530.949649 506.358175 506.313819 478.416721 530.356424 451.704864 506.923173 423.158485 530.356424 396.432268 506.313819 367.893069 530.949649 340.563721 522.5316 331.453939 511.717356 330.852603"></polyline>
                        <polyline id="Fill-300" fill="#FFFFFE" mask="url(#mask-14)" points="417.37858 330.938765 425.190858 341.263783 401.745061 368.593131 425.190858 395.915299 402.34187 423.244647 425.769745 451.796411 401.745061 479.125759 426.37193 507.052852 401.745061 534.98892 425.190858 562.323653 401.139292 589.04269 425.769745 617.589069 401.745061 645.521547 412.561097 644.911237 436.585781 616.975168 411.953536 589.04269 436.585781 561.716932 411.953536 534.383995 436.585781 506.451516 411.953536 478.508268 435.976427 451.796411 412.561097 423.244647 435.976427 396.525609 411.953536 367.979231 436.585781 340.653473 428.183863 331.545485 417.37858 330.938765"></polyline>
                        <polyline id="Fill-302" fill="#FFFFFE" mask="url(#mask-14)" points="440.048347 330.938765 447.853456 341.263783 424.439919 368.593131 447.853456 395.915299 425.043897 423.244647 448.461018 451.796411 424.439919 479.125759 449.070372 507.052852 424.439919 534.98892 447.853456 562.323653 423.835942 589.04269 448.461018 617.589069 424.439919 645.521547 435.250579 644.911237 459.277054 616.975168 434.641224 589.04269 459.277054 561.716932 434.641224 534.383995 459.277054 506.451516 434.641224 478.508268 458.68383 451.796411 435.250579 423.244647 458.68383 396.525609 434.641224 367.979231 459.277054 340.653473 450.853629 331.545485 440.048347 330.938765"></polyline>
                        <polyline id="Fill-304" fill="#FFFFFE" mask="url(#mask-14)" points="463.911731 330.938765 471.715048 341.263783 448.297926 368.593131 471.715048 395.915299 448.901904 423.244647 472.329779 451.796411 448.297926 479.125759 472.923003 507.052852 448.297926 534.98892 471.715048 562.323653 447.690364 589.04269 472.329779 617.589069 448.297926 645.521547 459.103209 644.911237 483.140439 616.975168 458.504608 589.04269 483.140439 561.716932 458.504608 534.383995 483.140439 506.451516 458.504608 478.508268 482.545422 451.796411 459.103209 423.244647 482.545422 396.525609 458.504608 367.979231 483.140439 340.653473 474.72239 331.545485 463.911731 330.938765"></polyline>
                        <polyline id="Fill-306" fill="#FFFFFE" mask="url(#mask-14)" points="347.691763 330.577964 355.507626 340.899392 332.060037 368.22874 355.507626 395.554498 332.664015 422.883846 356.086513 451.435609 332.060037 478.755982 356.688698 506.68846 332.060037 534.624529 355.507626 561.959262 331.454267 588.678299 356.086513 617.228268 332.060037 645.160746 342.872489 644.550436 366.904341 616.610777 342.266719 588.678299 366.904341 561.352541 342.266719 534.023193 366.904341 506.087125 342.266719 478.147467 366.296779 451.435609 342.872489 422.883846 366.296779 396.161218 342.266719 367.618429 366.904341 340.289082 358.500631 331.184684 347.691763 330.577964"></polyline>
                        <polyline id="Fill-308" fill="#FFFFFE" mask="url(#mask-14)" points="371.750499 330.577964 379.557401 340.899392 356.138487 368.22874 379.557401 395.554498 356.751426 422.883846 380.166755 451.435609 356.138487 478.755982 380.772525 506.68846 356.138487 534.624529 379.557401 561.959262 355.545263 588.678299 380.166755 617.228268 356.138487 645.160746 366.956316 644.550436 390.986376 616.610777 366.346962 588.678299 390.986376 561.352541 366.346962 534.023193 390.986376 506.087125 366.346962 478.147467 390.385983 451.435609 366.956316 422.883846 390.385983 396.161218 366.346962 367.618429 390.986376 340.289082 382.564743 331.184684 371.750499 330.577964"></polyline>
                        <polyline id="Fill-310" fill="#FFFFFE" mask="url(#mask-14)" points="394.922087 330.577964 402.728989 340.899392 379.308283 368.22874 402.728989 395.554498 379.914053 422.883846 403.34372 451.435609 379.308283 478.755982 403.936944 506.68846 379.308283 534.624529 402.728989 561.959262 378.698929 588.678299 403.34372 617.228268 379.308283 645.160746 390.115358 644.550436 414.156172 616.610777 389.514965 588.678299 414.156172 561.352541 389.514965 534.023193 414.156172 506.087125 389.514965 478.147467 413.54861 451.435609 390.115358 422.883846 413.54861 396.161218 389.514965 367.618429 414.156172 340.289082 405.729162 331.184684 394.922087 330.577964"></polyline>
                        <polyline id="Fill-312" fill="#FFFFFE" mask="url(#mask-14)" points="276.013793 330.667715 283.829656 340.985554 260.382066 368.318491 283.829656 395.644249 260.991421 422.973597 284.404958 451.519976 260.382066 478.842144 285.019689 506.778212 260.382066 534.71787 283.829656 562.049013 259.776297 588.76805 284.404958 617.314429 260.382066 645.246908 271.201687 644.636597 295.224578 616.700529 270.594125 588.76805 295.224578 561.438703 270.594125 534.112945 295.224578 506.173287 270.594125 478.228243 294.618809 451.519976 271.201687 422.973597 294.618809 396.25097 270.594125 367.708181 295.224578 340.375243 286.828037 331.270846 276.013793 330.667715"></polyline>
                        <polyline id="Fill-314" fill="#FFFFFE" mask="url(#mask-14)" points="299.384317 330.667715 307.189427 340.985554 283.774097 368.318491 307.189427 395.644249 284.37449 422.973597 307.798781 451.519976 283.774097 478.842144 308.408135 506.778212 283.774097 534.71787 307.189427 562.049013 283.168327 588.76805 307.798781 617.314429 283.774097 645.246908 294.582964 644.636597 318.611232 616.700529 293.977195 588.76805 318.611232 561.438703 293.977195 534.112945 318.611232 506.173287 293.977195 478.228243 318.018008 451.519976 294.582964 422.973597 318.018008 396.25097 293.977195 367.708181 318.611232 340.375243 310.200353 331.270846 299.384317 330.667715"></polyline>
                        <polyline id="Fill-316" fill="#FFFFFE" mask="url(#mask-14)" points="323.943081 330.667715 331.751776 340.985554 308.329277 368.318491 331.751776 395.644249 308.938631 422.973597 332.36113 451.519976 308.329277 478.842144 332.954354 506.778212 308.329277 534.71787 331.751776 562.049013 307.723508 588.76805 332.36113 617.314429 308.329277 645.246908 319.138145 644.636597 343.173582 616.700529 318.539544 588.76805 343.173582 561.438703 318.539544 534.112945 343.173582 506.173287 318.539544 478.228243 342.571396 451.519976 319.138145 422.973597 342.571396 396.25097 318.539544 367.708181 343.173582 340.375243 334.757325 331.270846 323.943081 330.667715"></polyline>
                        <polygon id="Fill-318" fill="#0A0B09" mask="url(#mask-14)" points="-18.9620078 1222.07475 414.071937 1222.07475 414.071937 239.234218 -18.9620078 239.234218"></polygon>
                        <polyline id="Fill-319" fill="#FFFFFE" mask="url(#mask-14)" points="415.478829 546.008616 382.114896 608.843678 382.114896 546.988703 415.478829 484.483926 415.478829 546.008616"></polyline>
                        <polyline id="Fill-320" fill="#FFFFFE" mask="url(#mask-14)" points="382.116689 546.008616 348.742003 608.843678 348.742003 546.988703 382.116689 484.483926 382.116689 546.008616"></polyline>
                        <polyline id="Fill-321" fill="#FFFFFE" mask="url(#mask-14)" points="348.422988 546.008616 315.048303 608.843678 315.048303 546.988703 348.422988 484.483926 348.422988 546.008616"></polyline>
                        <polyline id="Fill-322" fill="#FFFFFE" mask="url(#mask-14)" points="315.048303 546.017591 281.69154 608.845473 281.69154 546.990498 315.048303 484.485721 315.048303 546.017591"></polyline>
                        <polyline id="Fill-323" fill="#FFFFFE" mask="url(#mask-14)" points="281.69154 546.017591 248.325815 608.845473 248.325815 546.990498 281.69154 484.485721 281.69154 546.017591"></polyline>
                        <polyline id="Fill-324" fill="#FFFFFE" mask="url(#mask-14)" points="248.325815 546.017591 214.95113 608.845473 214.95113 546.990498 248.325815 484.485721 248.325815 546.017591"></polyline>
                        <polyline id="Fill-343" fill="#FFFFFE" mask="url(#mask-14)" points="415.340828 298.813094 381.973311 361.655336 381.973311 299.796771 415.340828 237.291995 415.340828 298.813094"></polyline>
                        <polyline id="Fill-344" fill="#FFFFFE" mask="url(#mask-14)" points="381.975103 298.813094 348.60221 361.655336 348.60221 299.796771 381.975103 237.291995 381.975103 298.813094"></polyline>
                        <polyline id="Fill-345" fill="#FFFFFE" mask="url(#mask-14)" points="348.283195 298.813094 314.90851 361.655336 314.90851 299.796771 348.283195 237.291995 348.283195 298.813094"></polyline>
                        <polyline id="Fill-346" fill="#FFFFFE" mask="url(#mask-14)" points="314.90851 298.829249 281.548162 361.655336 281.548162 299.796771 314.90851 237.291995 314.90851 298.829249"></polyline>
                        <polyline id="Fill-347" fill="#FFFFFE" mask="url(#mask-14)" points="281.548162 298.829249 248.180646 361.655336 248.180646 299.796771 281.548162 237.291995 281.548162 298.829249"></polyline>
                        <polyline id="Fill-348" fill="#FFFFFE" mask="url(#mask-14)" points="248.180646 298.829249 214.807752 361.655336 214.807752 299.796771 248.180646 237.291995 248.180646 298.829249"></polyline>
                        <polyline id="Fill-355" fill="#FFFFFE" mask="url(#mask-14)" points="415.290646 421.936069 381.926714 484.763951 381.926714 422.908976 415.290646 360.40779 415.290646 421.936069"></polyline>
                        <polyline id="Fill-356" fill="#FFFFFE" mask="url(#mask-14)" points="381.926714 421.936069 348.552028 484.763951 348.552028 422.908976 381.926714 360.40779 381.926714 421.936069"></polyline>
                        <polyline id="Fill-357" fill="#FFFFFE" mask="url(#mask-14)" points="348.236598 421.936069 314.863704 484.763951 314.863704 422.908976 348.236598 360.40779 348.236598 421.936069"></polyline>
                        <polyline id="Fill-358" fill="#FFFFFE" mask="url(#mask-14)" points="314.863704 421.943249 281.499772 484.763951 281.499772 422.907181 314.863704 360.405995 314.863704 421.943249"></polyline>
                        <polyline id="Fill-359" fill="#FFFFFE" mask="url(#mask-14)" points="281.499772 421.943249 248.132256 484.763951 248.132256 422.907181 281.499772 360.405995 281.499772 421.943249"></polyline>
                        <polyline id="Fill-360" fill="#FFFFFE" mask="url(#mask-14)" points="248.134048 421.943249 214.762947 484.763951 214.762947 422.907181 248.134048 360.405995 248.134048 421.943249"></polyline>
                    </g>
                </g>
            </g>
        </g>
    </g>
</svg>